<?xml version="1.0" encoding="UTF-8"?>
<svg id="Camada_1" xmlns="http://www.w3.org/2000/svg" version="1.1" viewBox="0 0 640 640">
  <!-- Generator: Adobe Illustrator 29.3.1, SVG Export Plug-In . SVG Version: 2.1.0 Build 151)  -->
  <defs>
    <style>
      .st0 {
        fill: #4a4a4a;
      }

      .st1 {
        fill: #918777;
      }

      .st2 {
        fill: #fff;
      }
    </style>
  </defs>
  <path class="st2" d="M-486.5-310.9V329.1h-640V-310.9H-486.5ZM-806.8-278.5c-5.5-5.7-14.4-8.7-21.6-11.4.8,10.8,3.2,28.3,14.3,33.2s10,3.6,8.7.3-6.7-7.6-8.2-9.8c-2.8-4.1-6.1-9.1-7.8-13.7l18.5,22c2.3.4,1.3-1,1.6-2.3,1.8-6.6-.9-13.5-5.5-18.3ZM-774.5-287.9c-13.1,4.9-26.7,18.1-18.5,33l12.5-21c-.4,4-2.2,8-3.8,11.7s-4.4,6.9-5.2,8.8c-1.3,3.3,5.5.1,6.5-.5,3.2-2.1,8.5-9.8,8.5-13.5v-18.5ZM-745.5-286.9c-13.2,4.7-26.5,18.4-18.5,33l13.5-23c-1.1,4.7-2.9,9.3-4.8,13.7s-4.4,6.9-5.2,8.8c-1.3,3.3,5.5.1,6.5-.5,3.2-2.1,8.5-9.8,8.5-13.5v-18.5ZM-704.5-273.9c-13.1,4.8-26.5,18.3-18.5,33l12.5-21c-.2,3.3-1.6,6.7-2.8,9.7s-5.2,8.2-6.2,10.8c-1.4,3.7,7.9-1.2,8.7-1.8,1.8-1.6,6.3-10,6.3-12.2v-18.5ZM-856.5-254.9c-18.5,5.1-38.4,26.3-28.1,46.6s-.5,1.9,2.1,1.4l18-34c-.6,5.8-3.2,12.5-5.5,18s-7.9,13.4-8.5,16.5-.1,1.3,1,1c11.8-3.1,21-13.2,21-26v-23.5ZM-813.5-235.9c.6-13.5-14.6-18.6-26-18,2.4,8,8.2,19.8,17.5,21,1.1.1,6.6.7,5.5-1.5-3.5-2.8-7.6-5-11-8s-3.7-3-3.5-4.5l17.5,11ZM-731.5-251.9c-13,3.6-26.1,18.6-17.5,32,5.2-6.5,9-14,11.5-22,1.9-.2.8,2,.5,3-1.7,7.1-5.8,13.3-8.6,19.9,15.1-1.3,16.2-21.2,14-33ZM-820.5-150.9v18.5c0,2.7,4,14.5,5.2,17.8,5.9,14.9,18.7,30.6,31.1,40.7,1.6-2.3,7.3-4.3,6.5-7.3-9.5-8.9-18.9-13.3-12.4-27.7s15-22.5,15.6-41.4c.7-26.2-14.8-36-25.2-55.9s-1.7-27.1,4.2-43.7c-7.6,7.4-17.5,23.5-16.9,34.4s15.1,24.2,20.1,34c14.6,28.3,5.5,49.5-9.7,74.7-7.9-10.5-13.9-22.6-16.4-35.6s1.2-7.1-2.1-8.4ZM-756.5-248.9c-20.4,1.4-43.7,14.3-40,38,.7.8,4-1.9,4.9-2.6,8.9-6.7,16.2-16.2,23.6-24.4,1.4.7-.2,2.4-.7,3.3-5.9,9.6-14.9,18.2-22.8,26.2-.4,2.2,1,1.4,2.5,1.5,21.5,1.2,29-25.4,32.5-42ZM-696.5-238.9c-20.6.7-44.9,14.3-40,38,11-6.5,18.8-16.9,27.5-26,1.6.9-.3,2.3-.9,3.1-6.2,9.5-14.1,18-22.6,25.4,5.6,3.5,14.2-.3,19-4,11-8.5,12.8-24.1,17-36.5ZM-674.5-237.9c-13.9,5-25.4,17.5-19,33l1.5-1,12.5-23c-1.5,8.8-5.6,16.9-10,24.5,6.3,2.2,15-9.8,15-15v-18.5ZM-916.5-222.9c8,8.8,14.5,19.1,24.5,26,1.5-.9,1.4-1.9,1.5-3.4,2.2-19.4-18.9-32.7-36.1-33,3.5,17.2,8.4,41.7,31,39.5-7.7-9-16.3-17.9-21-29ZM-828.5-206.4c.7-6.8,0-15.9,0-23s-4.3.1-5.3.7c-16.6,9.1-32.3,24.9-22.7,45.2,2.3,3.1,7.9-9.4,9.2-10.7l10.8-21.7c-.8,6.9-4,14.3-6.8,20.7s-6.3,9.9-7.1,12.9.1,1.6,1.5,1.5c11.6-.6,19.4-15.2,20.5-25.5ZM-647.5-227.9c-12.7,3.1-27.3,18.8-18.5,32l3.3-3.6,9.2-17.3c0,7.6-7.1,15.3-9,21.5s8.1-2.1,9.4-3.6c2.1-2.4,5.6-10.5,5.6-13.4v-15.5ZM-599.5-171.9c8.8-21.2-11-31.8-25.5-42-1.4.9-1.4,1.9-1.6,3.4-1.8,17.7,1.4,38.9,23.1,40.5l-4.1-10.3-11.4-21.6c4.5,5.6,9.3,11.9,12.9,18.1s5.6,12.7,6.6,11.9ZM-572.5-213.9c-12.7,3.8-25.6,17.5-19,31.4h2.1c0,0,12-22.4,12-22.4-.7,5-2.8,10.1-4.8,14.7s-10.3,15.3,1.2,8.2,8.7-9.7,8.7-13.3v-18.5ZM-742.5-195.9c.3-13.5-14.6-18.4-26-17,3.2,9.7,11.9,24.9,24,19.5-5.2-4-11.3-6.8-15-12.5l17,10ZM-673.5-193.9c-12.7-5.9-26.7-12.5-39.9-3.4-1.5,1-8.8,7.8-7.1,9.4,11.5,1,22.6-2.4,34-3l-16.8,4.7-16.2,1.3c-1.4,1.3,5.8,6,7,6.5,10.2,4.5,20.8-1.2,29.3-6.7s10.9-7.1,9.7-8.8ZM-908.5-182.9c-6-20.6-29.1-20.5-46-14,10.1,12.1,27.8,31.4,44,17l-16-4.5-14-7.5,32,9ZM-636.5-198.9c-12.8,3-26.8,18.5-18.5,32l6.7-9.3,5.8-11.7c-.7,4.7-2.6,9.7-4.5,14s-9.3,12.3.5,7.5c4.5-2.2,10-10.2,10-15v-17.5ZM-860.5-177.9c1.7,13.4,4.7,31.1-3.6,42.9-10.5,15-30.9,10-34-7.9s2.5-37.3,9.5-53.1c-16.6,22.6-22.6,46-11.2,72.7,11.4,26.5,39.5,49.7,42.2,79.8s-15.3,60.6-48,75.5c-1.3-21.8-9.1-40-28-51.7,2.3-31.1-4.7-61.4-30-81.3l11.4,18.1c5.2,10.7,8.8,22.3,9.7,34.3s1.6,26.2-4.5,26.5c-18.2-4.5-37.1-7.7-55.8-5.7l-12.8,3.7c33.9-1.7,72.5,3.4,91.4,35.1,3.1,5.2,8.5,16.3,6.4,22.3s-2.8,2.1-4.4,2.6c-8.8,2.7-20.9,3.2-30.4,5.6-20.4,5-41.8,14.8-54,32.5,1,.8,13.8-9,16.1-10.4,44-27,105.2-23.6,131.4,25.4,12,22.4,9,35.8,14,59,9.9,46.6,33.3,74.3,72.6,99.4,56.6,36.2,122.9,55.5,189.9,60.6l-48.4-11.1c-86.7-19.3-223.3-107-184.3-212.2,15.1-40.6,55-66.3,88.3-90.8,1.1-2.1-3-14.4-5.2-14.9-36.4,21.8-75.1,44.4-99.4,80.4-2.3,3.3-7.8,15.7-10.7,16.4s-3.8-1.2-5.3-2.3c-8.1-6.2-19-20.6-27.5-28.5s-9.9-6.3-9.6-9.4,28.4-29.1,32.6-33.5c7-7.4,12.9-16.6,20.5-23.5,11.4-10.3,27.6-18.5,39.9-28.1,26.2-20.2,48.9-47.2,52.1-81.4l-7.1,17.4c-12.5,27.2-41.2,52.6-67.2,66.8-5.2,2.8-24,12.3-29,10.7-3-1-8.1-25.1-9.9-30.1-6.8-18.3-19-33.7-31.7-48.2,8.2-6,19.5-7,25.9-16s4.5-30.7,1.3-41.3-1.6-5.5-3.3-6.2ZM-670.5-109.9c-7.2-37.9-44.3-58.1-69-84,6.5,22.7,30,33.7,44.5,51,30.1,35.8,11.8,75.9-16.4,105.7l7.3,13.3c11.6-11.1,21.6-24.2,28-39s6.6-22.4,14.6-32.4c20-25.1,65.8-32.4,63-70.5l-5.6,14.9c-8.2,16.3-34.3,23.7-50,32-4.4,2.3-9.6,6.8-13.4,8.6s-1.8.7-3,.5ZM-800.5-187.9c-13.3,5.3-24,16.7-19,32,1.6,1.4,4.7-4,5.4-5.1,2.6-4,4.9-9.4,6.6-13.9,1.9-.2.8,2,.5,3-1.6,6.6-5.9,11.6-7.5,17.9,15.3-2.7,16.3-21.7,14-34ZM-741.5-187.9c-18-2.4-27.1,13.5-30,29,14.3-1.5,34.6-6.8,33-25-6.7,5.3-12.4,10.9-19.9,15.6s-2.2,2.5-3.1.9c1.9-1.6,22.8-18,20-20.5ZM-863.5-185.9c-20,6.1-37.9,26.3-28,48l8.2-10.3,12.8-25.7c-3,13.3-8.6,26.1-16,37.5,11,.4,19.1-9.4,21.5-19.5s1.4-7,1.4-7.6v-22.5ZM-660.5-182.9c-10.1-.5-20.4-.8-23,11l15-6-13,8.5c9.3,4.4,17.5-5.8,21-13.5ZM-543.5-171.9c-16-8.6-37.4-14.2-48,5l6.5,1,29.5-4c-.6,1.5-4.4,2-6,2.5-9.3,2.7-19.4,4.7-29,4.5,12.6,16.6,33.4,2.9,45.7-6.7s1.8,0,1.3-2.3ZM-627.5-139.9c14-7.7,7.9-25.9,1.5-37-5.6,6.5-11,12.3-11.5,21.4s.7,12.8,7,14.5l4-26-1,27ZM-910.5-152.9c-5.8-21.5-32.7-21.6-49-12.5,10.4,10.4,21.3,24.2,38,21s11-3.5,9-5.5l-16.5-4-17.5-8,36,9ZM-822.5-151.9c-1.3-14.4-14.6-18-27-18,4.8,9.9,9,22.8,22.5,21,5-.7-1.1-2.6-1.8-3.1-3.5-2.5-7.2-5.2-9.7-8.9l16,9ZM-737.5-136.9c14.5-3.3,13.1-22.2,8.5-33-7.4,5.2-16.4,14.3-15.3,24.2s2.6,9.4,4.8,7.8l8-22c-.1,8.1-3.2,15.6-6,23ZM-970.5-109.9c7.5-5,8.2-16.2,5.7-24.2s-14.6-22.3-19.7-26.3-1.3-1.9-3-1.5c-7.8,19.5-10.1,44.6,13,54,1.2-13.3-5.6-25.7-8.5-37.9s-1.3-3.3.5-3c4.7,12.7,11,25.2,12,39ZM-663-159.9c-5.3-.7-12,.5-17.5,0,5.7,14.4,19.5,37.3,38,27.5-9.6-5.6-19-11.6-27-19.5,10.5,4.3,18.7,13.9,30,16,1-12.1-12.7-22.5-23.5-24ZM-570.8-142.5c-4.4-5.1-12.8-9.3-19.7-8.3l16,25c-1.8.4-2.5-.9-3.5-2-5.6-5.8-10-12.7-15-19-2.3-.4-1.4,1-1.5,2.5-1.6,20.8,16.2,26.5,32,33.5-.3-10.1-1.4-23.7-8.3-31.7ZM-747.5-139.9c-18.1-3-27.3,13.6-30,29,13.9-1.2,34.9-7.3,32.5-25-5.1,3.5-9,8.2-14.2,11.8s-5.1,4.3-7.3,3.7c3.6-4,9.4-7.3,13-11s6.7-7.9,6-8.5ZM-829.5-136.9c-19.5,7.3-37.1,25.3-28,47.4,1.6,3,7.2-7.6,8.2-8.8l12.8-25.7c-1.4,7-4,14.1-6.8,20.7s-7.3,12-8.2,14.8,8-.6,8.9-1.1c5.8-3.2,13.1-14.5,13.1-20.9v-26.5ZM-898.5-112.9c-8.3-27.1-39.1-25.8-61-17,11.4,13.3,29.4,33.3,49,27.5,1.4-.4,11.1-4.5,9-6.5l-20.3-5.2-22.7-10.8c15.4,3.7,29.8,11.7,46,12ZM-705.5-110.9c.6-.5-3.8-12.1-4.8-13.7-3.7-6.2-14.3-13.8-21.2-8.8l16.5,15.5-18.5-13c-.6,15.1,16,19.3,28,20ZM-606.5-101.9c-.7-9.4-.6-19.4-4.5-28-11.5,11.6-4.7,27.7,6,37,6-11.1,12.4-30-2.5-37,2,8.2,2.3,16.1,2,24.5s.8,3.7-1,3.5ZM-993.5-113.9c-8-19.6-30.5-11.8-46-7-1.4,1.9,9.8,10.6,11.7,11.8,10.8,7.2,25.1,10.4,34.3-.8l-33-8c11.2-.8,22.1,1.9,33,4ZM-629.5-74.9l-4.5-36c-10.1,8.4-9,20.1-4.2,31.2s8,14.8,8.7,15.3c1.4,1,1.6.5,2.5-.6,2.6-2.9,7.5-13.6,8.4-17.6,2.6-10.9.3-23.8-10.9-28.4-2.4,10.9.1,21.7,1,32.5s.7,3.7-1,3.5ZM-709.5-85.9c-1.1-13.2-10.5-26.1-25-24-1.2,1,6.8,8.5,8,9.5,2.1,1.9,5.4,4.5,8,5.5l-.5,2-18.5-13c.6,14.7,15.8,18.4,28,20ZM-562.5-63.9c1.6-17.6-5.8-40.7-27-40,2.8,9.9,10.8,16.9,16.5,25s2.7,1.9,1,3c-8.5-7.2-14.4-16.5-21.5-25-5.7,21.4,15.4,29.8,31,37ZM-1014.5-81.9c15.6-1.3,31.2-4.3,46-9.5,1.7-1.2.4-1.5-.5-2.5-15.3-17.4-45.5-2.2-57.2,12.4s-3.1,4-2.3,4.6c21,5.8,50.9,16.3,62-10-14.4,3.2-29.6,6.6-44.5,6s-3.7.8-3.5-1ZM-925.5-58.9c17.6-2.1,18.3-23.2,16-37-12.3,6.2-26.4,17.5-20.4,33s0,2.4,1.9,2l13.5-24c-1.8,9.4-6.3,17.8-11,26ZM-791.5-68.9c1.5-16.8-17.7-21.7-31-23,1.9,9.6,6.2,21.6,16,25.5,3.7,1.5,9.7,3,13,0-5.1-6.3-12.1-10.6-18-16-1.3-1.2-1.7-1.7.5-1.5l19.5,15ZM-726-84.9c-4.8-.6-10.5.4-15.5,0,4.4,13.2,20.1,36.4,36.8,29.3s1.5-.3,1.2-2.2c-10.3-3.9-19.1-11.5-27-19l29.5,17c2.8-13.6-13.2-23.6-25-25ZM-702,44.1c-5.2-.8-13.4,0-19,0s-2.7,2.2-3.5.5c15.5-16.8,24.3-28.7,19.7-52.7-6.4-33.6-32-43.1-56.7-61.3l-2-.5-7,8.5c24.4,20.9,66.6,40.6,40.8,78.8-16.7,24.7-42.2,42.4-57.3,70.7-34.2,64,14.3,131.4,70,162l-18-19c-38.4-37.8-56.5-114.6-10-153s75-1.3,112-5c19-1.9,39.9-27,41.5-45.5s-.1-2.4-1.2-.2c-9.7,18.9-17.8,32.3-40.1,37.9-34.8,8.8-43.3-17.4-69.2-21.2ZM-1008.5-36.9c2.2-23.6-26.1-29.3-44-31,1.8,13.8,13.3,35.1,28.5,37,2.4.3,13.3.9,12.5-2.5l-30-25.5,16.3,9.2,16.7,12.8ZM-896.5-45.4c.6-6.1,0-13.7,0-20s-1.2-2.6-1.5-2.5c-18.1,8.4-36.8,25.6-26.6,47.4l2,.6,19-36c-3.1,13.3-8.6,26.1-16,37.5,14.4.9,21.8-14.6,23-27ZM-809.5-57.9c-3-12.6-18.5-8.5-28-7-2.2,2.3,9,11.1,11.3,12.2,5.5,2.5,12.3,3.2,16.7-1.7l-19-7.5,19,4ZM-949.5-57.9c2.3-2.5-8.6-6.7-10.6-6.9-10.1-1.2-23.7,6.7-27.4,15.9,13.5,4.1,31.1,10.1,39-6-8.3,1.2-16,3.4-24.5,3s-3.7.8-3.5-1l27-5ZM-633.5-48.9c1.6-2.1-11.2-11.1-13.3-12.2-7.3-3.8-16-4.9-21.7,2.2l13.2,2.3,11.8,4.7c-8.7-1.4-17-4.9-26-4,5.7,14.9,24.1,12.4,36,7ZM-592.5-58.9c-1.6-1.5-8.4,7.8-9.2,9.3-4.8,8.4-6.5,20.1,1.8,26.7,2.3.4,1.2-1,1.6-2.4,2.1-7.6,3-15.7,2.9-23.6,1.7-.2.9,2.3,1,3.5.3,7.5.5,15.4-2,22.5,4.3.3,7.7-5.1,8.7-8.8,2.8-9.7-2.9-18.1-4.7-27.2ZM-664.8-42.5c-1.3-1.4-9.3-6.6-10.6-5.3l9,24-6.2-9.3-4.8-12.7c-10.4,13.6,5.9,25.1,15.5,33,4.3-8.3,3.7-22.6-2.8-29.6ZM-746.5-23.9c2.3-17.2-17.7-22-31-23,2.4,13.2,13.1,32,29,25.5l-16.5-16.5c7.2,3.2,12.6,9,18.5,14ZM-859.5-34.9c-6.4-12.8-20.6-6.2-31-3,5.7,7.8,15.5,13,25.3,10.8s6.4-2.9,5.7-4.3c-1.3-2.6-13.4-3-16.5-3.5-1.5-.2-3.1,0-3.5-2l20,2ZM-580.5,15.1c26.2-2.8,24-32.3,23-52-19.4,7.9-39.8,27.7-27.5,50l7.7-10.3,12.8-25.7c-2.8,13.6-9.2,26.1-16,38ZM-764.5-14.9c-6.2-16.2-23.6-12-37-9,5.5,12.6,25.1,24.5,36,12l-23-8,24,5ZM-1069.5,5.1h22.5c8.1,0,19.4-6.4,23.5-13.5s5.2-10,.7-8.3-5.5,3.7-8,5c-8.4,4.1-17.5,7.6-26.7,9.8l35-19c-3.3-4.4-11.4-4.5-16.6-4-13.9,1.4-27.2,17.2-30.4,30.1ZM-679.5,10.1c2.6-13.3,1.9-32.3-15-34l7.5,21-10.5-20c-7.3,14.5,5.9,27.3,18,33ZM-866.5-18.9c-13-4.5-22.6,5.8-27,17,10.9,2,27.5,0,28-14l-17,6.5,16-9.5ZM-597.5,21.1c4.5-11.6.2-21.1-8.5-29-1.6-1.5-17.6-13.1-18.5-12-3.5,17.9.6,41.5,22,44l-2.8-9.7-11.7-22.3c8.2,7.6,11.7,19,17.3,27.7.6,1-.1,1.8,2.2,1.3ZM-1001.5,14.1c-.2-10,1-20.4-2.5-30-13.9,12.1-6.5,28.6,2.5,41,1.4,1,8-14.4,8.4-16,2.7-9.2,2.5-19.9-7.4-23.9l1,20.5-2,8.5ZM-970.5,14.1V-8.4c0-.7-1.6-6.3-2.5-6.5-14.1,10.5-6.3,29.8,4,40,6.2-12.7,15.3-29.1,1-40-3.1-.3-.5,1.1-.5,1.5V10.6c0,.6-1.4,2.3-1,3.5h-1ZM-801.5,9.1c-6.6-11.8-15.6-28.3-32-21.5,6.3,4.4,14.5,6.9,19,13.5l-21-11c0,17,20.2,22.3,34,19ZM-627.5,5.1c-15-7.9-38.7-13.4-47,6,11.5.9,22.6-2,34-3-.5,1.4-4.5,2.1-6,2.5-8.5,2.3-17.2,3.4-26,4-1.7,1.2,0,2.2,1,3,9.7,9.1,23.8,3.2,33.3-2.7s12.1-7.9,10.7-9.8ZM-846.5,32.1l4-26c-15.8,5.8-14.1,26.1-6.5,38,7.3-7.2,17-19,14-30s-2.9-5.9-4.5-7l-2.3,12.2-4.7,12.8ZM-925.5,20.1c1.4-1.9-6.3-5.5-7.7-5.8-13.3-2.7-23.7,4.8-31.3,14.8,10.2,2.7,23.7,8.7,33.5,2s7-6.4,5.5-8c-7.3,1.8-15,3.5-22.5,4s-6.2.9-6.5-1c9.9-.9,19.6-2.8,29-6ZM-995.5,52.1c1.1-24.5-25.9-30.1-45-32,4.8,19.6,15.1,39.6,38.5,37,1.5-.2,2.5,0,3.4-1.5l-28.5-25.5c11.9,5.4,21.4,14.3,31.5,22ZM-540.5,43.1c1.1-1.5-10.1-13-12-14.5-10-8-22.4-10.7-33-2,10.3,5.5,21.5,9.3,33,11.5.2,1.8-2.3,1-3.4.9-10.6-1.1-20.4-5.5-30.6-7.9,7,20,29.7,15.7,46,12ZM-609.5,38.1c-6.8-19.6-33.3-17.6-48-8.5,10.3,9.7,24.5,23.2,39.8,17.8,1.2-.4,7.9-3.7,6.2-5.3-9.7-1.1-19.2-3.7-28.2-7.3-1.3-.5-4.5-1.2-4.7-2.7,11.6,2.5,22.9,6.9,35,6ZM-643.5,60.1c1.6-13.1-11.5-20.2-23-20,2.6,9.5,7.1,23.7,19.5,22,2-1.9-1.4-2.4-3-4s-7.5-6.9-6.5-8.1l13,10ZM-575.5,81.1c3.3-13.4,4-32.9-13-36-1.6,1.7,5.5,18,6.5,21s1.4,3.2-.5,3c-1.4-4.2-3.8-7.9-5.5-12s-3.2-11.9-4.5-11c-3.4,6.3-3.7,11.6-.8,18.2s11.5,14.1,14.2,15.8,2,1.2,3.5,1ZM-918.5,88.1c-1-14-4.3-33.9-22-34l13.8,20.7.7,3.3c-6.1-7.4-10.6-16.3-18.5-22-5.3,18.1,11.2,27.7,26,32ZM-964.5,89.1c-.1-10.4.8-21-2.5-31-9.3,7.1-9.4,19.7-4.7,29.7s7.2,11.8,9.2,10.3c3.7-10.8,12.3-22.4,5.4-33.9-.6-1.1-5.4-6.1-6.4-5.1l1,18.5-2,11.5ZM-1057,98.1h19c9.5,0,22-5.8,26.4-14.6s3.6-8,.6-7.4-9.3,5.6-12.8,7.2c-6.3,2.8-14,5.8-20.7,6.8l33-18-.7-2c-21-9.6-38.1,8.1-45.9,26l1.1,2ZM-591.5,89.1c-1.2-11.6-9-23.3-22-21l12,12.5c-1.1,1.7-2.2-.4-3-1-1.4-1-10.3-9.4-11-8.5,0,13,13.2,16.8,24,18ZM-994.5,77.6c.3,7.3,0,14.7,0,22s-1.1,5.6-2,5.5c0-10.1.5-20.2-2-30-9.1,6.3-9.7,16.9-6.2,26.7s7.8,15.1,10.2,13.3c5.6-12.9,14.8-28.1.5-39-3.1-.2-.5,1-.5,1.5ZM-635.5,76.1c-12.5-1.2-20.2,10.6-21,22,10.2-1.9,25-5.8,23.5-19-2.9,3.1-6.1,6-9.6,8.4s-3.5,3.5-4.9,2.1c1.7-1.1,14.2-11.6,12-13.5ZM-649.5,309.1c-69.6-12.4-144.9-38.5-185.4-100.1l-9.6-18.9c4.5,27.2,15.7,56.3,36.5,75s88.6,39.2,127,43c9.3.9,18.8,1,28.1,1.9,1.1.1,3.6.9,3.4-.9ZM-777.5,298.1c-34.1-10.2-62.4-38-70.5-73-2.6,6.2-3.3,13-5.7,19.3-8.8,23.3-31.5,37.2-53.5,46.5l-48.3,13.2c20.1-2,40.4-3.3,60.2-7.3,10.4-2.1,44.1-13.8,51.1-12.5,3.7.7,9,3.9,12.9,5.1,15.6,4.5,34.2,8.2,50.4,9.6,1.1,0,3.6.9,3.4-.9Z"/>
  <path class="st0" d="M266.2,137.5c1.7.7,2.8,4.5,3.3,6.2,3.2,10.5,5.3,32.1-1.3,41.3-6.4,9-17.7,10-25.9,16,12.7,14.5,24.9,29.9,31.7,48.2,1.9,5,6.9,29.2,9.9,30.1,5,1.6,23.8-7.9,29-10.7,26-14.2,54.7-39.6,67.2-66.8l7.1-17.4c-3.2,34.2-25.9,61.2-52.1,81.4-12.4,9.5-28.6,17.8-39.9,28.1-7.6,6.9-13.4,16.1-20.5,23.5s-32.3,31.1-32.6,33.5,7.1,7.1,9.6,9.4c8.5,7.9,19.3,22.3,27.5,28.5s3.2,2.9,5.3,2.3,8.4-13,10.7-16.4c24.3-36,63-58.6,99.4-80.4,2.1.5,6.3,12.8,5.2,14.9-33.3,24.5-73.2,50.1-88.3,90.8-39,105.2,97.6,192.8,184.3,212.2l48.4,11.1c-67-5.1-133.3-24.3-189.9-60.6-39.3-25.1-62.7-52.8-72.6-99.4-4.9-23.2-2-36.6-14-59-26.2-49-87.5-52.4-131.4-25.4s-15.1,11.2-16.1,10.4c12.1-17.7,33.6-27.5,54-32.5,9.5-2.3,21.7-2.9,30.4-5.6,1.6-.5,3.8-.8,4.4-2.6,2-6-3.3-17-6.4-22.3-18.9-31.7-57.5-36.8-91.4-35.1l12.8-3.7c18.7-2.1,37.6,1.2,55.8,5.7,6.1-.3,4.8-21.7,4.5-26.5-.8-12-4.4-23.6-9.7-34.3l-11.4-18.1c25.3,19.9,32.3,50.2,30,81.3,18.9,11.7,26.7,29.9,28,51.7,32.6-14.9,51.3-38,48-75.5-2.7-30.1-30.8-53.4-42.2-79.8-11.5-26.6-5.4-50.1,11.2-72.7-7.1,15.8-12.5,35.7-9.5,53.1,3.1,17.9,23.5,22.9,34,7.9,8.3-11.9,5.3-29.5,3.6-42.9ZM191.2,302.5c-.8-1.9-2.9-2.9-3.6-4.9s.5-6.1-1.4-7.1c0,1.9.4,4-.9,5.6s-4.7.3-5.1,2.4l11,4ZM320.2,358.5c-1.5-1.4-7.3,6.8-8.4,8.1-4.6,5.7-19.9,31.1-23,32.9-6.6,3.8-9.5-6-11.6-4,11.7,12,7.9,26.7,9,41.5,1,14.9,5.5,29.1,9.1,43.5,1.8.2.9-2.2.7-3.2-1-6.3-3.5-13-4.5-19.5-3.5-22.8-4.1-47.2,7.6-67.9l21.2-31.3Z"/>
  <path class="st0" d="M428.9,356.1c25.9,3.8,34.4,29.9,69.2,21.2,22.3-5.6,30.4-19,40.1-37.9,1.1-2.2,1.4-2.2,1.2.2-1.6,18.5-22.5,43.6-41.5,45.5-37,3.7-77-23.8-112,5-46.6,38.4-28.5,115.2,10,153l18,19c-55.7-30.6-104.2-98-70-162s40.6-46,57.3-70.7c25.8-38.2-16.4-57.9-40.8-78.8l7-8.5,2,.5c24.7,18.2,50.3,27.7,56.7,61.3,4.6,24-4.2,35.9-19.7,52.7.8,1.7,2.9-.5,3.5-.5,5.6,0,13.8-.8,19,0ZM434.4,363.1c-27.1-3.7-58.9,8-77,28.5-2.2,2.5-5.5,6.2-6,9.5,15.4-20,36.7-32.6,61.7-36.7,7-1.2,11-.8,17.8-.3,1.1,0,3.7.7,3.5-1Z"/>
  <path class="st0" d="M456.9,201.1c1.1.1,1.9,0,3-.5,3.7-1.9,8.9-6.3,13.4-8.6,15.7-8.3,41.8-15.7,50-32l5.6-14.9c2.8,38.1-43,45.4-63,70.5-8,10-9.7,21.2-14.6,32.4s-16.4,27.9-28,39l-7.3-13.3c28.1-29.7,46.5-69.8,16.4-105.7s-38-28.3-44.5-51c24.7,25.9,61.8,46.1,69,84Z"/>
  <path class="st0" d="M359.3,612.5c.2,1.8-2.2,1-3.4.9-16.2-1.4-34.8-5.1-50.4-9.6-3.9-1.1-9.3-4.3-12.9-5.1-7-1.4-40.6,10.4-51.1,12.5-19.8,4-40.1,5.3-60.2,7.3l48.3-13.2c22-9.3,44.7-23.2,53.5-46.5,2.4-6.3,3.1-13.1,5.7-19.3,8.1,35,36.4,62.9,70.5,73Z"/>
  <path class="st0" d="M476.1,618.3c.2,1.8-2.3,1-3.4.9-9.4-.9-18.8-1-28.1-1.9-38.4-3.8-97.9-16.7-127-43-20.8-18.8-32-47.9-36.5-75l9.6,18.9c40.5,61.6,115.8,87.7,185.4,100.1Z"/>
  <path class="st0" d="M306.9,163.1c3.3,1.3,1.6,5.7,2.1,8.4,2.5,13,8.5,25.1,16.4,35.6,15.2-25.2,24.3-46.4,9.7-74.7-5-9.7-19.6-23.8-20.1-34s9.3-26.9,16.9-34.4c-5.8,16.6-13.2,26.4-4.2,43.7,10.4,19.9,26,29.6,25.2,55.9-.5,18.9-8.9,26.3-15.6,41.4-6.4,14.4,3,18.8,12.4,27.7.8,3-4.9,5-6.5,7.3-12.4-10.1-25.3-25.7-31.1-40.7-1.3-3.2-5.2-15.1-5.2-17.8v-18.5Z"/>
  <path class="st1" d="M226.5,201.1c-16.2-.3-30.6-8.3-46-12l22.7,10.8,20.3,5.2c2.1,2-7.6,6.1-9,6.5-19.6,5.8-37.6-14.2-49-27.5,21.9-8.8,52.7-10.1,61,17Z"/>
  <path class="st1" d="M110.5,232.1c-.2,1.7,2.3.9,3.5,1,14.9.6,30.1-2.8,44.5-6-11.1,26.3-41,15.8-62,10-.7-.7,1.7-3.9,2.3-4.6,11.7-14.5,41.9-29.8,57.2-12.4s2.2,1.3.5,2.5c-14.8,5.2-30.4,8.2-46,9.5Z"/>
  <path class="st1" d="M544.5,329.1c6.8-11.9,13.2-24.4,16-38l-12.8,25.7-7.7,10.3c-12.3-22.3,8-42,27.5-50,1.1,19.7,3.2,49.2-23,52Z"/>
  <path class="st1" d="M268.5,59.1v23.5c0,12.8-9.2,23-21,26s-1.4,1.1-1-1c.6-3.1,6.7-12.3,8.5-16.5s4.9-12.1,5.5-18l-18,34c-2.6.5-1.5-.4-2.1-1.4-10.3-20.2,9.5-41.5,28.1-46.6Z"/>
  <path class="st1" d="M428.5,75.1c-4.2,12.4-6,28-17,36.5-4.8,3.7-13.4,7.5-19,4,8.5-7.4,16.4-15.9,22.6-25.4.6-.9,2.5-2.2.9-3.1-8.7,9.1-16.5,19.5-27.5,26-5-23.7,19.4-37.3,40-38Z"/>
  <path class="st1" d="M296.5,107.6c-1.1,10.3-8.9,24.9-20.5,25.5s-1.9.1-1.5-1.5c.8-2.9,5.5-9.1,7.1-12.9,2.8-6.4,6-13.8,6.8-20.7l-10.8,21.7c-1.3,1.4-6.9,13.8-9.2,10.7-9.5-20.3,6.1-36.1,22.7-45.2s5.3-3.4,5.3-.7c0,7.1.7,16.2,0,23Z"/>
  <path class="st1" d="M154.5,204.1c-1-13.8-7.3-26.3-12-39-1.9-.2-.8,2-.5,3,2.9,12.3,9.7,24.6,8.5,37.9-23.1-9.4-20.7-34.5-13-54,1.7-.4,2,.7,3,1.5,5,4,17.7,20.3,19.7,26.3s1.9,19.1-5.7,24.2Z"/>
  <path class="st1" d="M261.5,128.1v22.5c0,.6-1.2,6.4-1.4,7.6-2.4,10-10.5,19.9-21.5,19.5,7.4-11.4,13-24.2,16-37.5l-12.8,25.7-8.2,10.3c-9.9-21.7,8-41.9,28-48Z"/>
  <path class="st1" d="M228.5,268.6c-1.2,12.4-8.6,27.9-23,27,7.4-11.4,12.8-24.2,16-37.5l-19,36-2-.6c-10.2-21.7,8.5-39,26.6-47.4.3-.1,1.5,2.3,1.5,2.5,0,6.3.6,13.9,0,20Z"/>
  <path class="st1" d="M295.5,177.1v26.5c0,6.4-7.4,17.7-13.1,20.9s-9.9,4.5-8.9,1.1,6.4-10.8,8.2-14.8c2.8-6.5,5.4-13.7,6.8-20.7l-12.8,25.7c-.9,1.2-6.6,11.8-8.2,8.8-9.1-22.2,8.5-40.1,28-47.4Z"/>
  <path class="st1" d="M129.5,366.1c-10-7.7-19.6-16.6-31.5-22l28.5,25.5c-.9,1.5-1.9,1.4-3.4,1.5-23.4,2.6-33.8-17.4-38.5-37,19.1,1.9,46.1,7.5,45,32Z"/>
  <path class="st1" d="M368.5,65.1c-3.5,16.6-11,43.2-32.5,42-1.5,0-2.9.7-2.5-1.5,7.9-8,16.9-16.6,22.8-26.2.5-.9,2.1-2.6.7-3.3-7.4,8.2-14.7,17.7-23.6,24.4-.9.6-4.2,3.4-4.9,2.6-3.7-23.7,19.5-36.6,40-38Z"/>
  <path class="st1" d="M116.5,277.1l-16.7-12.8-16.3-9.2,30,25.5c.8,3.4-10.1,2.8-12.5,2.5-15.2-1.9-26.7-23.2-28.5-37,17.9,1.7,46.2,7.4,44,31Z"/>
  <path class="st1" d="M68,412.1l-1.1-2c7.8-17.9,25-35.6,45.9-26l.7,2-33,18c6.7-1,14.4-4,20.7-6.8s10.1-6.6,12.8-7.2,0,6.2-.6,7.4c-4.4,8.8-16.9,14.6-26.4,14.6h-19Z"/>
  <path class="st1" d="M55.5,319.1c3.2-12.8,16.5-28.7,30.4-30.1s13.3-.4,16.6,4l-35,19c9.1-2.2,18.2-5.7,26.7-9.8,2.6-1.2,5.6-4,8-5,4.6-1.7.2,6.8-.7,8.3-4.1,7.1-15.4,13.5-23.5,13.5h-22.5Z"/>
  <path class="st1" d="M208.5,91.1c4.7,11.1,13.3,20,21,29-22.6,2.2-27.5-22.3-31-39.5,17.1.3,38.3,13.6,36.1,33s0,2.5-1.5,3.4c-10-6.8-16.5-17.2-24.5-26Z"/>
  <path class="st1" d="M214.5,161.1l-36-9,17.5,8,16.5,4c2,2-7.7,5.3-9,5.5-16.7,3.2-27.6-10.7-38-21,16.3-9.1,43.1-9,49,12.5Z"/>
  <path class="st1" d="M527.4,335.1c-2.3.5-1.6-.3-2.2-1.3-5.6-8.7-9.1-20.2-17.3-27.7l11.7,22.3,2.8,9.7c-21.4-2.5-25.5-26.1-22-44,.9-1.1,16.9,10.6,18.5,12,8.7,7.9,13,17.4,8.5,29Z"/>
  <path class="st1" d="M525.5,142.1c-1,.8-5.8-10.6-6.6-11.9-3.6-6.2-8.4-12.5-12.9-18.1l11.4,21.6,4.1,10.3c-21.6-1.6-24.9-22.8-23.1-40.5.2-1.5.1-2.5,1.6-3.4,14.5,10.1,34.3,20.8,25.5,42Z"/>
  <path class="st1" d="M515.5,352.1c-12.1.9-23.4-3.5-35-6,.2,1.5,3.4,2.2,4.7,2.7,9,3.5,18.6,6.1,28.2,7.3,1.7,1.6-5,4.9-6.2,5.3-15.3,5.4-29.5-8.2-39.8-17.8,14.6-9.1,41.2-11.1,48,8.5Z"/>
  <path class="st1" d="M451.5,120.2c1.2,1.7-7.9,7.6-9.7,8.8-8.5,5.5-19.1,11.2-29.3,6.7s-8.4-5.2-7-6.5l16.2-1.3,16.8-4.7c-11.4.5-22.5,4-34,3-1.7-1.7,5.6-8.4,7.1-9.4,13.3-9,27.2-2.4,39.9,3.4Z"/>
  <path class="st1" d="M554.1,171.5c6.9,8,8.1,21.5,8.3,31.7-15.8-7-33.6-12.7-32-33.5s-.8-2.9,1.5-2.5c5,6.3,9.4,13.2,15,19s1.8,2.3,3.5,2l-16-25c6.9-1,15.2,3.2,19.7,8.3Z"/>
  <path class="st1" d="M581.5,142.2c.6,2.3-.4,1.6-1.3,2.3-12.3,9.6-33.1,23.4-45.7,6.7,9.6.2,19.7-1.9,29-4.5s5.4-1,6-2.5l-29.5,4-6.5-1c10.6-19.1,32-13.6,48-5Z"/>
  <path class="st1" d="M497.5,319.2c1.4,1.8-9,8.7-10.7,9.8-9.5,6-23.6,11.8-33.3,2.7-.9-.9-2.7-1.9-1-3,8.8-.5,17.5-1.7,26-4s5.5-1.1,6-2.5c-11.4.9-22.5,3.9-34,3,8.3-19.4,32-13.9,47-6Z"/>
  <path class="st1" d="M562.5,250.1c-15.6-7.2-36.6-15.5-31-37,7.1,8.5,13,17.8,21.5,25,1.7-1.1-.4-2.2-1-3-5.7-8.1-13.7-15.1-16.5-25,21.2-.7,28.6,22.4,27,40Z"/>
  <path class="st1" d="M584.5,357.1c-16.3,3.7-39,8-46-12,10.2,2.4,20.1,6.7,30.6,7.9,1.1.1,3.6.9,3.4-.9-11.5-2.2-22.7-6-33-11.5,10.6-8.7,23-6,33,2,1.8,1.5,13.1,13,12,14.5Z"/>
  <path class="st1" d="M399,229.1c11.8,1.4,27.8,11.4,25,25l-29.5-17c7.9,7.5,16.6,15.1,27,19,.3,2,.2,1.6-1.2,2.2-16.7,7.1-32.3-16-36.8-29.3,5,.4,10.7-.6,15.5,0Z"/>
  <path class="st1" d="M495.5,239.1c1.7.3,1.1-2.4,1-3.5-.9-10.8-3.4-21.6-1-32.5,11.2,4.6,13.5,17.5,10.9,28.4-.9,4-5.8,14.6-8.4,17.6s-1.1,1.5-2.5.6-7.9-13.5-8.7-15.3c-4.8-11.1-5.8-22.8,4.2-31.2l4.5,36Z"/>
  <path class="st1" d="M462,154.1c10.8,1.5,24.5,11.8,23.5,24-11.3-2.1-19.5-11.7-30-16,7.9,7.9,17.4,13.9,27,19.5-18.4,9.8-32.2-13.1-38-27.5,5.5.5,12.2-.7,17.5,0Z"/>
  <path class="st1" d="M131.5,200.1c-10.9-2.1-21.8-4.7-33-4l33,8c-9.2,11.2-23.5,8-34.3.8-1.8-1.2-13.1-9.9-11.7-11.8,15.5-4.8,38-12.6,46,7Z"/>
  <path class="st1" d="M216.5,131.1l-32-9,14,7.5,16,4.5c-16.2,14.4-33.9-4.9-44-17,16.9-6.6,40-6.6,46,14Z"/>
  <path class="st1" d="M377.5,174.1c.7.6-5.3,7.8-6,8.5-3.6,3.7-9.4,7-13,11,2.2.6,5.5-2.4,7.3-3.7,5.2-3.6,9-8.3,14.2-11.8,2.5,17.7-18.6,23.8-32.5,25,2.7-15.4,11.9-32,30-29Z"/>
  <path class="st1" d="M318.1,35.5c4.6,4.8,7.3,11.7,5.5,18.3s.6,2.8-1.6,2.3l-18.5-22c1.7,4.6,5,9.6,7.8,13.7s7.9,8.9,8.2,9.8c1.3,3.2-7.7,0-8.7-.3-11.2-4.9-13.5-22.4-14.3-33.2,7.2,2.7,16.2,5.6,21.6,11.4Z"/>
  <path class="st1" d="M383.5,126.1c2.8,2.5-18.1,18.9-20,20.5.9,1.6,2.2-.4,3.1-.9,7.5-4.7,13.2-10.3,19.9-15.6,1.6,18.2-18.7,23.5-33,25,2.8-15.5,12-31.4,30-29Z"/>
  <path class="st1" d="M175.5,256.1l-27,5c-.2,1.8,2.3.9,3.5,1,8.5.4,16.2-1.8,24.5-3-7.9,16.1-25.5,10.1-39,6,3.7-9.3,17.3-17.1,27.4-15.9s12.9,4.4,10.6,6.9Z"/>
  <path class="st1" d="M206.5,402.1c-14.7-4.3-31.3-13.9-26-32,7.9,5.7,12.4,14.6,18.5,22l-.7-3.3-13.8-20.7c17.7,0,21,20,22,34Z"/>
  <path class="st1" d="M123.5,328.1l2-8.5-1-20.5c10,4,10.1,14.8,7.4,23.9s-7,17-8.4,16c-9-12.4-16.4-28.9-2.5-41,3.5,9.6,2.3,19.9,2.5,30Z"/>
  <path class="st1" d="M130.5,391.6c0-.5-2.6-1.7.5-1.5,14.3,10.9,5.1,26.1-.5,39-2.4,1.8-9.4-11.2-10.2-13.3-3.5-9.7-3-20.4,6.2-26.7,2.6,9.8,2,19.9,2,30,.9,0,2-5.2,2-5.5,0-7.3.3-14.7,0-22Z"/>
  <path class="st1" d="M154.5,328.1h1c-.4-1.2,1-2.9,1-3.5v-24c0-.4-2.6-1.7.5-1.5,14.3,10.9,5.3,27.3-1,40-10.4-10.2-18.2-29.5-4-40,.9.2,2.5,5.8,2.5,6.5v22.5Z"/>
  <path class="st1" d="M160.5,403.1l2-11.5-1-18.5c1-1.1,5.8,4,6.4,5.1,6.8,11.5-1.7,23.1-5.4,33.9-2,1.5-8.3-8.6-9.2-10.3-4.7-10-4.6-22.6,4.7-29.7,3.3,10,2.4,20.6,2.5,31Z"/>
  <path class="st1" d="M199.5,255.1c4.7-8.2,9.2-16.6,11-26l-13.5,24c-2,.4-1.4-.7-1.9-2-6-15.5,8.2-26.8,20.4-33,2.3,13.8,1.7,34.9-16,37Z"/>
  <path class="st1" d="M199.5,334.1c-9.4,3.2-19.1,5.1-29,6,.3,1.8,5.1,1.1,6.5,1,7.5-.5,15.2-2.1,22.5-4,1.5,1.6-4.2,7.1-5.5,8-9.8,6.7-23.3.7-33.5-2,7.6-9.9,18-17.5,31.3-14.8,1.5.3,9.2,3.8,7.7,5.8Z"/>
  <path class="st1" d="M549.5,395.1c-1.5.3-2.3-.2-3.5-1-2.7-1.7-12.9-12.9-14.2-15.8-3-6.6-2.6-11.9.8-18.2,1.3-.9,4,9.7,4.5,11,1.7,4.1,4.1,7.8,5.5,12,1.9.2.8-2,.5-3-1-3-8.2-19.3-6.5-21,17,3.1,16.3,22.6,13,36Z"/>
  <path class="st1" d="M333.5,245.1l-19.5-15c-2.2-.2-1.8.3-.5,1.5,5.9,5.4,12.9,9.7,18,16-3.2,3-9.3,1.5-13,0-9.8-3.9-14.1-15.9-16-25.5,13.3,1.3,32.5,6.1,31,23Z"/>
  <path class="st1" d="M378.5,290.1c-5.9-5-11.3-10.8-18.5-14l16.5,16.5c-15.9,6.5-26.6-12.3-29-25.5,13.3,1,33.2,5.8,31,23Z"/>
  <path class="st1" d="M360.5,299.1l-24-5,23,8c-10.9,12.5-30.5.6-36-12,13.4-3,30.8-7.3,37,9Z"/>
  <path class="st1" d="M323.5,323.1c-13.8,3.4-33.9-2-34-19l21,11c-4.5-6.6-12.7-9.1-19-13.5,16.3-6.8,25.4,9.6,32,21.5Z"/>
  <path class="st1" d="M278.5,346.1l4.7-12.8,2.3-12.2c1.6,1.1,4.1,5.3,4.5,7,3,11.1-6.7,22.8-14,30-7.6-11.9-9.4-32.1,6.5-38l-4,26Z"/>
  <path class="st1" d="M488.5,115.1v17.5c0,4.8-5.5,12.8-10,15-9.9,4.8-1.9-4.4-.5-7.5s3.8-9.3,4.5-14l-5.8,11.7-6.7,9.3c-8.3-13.5,5.7-29,18.5-32Z"/>
  <path class="st1" d="M324.5,126.1c2.3,12.3,1.3,31.3-14,34,1.7-6.3,6-11.4,7.5-17.9s1.3-3.3-.5-3c-1.7,4.5-4,9.9-6.6,13.9s-3.8,6.5-5.4,5.1c-5-15.3,5.7-26.7,19-32Z"/>
  <path class="st1" d="M350.5,26.1v18.5c0,3.7-5.3,11.4-8.5,13.5s-7.8,3.8-6.5.5,3.9-5.9,5.2-8.8,3.4-7.7,3.8-11.7l-12.5,21c-8.2-14.9,5.4-28.1,18.5-33Z"/>
  <path class="st1" d="M477.5,86.1v15.5c0,2.9-3.4,11-5.6,13.4s-10.7,7.8-9.4,3.6c1.9-6.2,8.9-14,9-21.5l-9.2,17.3-3.3,3.6c-8.8-13.1,5.8-28.9,18.5-32Z"/>
  <path class="st1" d="M420.5,40.1v18.5c0,2.2-4.5,10.6-6.3,12.2s-10.1,5.6-8.7,1.8,4.7-7.3,6.2-10.8,2.6-6.4,2.8-9.7l-12.5,21c-8-14.7,5.4-28.2,18.5-33Z"/>
  <path class="st1" d="M379.5,27.1v18.5c0,3.7-5.3,11.4-8.5,13.5s-7.8,3.8-6.5.5,3.9-5.9,5.2-8.8c1.9-4.4,3.7-9,4.8-13.7l-13.5,23c-8-14.6,5.3-28.3,18.5-33Z"/>
  <path class="st1" d="M445.5,324.1c-12.1-5.7-25.3-18.5-18-33l10.5,20-7.5-21c16.9,1.7,17.6,20.6,15,34Z"/>
  <path class="st1" d="M532.5,255.1c1.9,9.1,7.5,17.6,4.7,27.2s-4.4,9-8.7,8.8c2.5-7.1,2.3-15,2-22.5,0-1.2.8-3.7-1-3.5.1,7.9-.8,16-2.9,23.6s.7,2.8-1.6,2.4c-8.2-6.7-6.6-18.4-1.8-26.7.8-1.4,7.6-10.7,9.2-9.3Z"/>
  <path class="st1" d="M393.5,62.1c2.2,11.7,1.1,31.7-14,33,2.7-6.6,6.9-12.9,8.6-19.9s1.3-3.3-.5-3c-2.5,8-6.4,15.4-11.5,22-8.7-13.4,4.5-28.3,17.5-32Z"/>
  <path class="st1" d="M497.5,174.1l1-27-4,26c-6.3-1.7-7.4-8.8-7-14.5.5-9.2,5.9-14.9,11.5-21.4,6.4,11.1,12.5,29.3-1.5,37Z"/>
  <path class="st1" d="M460.1,271.5c6.5,7,7.1,21.3,2.8,29.6-9.6-7.9-25.9-19.4-15.5-33l4.8,12.7,6.2,9.3-9-24c1.4-1.3,9.4,4,10.6,5.3Z"/>
  <path class="st1" d="M552.5,100.1v18.5c0,3.6-5.5,11.4-8.7,13.3-11.4,7.2-3.1-3.6-1.2-8.2,2-4.6,4.1-9.7,4.8-14.7l-12,22.5h-2.1c-6.6-14,6.3-27.7,19-31.5Z"/>
  <path class="st1" d="M450.5,76.1v18.5c0,5.2-8.7,17.2-15,15,4.4-7.6,8.5-15.7,10-24.5l-12.5,23-1.5,1c-6.4-15.5,5.1-28,19-33Z"/>
  <path class="st1" d="M518.5,212.1c1.7.2.9-2.3,1-3.5.3-8.4,0-16.3-2-24.5,14.9,7,8.4,25.9,2.5,37-10.7-9.3-17.5-25.4-6-37,3.9,8.6,3.8,18.6,4.5,28Z"/>
  <path class="st1" d="M491.5,265.1c-11.9,5.5-30.3,7.9-36-7,9-.9,17.3,2.6,26,4l-11.8-4.7-13.2-2.3c5.7-7.1,14.4-6,21.7-2.2,2.1,1.1,14.9,10,13.3,12.2Z"/>
  <path class="st1" d="M419.5,203.1c-12-.7-28.5-4.9-28-20l18.5,13-16.5-15.5c6.9-5,17.5,2.6,21.2,8.8s5.4,13.2,4.8,13.7Z"/>
  <path class="st1" d="M387.5,177.1c2.8-7.4,5.8-14.9,6-23l-8,22c-2.2,1.7-4.7-6.5-4.8-7.8-1.1-9.9,7.9-19,15.3-24.2,4.6,10.7,6,29.7-8.5,33Z"/>
  <path class="st1" d="M415.5,228.1c-12.2-1.6-27.4-5.3-28-20l18.5,13,.5-2c-2.7-1-5.9-3.6-8-5.5s-9.2-8.5-8-9.5c14.5-2.2,23.9,10.8,25,24Z"/>
  <path class="st1" d="M258.5,295.2l-16,9.5,17-6.5c-.4,14.1-17.1,16-28,14,4.3-11.1,14-21.5,27-17Z"/>
  <path class="st1" d="M265.5,279.1l-20-2c.4,1.9,2,1.8,3.5,2,3.1.5,15.2.9,16.5,3.5s-4.8,4.1-5.7,4.3c-9.8,2.2-19.6-3-25.3-10.8,10.4-3.2,24.6-9.8,31,3Z"/>
  <path class="st1" d="M302.5,162.1l-16-9c2.4,3.6,6.2,6.3,9.7,8.9s6.9,2.5,1.8,3.1c-13.5,1.8-17.7-11.1-22.5-21,12.4,0,25.7,3.6,27,18Z"/>
  <path class="st1" d="M382.5,118.1l-17-10c3.6,5.7,9.8,8.5,15,12.5-12,5.4-20.8-9.8-24-19.5,11.4-1.4,26.3,3.5,26,17Z"/>
  <path class="st1" d="M311.5,78.1l-17.5-11c-.3,1.5,2.4,3.6,3.5,4.5,3.4,3,7.5,5.2,11,8,1.1,2.3-4.5,1.7-5.5,1.5-9.3-1.3-15.1-13-17.5-21,11.3-.6,26.5,4.5,26,18Z"/>
  <path class="st1" d="M315.5,256.1l-19-4,19,7.5c-4.4,4.9-11.2,4.2-16.7,1.7s-13.6-9.8-11.3-12.2c9.5-1.5,25-5.6,28,7Z"/>
  <path class="st1" d="M481.5,374.1l-13-10c-1.1,1.1,5.4,7.1,6.5,8.1,1.6,1.6,5,2,3,4-12.4,1.7-16.9-12.4-19.5-22,11.5-.2,24.6,6.8,23,20Z"/>
  <path class="st1" d="M489.5,390.1c2.2,1.9-10.3,12.4-12,13.5,1.4,1.3,3.7-1.3,4.9-2.1,3.5-2.4,6.7-5.2,9.6-8.4,1.5,13.2-13.3,17.1-23.5,19,.7-11.4,8.5-23.2,21-22Z"/>
  <path class="st1" d="M533.5,403.1c-10.8-1.2-24-4.9-24-18,.7-.9,9.6,7.5,11,8.5s1.9,2.7,3,1l-12-12.5c13-2.3,20.8,9.3,22,21Z"/>
  <path class="st1" d="M464.5,131.1c-3.5,7.7-11.7,17.9-21,13.5l13-8.5-15,6c2.6-11.8,12.9-11.5,23-11Z"/>
  <path class="st1" d="M318.5,357.1l-21.2,31.3c-11.7,20.7-11.1,45.1-7.6,67.9s3.5,13.3,4.5,19.5,1.1,3.5-.7,3.2c-3.6-14.3-8-28.6-9.1-43.5s2.8-29.6-9-41.5c2-1.9,5,7.9,11.6,4s18.5-27.3,23-32.9,6.9-9.5,8.4-8.1Z"/>
  <path class="st1" d="M189.5,301.1l-11-4c.4-2.1,3.4-.3,5.1-2.4s.9-3.7.9-5.6c1.9.9.7,4.7,1.4,7.1s2.7,3.1,3.6,4.9Z"/>
  <path class="st1" d="M428.5,365.1c.3,1.7-2.4,1.1-3.5,1-6.8-.6-10.7-.9-17.8.3-25,4.2-46.4,16.8-61.7,36.7.5-3.2,3.8-7,6-9.5,18.1-20.5,49.8-32.2,77-28.5Z"/>
</svg>