<?xml version="1.0" encoding="UTF-8"?>
<svg xmlns="http://www.w3.org/2000/svg" version="1.1" viewBox="0 0 32 32">
  <!-- Generator: Adobe Illustrator 29.1.0, SVG Export Plug-In . SVG Version: 2.1.0 Build 142)  -->
  <defs>
    <style>
      .st0 {
        fill: #5D6D68;
      }

      .st1 {
        display: none;
      }
    </style>
  </defs>
  <g id="Phone" class="st1">
    <path class="st0" d="M27.5,22.27c1.79,1.48,4.36,3.45,2.04,5.68-1.96,1.89-4.13,3.38-6.95,3.58h-1.58c-5.45-.6-9.9-4.55-13.32-8.55C3.43,17.98-1.14,10.17,3.45,3.92c.61-.83,2.97-3.1,3.91-3.38,1.49-.44,2.58.98,3.35,2.05,1.05,1.48,2.82,4.12,2.23,5.97-.75,2.34-4.22,2.51-3.82,5.39.36,2.6,4.97,7.77,7.27,8.99,2.83,1.51,3.33-.37,5.25-1.84,2.24-1.73,4.05-.32,5.85,1.17Z"/>
  </g>
  <g id="Email">
    <g>
      <path class="st0" d="M0,7.19c.11-.23.12-.51.24-.73.03-.06-.02-.1.11-.08l9.59,9.65L.34,25.62c-.12.02-.08-.02-.11-.08-.06-.12-.22-.61-.24-.73V7.19Z"/>
      <path class="st0" d="M32,24.81c-.11.23-.12.51-.24.73-.03.06.02.1-.11.08l-9.59-9.65,9.59-9.6c.12-.02.08.02.11.08.06.12.22.61.24.73v17.62Z"/>
      <path class="st0" d="M2.49,4.77l26.86-.02c.16.02,1.01.14.97.34l-13.62,13.63c-.36.32-1.02.32-1.38,0L1.69,5.03l.8-.26Z"/>
      <path class="st0" d="M11.23,17.38c1.21.85,2.63,3.17,4.14,3.4,2.63.41,3.62-2.07,5.4-3.4l9.54,9.59c-.03.13-.86.29-1.03.29H2.72c-.21-.01-.81-.11-.96-.22-.06-.05-.1-.09-.03-.16l9.51-9.49Z"/>
    </g>
  </g>
</svg>