<?xml version="1.0" encoding="iso-8859-1"?>
<!-- Uploaded to: SVG Repo, www.svgrepo.com, Generator: SVG Repo Mixer Tools -->
<!DOCTYPE svg PUBLIC "-//W3C//DTD SVG 1.1//EN" "http://www.w3.org/Graphics/SVG/1.1/DTD/svg11.dtd">
<svg fill="#e9f5ea" version="1.1" id="Capa_1" xmlns="http://www.w3.org/2000/svg" xmlns:xlink="http://www.w3.org/1999/xlink" 
	 width="800px" height="800px" viewBox="0 0 454.596 454.596"
	 xml:space="preserve">
<g>
	<path d="M164.202,338.984c-24.181-18.854-53.33-26.857-84.312-23.138c-23.146,2.779-39.317,11.199-39.994,11.556
		c-5.797,3.058-8.248,10.072-5.617,16.076c1.075,2.453,26.969,60.396,82.057,87.384c31.054,15.214,62.09,23.733,86.096,23.733
		c1.432,0,2.841-0.031,4.223-0.092c1.713,0.008,8.255,0.036,16.848,0.043c0,0,0.021,0,0.031,0c0.596,0,1.197,0.001,1.813,0.001
		c0.268,0,0.543,0,0.815,0c0.353,0,0.7,0,1.059,0c0.026,0,0.052,0,0.077,0s0.051,0,0.077,0c0.358,0,0.706,0,1.06,0
		c0.271,0,0.547,0,0.814,0c0.614,0,1.217-0.001,1.813-0.001c0.01,0,0.021,0,0.021,0c8.6-0.007,15.143-0.035,16.856-0.043
		c1.383,0.061,2.787,0.092,4.223,0.092c24.005-0.001,55.045-8.521,86.096-23.733c55.089-26.988,80.981-84.931,82.057-87.386
		c2.632-6.002,0.181-13.017-5.617-16.074c-0.677-0.356-16.848-8.776-39.993-11.556c-30.978-3.722-60.13,4.281-84.312,23.138
		c-12.251,9.552-21.749,19.213-29.104,28.525V244.417c2.654-3.343,5.723-7.36,7.691-9.959l91.64-39.253
		c3.359-1.439,5.922-4.278,7.011-7.768l42.005-134.635c1.132-3.63,0.549-7.578-1.581-10.728c-2.131-3.149-5.579-5.158-9.37-5.457
		c-2.833-0.223-65.144-4.725-116.125,24.247C264.905,30.455,242.491,9.377,236.716,4.2c-2.383-2.683-5.668-4.097-9.008-4.188
		c-0.139-0.005-0.275-0.012-0.414-0.013c-0.127,0.001-0.254,0.007-0.381,0.012c-3.346,0.084-6.641,1.499-9.029,4.188
		c-5.775,5.176-28.189,26.254-45.845,56.664C121.057,31.893,58.74,36.396,55.911,36.618c-3.791,0.299-7.239,2.307-9.37,5.457
		c-2.131,3.15-2.713,7.098-1.58,10.728l42.004,134.635c1.089,3.49,3.65,6.328,7.011,7.768l91.64,39.253
		c1.97,2.6,5.037,6.616,7.692,9.959v123.093C185.952,358.197,176.454,348.536,164.202,338.984z M193.309,429.122
		c-18.87-1.876-42.542-9.231-65.973-20.71c-33.077-16.205-54.384-46.812-64.078-63.471c5.424-1.722,12.451-3.478,20.478-4.373
		c24.289-2.709,46.193,3.393,65.094,18.131c38.535,30.045,43.85,59.325,44.479,69.331L193.309,429.122L193.309,429.122z
		 M305.765,358.699c18.902-14.738,40.809-20.838,65.096-18.131c8.028,0.896,15.056,2.651,20.478,4.373
		c-9.698,16.664-31.004,47.267-64.078,63.471c-23.43,11.479-47.101,18.834-65.972,20.71v-0.672
		C261.889,419.028,266.986,388.935,305.765,358.699z M109.114,174.492L73.823,61.374c22.448,0.644,64.117,5.102,95.649,27.44
		c2.989,2.118,6.758,2.818,10.306,1.915c3.55-0.902,6.525-3.316,8.14-6.604c12.043-24.521,29.306-44.068,39.391-54.304
		c10.064,10.198,27.271,29.679,39.366,54.303c1.614,3.288,4.59,5.702,8.14,6.604c3.552,0.903,7.318,0.202,10.307-1.915
		c31.535-22.34,73.208-26.798,95.648-27.441l-35.291,113.119l-89.398,38.294c-2.015,0.863-3.767,2.24-5.081,3.993
		c-2.246,2.997-8.738,11.557-11.755,15.123c-1.909,2.258-2.957,5.117-2.957,8.074v188.274c-0.021,0.456-0.033,0.886-0.042,1.29
		c-2.687,0.005-5.712,0.009-8.948,0.009s-6.262-0.003-8.947-0.009c-0.009-0.404-0.022-0.834-0.042-1.29V239.975
		c0-2.957-1.048-5.816-2.957-8.074c-3.017-3.564-9.509-12.125-11.756-15.123c-1.315-1.753-3.067-3.13-5.081-3.993L109.114,174.492z"
		/>
</g>
</svg>