<?xml version="1.0" encoding="UTF-8"?>
<svg id="Camada_1" xmlns="http://www.w3.org/2000/svg" version="1.1" viewBox="0 0 595.28 841.89">
  <!-- Generator: Adobe Illustrator 29.5.1, SVG Export Plug-In . SVG Version: 2.1.0 Build 141)  -->
  <defs>
    <style>
      .st0 {
        fill: #3d3617;
        font-size: 18.78px;
      }

      .st0, .st1 {
        font-family: LucidaBright-Italic, 'Lucida Bright';
        font-style: italic;
      }

      .st2 {
        fill: #ddc9b8;
      }

      .st3 {
        fill: #1d1d1b;
      }

      .st4 {
        fill: #fff;
      }

      .st5 {
        fill: #b6a697;
      }

      .st6, .st1 {
        fill: #3d2516;
      }

      .st7 {
        fill: #95877d;
      }

      .st8 {
        fill: #fef1e9;
      }

      .st1 {
        font-size: 23.69px;
      }
    </style>
  </defs>
  <path class="st7" d="M177.51,703.15l-4.25-2.67c.05-.86,1.49-.66,2.32-1.12.65-.36,1.12-1.04,1.66-1.53l.26,5.32Z"/>
  <path d="M1364.18,842.82v9c-2.94-.03-1.97-3.33-6-2l2.93-6.37,3.07-.63Z"/>
  <path d="M1338.19,851.82l3.99-2.51-4-1.49.49-4.02c3.73-5.55,9.26,9.82-.47,8.02Z"/>
  <path d="M1352.19,851.82l3.99-2.51-4-1.49.49-4.02c3.73-5.55,9.26,9.82-.47,8.02Z"/>
  <path d="M1373.19,851.82l3.99-2.51-4-1.49.49-4.02c3.73-5.55,9.26,9.82-.47,8.02Z"/>
  <path d="M1387.19,851.82l3.99-2.51-4-1.49c1.63-13.82,11.13,5.05.01,4Z"/>
  <path d="M1326.19,844.82h1.99s.99-1.99.99-1.99l1.02,2.51c-3.27.68-.99,3.72-2.02,6.47l-1-2.99-2.98,2.99,1-8.99.99,1.98Z"/>
  <text/>
  <g>
    <path class="st2" d="M147.86,337.08c-1.21,4.32-3.63,8.39-5,12.74-3.54,11.25-2.73,21.68.14,32.96-13.73-5.62-28.23-9.56-41.94-15.19-6.42-2.64-7.36-3.01-9.47-9.98-3.87-12.84-1.23-26.63,6.67-37.32l49.6,16.8Z"/>
    <path class="st4" d="M144.94,458.64c-.81.19-.99-.25-1.45-.73-1.9-1.97-3.62-4.53-5.84-6.32l-4.87-3.64,10.59,16.41-2.08,10.81c-9.17-6.73-16.32-14.01-23.01-23.19-8.74-11.97-16.91-24.22-27.32-34.93l.24-.72c11.37,8.5,19.89,21.13,30.64,30.15.55.46.79,1.18,1.7.97-8.88-12.65-19.34-24.25-30.11-35.32-.14-.8,2.48-3.53,3.53-2.06l23.17,20.36-6.55-8.27-16.06-15.57.74-5.33,1.14.08,15.64,13.54c.62.18.96-.1.72-.72-.69-1.75-6.62-8.64-8.24-10.24-1.93-1.91-8.64-6.36-9.15-8.35-.65-2.56-.27-5.86-1.57-8.39.84-.22.97.33,1.46.72,3.76,2.97,10.24,10.49,13.86,14.34,8.79,9.34,28.09,28.33,30.94,40.06,1.34,5.52,1.14,10.88,1.88,16.35Z"/>
    <path class="st2" d="M420.5,455.06c1.97-4.34,3.44-8.78,4.23-13.51,2.08-12.37,1.33-23.04-3.52-34.61-.43-1.04-3.2-5.81-2.66-6.34l16.72-1.83c3.06.57,6.63,13.25,7.05,16.23,1.29,9.15-.58,23.78-5.52,31.81-3.77,6.13-9.44,7.56-16.3,8.25Z"/>
    <path class="st5" d="M68.33,331.05c3.19-2.39,9.13-16.51,11.67-17.77,1.76-.87,7.94,2.5,10.21,2.7.43.59-3.09,5.23-3.66,6.31-6.7,12.79-5.84,24.46-1.69,37.93-8.4-2.58-18.2-5.79-20.3-15.44-1.88-8.65.18-20.54,4.66-28.16.49-.83,5.43-8.75,6.37-5.2.31,1.19-3.57,7.72-4.35,9.66-1.24,3.1-2.28,6.69-2.91,9.98Z"/>
    <path class="st5" d="M107.5,451.83l-43.76-13.85,25.96-6.45c1.59.31,15.19,16.37,17.08,18.85.37.49.95.61.72,1.46Z"/>
    <path class="st5" d="M108.94,269.51c-1.58,9.36-1.86,18.91-.9,28.36.1.93,2.36,11.03,1.15,11.01-.75.12-1-.6-1.41-1.02-7.3-7.61-5.64-29.72-2.7-39.33l3.85.99Z"/>
    <path class="st3" d="M88.74,359.74l-2.44-5.09c-3.81-11.83-2.35-24.33,4.96-34.46.72-.37,1.85-3.08,2.59-2.75.8.36.82,1.31.66,2.07-.27,1.29-3.46,6.14-4.31,8.36-3.95,10.32-4.5,21.22-1.45,31.86Z"/>
    <path class="st5" d="M111.39,450.37l-2.68-2.42-24.09-26.97c-.99-1.7-.42-3.86.03-5.62.93-.69,6.02,7.96,6.59,8.72,6.64,8.78,14.98,16.42,20.15,26.29Z"/>
    <path class="st4" d="M454.05,477.92c-.94,1.29-2.96,2.02-4.39,2.65-8.17,3.63-27.41,9.88-36.06,11.11-.85.12-1.12.69-1.84-.4,3.9-2.99,8.64-4.63,13.22-6.22,9.16-3.16,19.48-5.9,29.07-7.15Z"/>
    <path class="st4" d="M430.71,493.47c.14-.62.8-1.03,1.3-1.37,2.62-1.8,16.07-6.95,19.25-7.5,2.66-.47.64,1.72-.45,2.48-4.97,3.44-14.26,4.7-20.1,6.4Z"/>
    <path class="st5" d="M102.85,472.48l-23.34-7.29c.33,1.06-.89,4.14-2.14,3.87-2.25-1.39-1.49-3.65-2-5.81l-4.13-2.91c1.62-.32,3.68,1.12,5.1.97s2.4-2.64,3.4-2.43c1.05.7.53,2.01.98,2.91s10.51,4.01,12.57,4.93c3.24,1.44,6.91,3.39,9.55,5.76Z"/>
    <path class="st6" d="M96.53,370.93l-26.71-11.95c-17.67-9.44-10.41-46.02,4.65-54.11,7.31-3.93,16.97-5.15,24.93-7.41-.92-9.86-4.34-26.67,3.93-34.25,6.64-6.09,35.78-8.83,45.81-10.6,11.83-2.08,23.68-4.14,35.5-6.32,19.85-3.66,39.78-9.57,59.98-9.59,54.88,8.81,110.34,14.28,165.23,22.96,8.4,1.33,19.33,2.74,27.28,5.3,14.65,4.72,5.72,10.47,2.7,19.17-2.9,8.35-.7,13.34,4.18,20.14,4.19,5.84,13.44,12.02,1.43,15.62-8.52,2.55-12.78.01-19.47,7.76-7.65,8.85-12.62,26.27-2.68,35.27,2.28,2.06,6.35.57,7.9,5.23,2.36,7.1-7.1,8.28-12.02,9.13-.69.12-1.43-.46-1.22.71,8.79,6.83,20.07,11.98,25.22,22.43,5.46,11.07,4.64,23.8,2.99,35.67l57.38,11.43c3.79,1.18,11.02,1.79,10.68,7.27-.28,4.31-8.06,6.24-10.93,8.54-8.16,6.56-13.29,27.41-2.33,33.94,4.56,2.72,14.81,4.94,7.41,11.98-31.84,11.3-64.07,21.74-96.01,32.85-35.9,12.49-71.43,26.35-107.45,38.43-3.88,1.3-8.54,3.22-12.4,4.13-15.82,3.72-36.01-7.79-50.58-13.61-63.45-25.36-127.33-50.03-190.09-76.87-17.56-11.43-17.43-44.19-1.99-56.87,7.77-6.38,25.83-7.07,35.51-9.96-3.48-3.55-6.75-9.63-4.62-14.58s10.27-3.23,12.63-10.23c1.9-5.64.12-13.3-2.24-18.64-1.14-2.57-5-7.33-5.19-9.43-.16-1.82,2.14-3.52,3.55-3.52h7.05ZM420.38,267.83c-.19-.97-1.03-.8-1.7-.97-11.94-3.01-26.65-4.82-38.98-6.73-29.84-4.62-59.88-8.23-89.81-12.31-17.83-2.43-36.07-7.04-54.04-5.27-6.11.6-12.15,2.17-18.24,2.92l24.31,8.26c-14.63-.02-32.73-9.63-46.9-4.35-.52.19-1.17.2-1.24.94l11.67,4.86c-6.82-.19-14.45-3.62-21.07-3.7-8.61-.1-18.11,3.39-26.58,4.68l45.71,13.12c-9.3-.99-18.6-2.38-27.8-4.04-8.72-1.57-23.61-6.21-31.7-5.62-3.38.25-6.61,1.84-10.03,1.88-.2,1.1.05.78.62,1.09,1.99,1.09,6.93,2.13,9.38,2.77,46.11,11.97,93.28,19.91,139.99,29.23,7.17.47,13.83-2.23,20.68-3.67,38.49-8.09,77.02-16.1,115.74-23.1ZM287.63,298.96c-5.91-.39-11.78-1.53-17.6-2.59-37.59-6.88-76.06-14.58-113.22-23.42-11.57-2.75-24.58-7.26-35.97-9.26-3.22-.56-5.61-1.21-8.76.26l5.24,2.29c55.02,13.8,110.41,26.08,166.17,36.65,2.08-.12,2.86-2.54,4.13-3.93ZM108.67,268.84l-3.85-.99c-2.94,9.61-4.6,31.72,2.7,39.33.41.43.66,1.14,1.41,1.02,1.21.02-1.05-10.08-1.15-11.01-.97-9.45-.68-19,.9-28.36ZM438.86,270.76c-1.77-.32-4.18-2.02-5.96-1.85-1.45.14-4.99,1.75-7.08,2.18-44.08,9.16-88.52,16.71-132.48,26.41l-2.3,4.38,147.82-31.11ZM280.82,306.25c-56.21-10.05-111.84-22.97-167.27-36.48l-1.46,19.94,91.43,20.66c-12.81.43-25.98-2.62-38.51-5.26-17.59-3.7-34.96-8.41-52.19-13.46-.64,3.89.87,7.9,1.5,11.72,29.71,6.92,58.96,15.63,88.5,23.24,26.21,6.75,52.52,13.3,78.98,19l-1.77-7.32c-21.84-5.26-44.06-9.24-65.82-14.8-2.68-.68-5.43-1.23-8.03-2.19-.74-.27-2.43-.67-2.66-1.46,5.58-.03,11.15,1.06,16.62,2.09,20.03,3.78,39.65,9.81,59.72,13.46l-.05-20.37c-6.87-1.64-13.95-3.07-20.63-5.38-1.88-.65-5.35-1.8-6.88-2.84-.62-.42-1.33-.54-1.12-1.55,9.69,1.98,19.25,5.09,29.15,5.81l.51-4.84ZM437.89,276.11l-149.9,30.62c-1.64,3.49-3.55,7.19-3.27,11.19,9.5-1.69,18.65-4.9,27.99-7.26,36.14-9.14,72.9-14.87,109.22-23.04,2.55-.57,11.69-2.41,12.97-4.04s1.9-5.49,2.98-7.47ZM434,287.29c-33.15,7.17-66.64,13.02-99.69,20.66-16.77,3.88-33.26,8.67-49.97,12.75-.94.42-.75,4.2-.6,5.27.11.73-.29.77.73.72,10.83-2.66,21.57-6.52,32.82-6.81l-9.72,3.64-23.29,6.36,1.24,6.07c18.89-2.71,36.85-9.87,56.08-10.72l-3.51,1.59c-17.11,4.96-34.73,8.08-52.13,11.97-1.13.75,1.52,5.74,1.9,6.85l152.94-36.95c-1.84-2.48-3.78-5.04-4.95-7.93-.56-1.38-1.86-5.14-1.86-6.41v-7.05ZM421.35,325.22c-37.14,9.28-74.63,17.23-111.75,26.58-15.98,4.03-21.04,8.03-38.41,4.2-49.55-10.9-98.3-26.02-147.32-38.92-4.37-1.15-9.08-1.67-13.25-2.8-7.13-1.93-7.86-6.83-11.46-12.35l-17.69,5.29,160.21,58.84c7.05,2.91,13.99,1.94,21.26.82,13.74-2.11,28.62-5.78,42.3-8.76,37.91-8.27,75.12-18.99,112.82-28.07l3.3-4.84ZM284.18,350.54c-55.76-11.95-110.65-27.41-165.66-42.25-1.34-.44-2.16.45-2.47,1.68-.23.92.24.63.91.87,15.47,5.57,34.8,9.86,50.95,14.23,38.13,10.32,76.46,20.31,115.16,28.32,1.44-.02,1.29-1.87,1.12-2.85ZM68.33,331.05c.62-3.28,1.67-6.88,2.91-9.98.78-1.94,4.66-8.47,4.35-9.66-.94-3.54-5.89,4.38-6.37,5.2-4.48,7.62-6.54,19.51-4.66,28.16,2.1,9.64,11.9,12.86,20.3,15.44-4.14-13.47-5-25.14,1.69-37.93.56-1.08,4.08-5.71,3.66-6.31-2.27-.2-8.45-3.57-10.21-2.7-2.54,1.26-8.47,15.37-11.67,17.77ZM446.64,314.51c-1.88-3.38-3.72-2.32-6.81-1.7-32.65,6.53-66.63,15.51-99.11,23.43-14.03,3.42-28.63,6.68-42.5,10.5-.99.27-7.19,1.88-7.18,2.54,1.02,1.22,2.34,2.03,3.99,1.6,36.6-9.58,73.39-18.43,110.27-26.89l41.34-9.48ZM88.74,359.74c-3.05-10.64-2.49-21.54,1.45-31.86.85-2.22,4.04-7.08,4.31-8.36.16-.76.14-1.72-.66-2.07-.74-.33-1.87,2.38-2.59,2.75-7.31,10.13-8.77,22.63-4.96,34.46l2.44,5.09ZM147.59,336.4l-49.6-16.8c-7.9,10.69-10.54,24.48-6.67,37.32,2.1,6.98,3.05,7.35,9.47,9.98,13.71,5.63,28.21,9.58,41.94,15.19-2.87-11.28-3.68-21.71-.14-32.96,1.37-4.35,3.79-8.42,5-12.74ZM415.03,335.43c-32.19,7.84-63.95,17.23-96.27,24.56-22.29,5.06-44.8,9.04-67.22,13.37-3.45,3.89-5.96,8.54-7.18,13.6.78.69,14.89-1.77,17.27-1.94.58-.04,2.66-.41,2.67.48-4.87,1.77-16.82,2.79-20.56,5.81-1.26,1.02-.7,4.68-1.32,6.34l23.82-3.89-23.75,7.85c-.25,5.03.25,11.09,6.92,9.6l168.55-46.63-2.45-4.37c-12.9,3.23-26.08,5.74-39.37,6.8l13.21-4.04c8.41-1.54,16.66-4.69,25.2-5.19l-1.01-3.85-.69-.07-44.01,11.7,7.89-3.04c8.04-2.75,16.61-3.86,24.68-6.44,4.49-1.44,12.67-4.12,11.67-9.97-4.73.02-9.36,1.74-14.1.73,4.1-3.24,9.57-4.28,14.59-5.34,1.01-1.85,1.62-3.98,1.45-6.09ZM155.37,339.32l-5.3-1.43c-4.19,9.53-8.01,18.7-7.36,29.4.2,3.23,2.57,16.14,6.09,16.76.77.14.82,0,.73-.72-.26-1.99-1.43-4.64-1.8-6.96-1.51-9.49-1.19-18.85,2.54-27.81,1.37-3.3,3.54-6.07,5.1-9.24ZM211.78,360.24l-53.91-19.9c-9.4,13.85-10.87,30-4,45.34l52.07,18.8c.25-3.24-1.18-6.29-1.45-9.49-1.03-12.42,2.25-23.6,7.29-34.75ZM218.05,362.7c-1.49-.21-2.71-1.73-3.78-.23-3.23,4.49-6.81,15.89-7.29,21.4-.63,7.18-.24,17.88,4.56,23.52,1.06-2.64-.17-5.76-.27-8.49-.28-8.44.34-15.11,2.59-23.22.53-1.9,4.6-12.4,4.19-12.98ZM240.95,371.42l-19.47-7.09c-6.93,13.41-11.17,29.61-4.6,44.04l18.49,7.77c.76.12.82.04.72-.71-.5-3.76-2.48-8-2.85-12.23-1.02-11.57,3.33-21.45,7.72-31.78ZM248.24,415.18c-.18.12,1.76,3.45,2.92,2.73,44.81-13.54,90.12-25.5,135.46-37.22,11.31-2.92,26.07-5.35,36.68-9.03,1.31-.46,2.52-.73,3.39-1.95-.4-.4-.73-.94-1.31-1.12-2.32-.71-13.72,2.56-16.88,3.34-50.32,12.44-99.82,28.13-149.95,41.16-3.36.87-6.87,2-10.32,2.09ZM240.95,417.12c-.38-3.58-2.1-6.86-2.42-10.46-.68-7.67.46-14.85,2.67-22.11.84-2.75,3.01-6.79,3.45-9.22.31-1.67-1.13-2.07-2.18-.69-.78,1.03-2.13,4.18-2.72,5.55-4.33,9.92-6.13,21.69-1.81,31.92l3,5.02ZM219.07,415.18l-107.08-39.04c-5.86-1.89-11.9-.03-17.89-.34,17.64,14.17,31.55,32.15,47.51,48.03,3.02-.14,6.12-.17,9.14-.39,15.57-1.13,32.07-3.12,47.65-4.86,6.61-.74,13.36-1.47,19.94-2.44.66-.1,1.53-.23.73-.96ZM432.05,393.79c-7.54-4.44-14.17-11.1-22.52-13.96l-16.86,4.23c-.2.89.27.95.81,1.37,4.05,3.16,9.78,5,12.32,10.29-7.4-1.89-13.6-6.94-20.53-9.62-32.02,8.45-64.17,16.43-96.17,24.94-3.2.85-7.64,1.8-10.58,3.03-.6.25-1.43.26-1.57,1.1l155.11-21.38ZM144.67,457.96c-.74-5.47-.54-10.83-1.88-16.35-2.85-11.73-22.15-30.71-30.94-40.06-3.62-3.85-10.1-11.37-13.86-14.34-.49-.39-.62-.94-1.46-.72,1.3,2.54.92,5.83,1.57,8.39.51,2,7.22,6.44,9.15,8.35,1.62,1.6,7.55,8.49,8.24,10.24.24.62-.09.9-.72.72l-15.64-13.54-1.14-.08-.74,5.33,16.06,15.57,6.55,8.27-23.17-20.36c-1.05-1.48-3.67,1.25-3.53,2.06,10.77,11.06,21.24,22.67,30.11,35.32-.91.21-1.16-.51-1.7-.97-10.74-9.02-19.27-21.65-30.64-30.15l-.24.72c10.4,10.7,18.58,22.96,27.32,34.93,6.69,9.17,13.84,16.45,23.01,23.19l2.08-10.81-10.59-16.41,4.87,3.64c2.22,1.79,3.93,4.35,5.84,6.32.46.48.64.92,1.45.73ZM420.87,455.53c6.87-.68,12.54-2.12,16.3-8.25,4.94-8.03,6.81-22.66,5.52-31.81-.42-2.99-3.99-15.66-7.05-16.23l-16.72,1.83c-.55.52,2.22,5.3,2.66,6.34,4.85,11.57,5.6,22.24,3.52,34.61-.79,4.73-2.26,9.17-4.23,13.51ZM413.48,402.15l-4.28.39c8.47,16.59,8.53,36.52,2.68,53.98l6.07-.49c-.53-5.21,2.05-9.86,2.84-14.91,1.74-11.17,1.08-23.07-3.95-33.33-.37-.75-3.08-5.47-3.36-5.63ZM411.63,437.06c.08-7.46-.12-15.31-1.98-22.58-.74-2.9-3.52-11.32-7.01-11.51l-18.73,2.48c-.62.57,4.51,8.51,1.7,10.21-2.02.43-4.46-10.71-8.26-9.27-41.21,5.92-82.67,10.13-123.93,15.66-5.11.68-8.79,2.81-14.14,1.37-2.46-.66-4.62-2.42-7.09-3.12-4.74-1.34-14.35.16-19.62.78-4.48.53-8.96,1.31-13.43,1.89,1.07,3.94,3.97,8.66,1.7,12.64-2.56.54-5.57-11.77-6.83-12.09-1.21.77-6.44-.09-6.52,1.15,1.89,3.49,3.27,7.39,2.9,11.43-1.5,1.69-6.7-9.7-6.37-11.13l-5.79.43c.75,5.64,2.35,11.1,2.92,16.78.87,8.74.18,17.97-1.05,26.66-.63,4.5-1.62,9.08-2.84,13.45l232.92-25.77c-1.37-1.61-1.29-2.87-.97-4.86-.88-.89-21.76,3.56-24.8,1.22,1.43-1.3,3.84-1.64,5.73-2.05,6.39-1.37,13.11-1.86,19.58-2.79l1.43-7.57c-.8-.8-19.75,3.18-22.37.73.98-1.09,2.45-1.27,3.79-1.56,5.99-1.29,12.95-1.49,19.06-2.58ZM111.12,449.7c-5.17-9.87-13.51-17.51-20.15-26.29-.57-.76-5.66-9.41-6.59-8.72-.45,1.76-1.02,3.92-.03,5.62l24.09,26.97,2.68,2.42ZM165.58,483.25c1.82-.11,6.15.56,7.21-1.29.83-1.43,2.33-8.32,2.76-10.37,2.67-12.78,3.39-27.18-.61-39.76-.31-.98-1.38-4.44-1.83-4.98-.69-.83-6.8-.82-6.97.23,5.35,18.35,4.84,37.93-.56,56.18ZM161.61,427.42l-17.43,1.38c4.14,12.42,6.46,25.48,4.8,38.59-.79,6.26-3.35,11.71-3.83,17.81l14.71-1.45c7.08-17.64,8.72-38.37,1.74-56.33ZM107.22,451.16c.22-.85-.35-.97-.72-1.46-1.89-2.48-15.49-18.54-17.08-18.85l-25.96,6.45,43.76,13.85ZM241.92,495.9c-5.48-1.51-11-3.02-16.42-4.74-10.77-3.43-17.66-7.08-29.53-6.45-15.07.8-31.04,4.1-46.2,4.85-10.44.52-12.58.44-19.45-7.28s-11.53-16.99-18.05-24.74c-18.63-7.03-37.61-13.2-56.96-17.98-1.28-.06-4.76,3.61-5.7,4.77-11.37,14.06-9.26,37.61,6.73,47.26l156.29,63.5c2.81.61,5.24-.29,7.91-.86-4.64-22.41,4.99-43.52,21.39-58.34ZM494.78,450.68l-48.87-10.23c-.62,0-.85.34-1.17.79-1.01,1.44-1.89,5.1-3.06,7.15-4.56,8.04-9.94,10.31-18.77,11.87-22.4,3.95-48.37,4.87-71.33,7.44-32.72,3.67-65.47,7.4-98.17,11.24-11.61,1.36-24.11,2.46-35.56,4.31-.72.12-1.5.03-1.7.97l62.49,17.02c4.78.35,9.14-.3,13.77-1.29,22.53-4.85,45.6-11.56,68.16-16.94,43.1-10.28,86.35-19.99,129.36-30.62,1.16-.29,2.37-.52,3.5-.88.51-.16,1.47-.12,1.35-.82ZM508.18,452.13l-219.99,52.72.84,3.49,219.99-52.72-.84-3.49ZM497.21,463.32c-4.54.8-9.12,1.65-13.62,2.66-48.22,10.84-96.22,23.28-144.29,34.66-1.01.6-1.09,1.49-2.28,2.1-3.56,1.84-26.81,7.81-30.68,7.78-1.62-.01-2.53-1.02-3.82-.99-2.39.05-10.29,2.89-13.42,3.64-1.9.45-3.94.47-5.84.97l-4.87,6.06c7.29-1.23,14.44-5.21,21.88-4.62-7.16,5.13-16.8,6.97-25.27,9.26l-2.44,4.12c5.73-1.32,11.52-2.45,17.22-3.93,6.12-1.59,13.84-4.88,19.96-5.33.55-.04,2.69-.35,2.69.5l-5.61,2.42c-.45,1.91-.53,11.72-2.42,12.18-1.12,0-1.13-.83-1.23-1.68-.38-3.27.99-6.31.74-9.51l-33.77,10.97c-1.53,1.02-5.3,14.74-4.39,15.78,9.62-2.95,18.89-7.08,28.43-10.22,3.76-1.24,9.25-3.43,13.15-2.91.67.09,1.42.25.72.96l-12.57,4.45.42,6.74c4.5-.82,9.25-3.27,13.84-3.42.54-.02,1.84-.31,1.71.5-4.87,2.78-10.14,4.73-15.49,6.39-.25,2.28-.5,6.93-1.61,8.84-1.6,2.75-15.44,5.37-19.13,6.65-.56.19-2.05.33-1.69,1.21,4.41,3.63,7.19,7.33,13.43,4.69,53.6-17.52,106.83-36.44,159.93-55.49,15.52-5.57,30.96-11.34,46.43-17.03-.14-.86-2.53-.54-3.18-.5-8.45.53-16.66,3.31-25.02,4.39l7.53-3.41,18.65-6.05-1.12-2.1c-13.58,3.22-26.99,7.37-40.62,10.36-1.65.36-3.61.86-5.24,1.08-.53.07-1.68.54-1.56-.35,5.31-2.41,10.58-4.68,16.16-6.46,8.64-2.74,18.21-4.12,26.64-6.92,3.59-1.19,5.02-1.15,4.37-5.6-6.75,1-13.42,2.81-20.04,4.52-6.87,1.77-14.5,4.65-21.27,5.97-.5.1-1.6.64-1.48-.27,13.36-7.39,28.06-11.56,42.8-15.31l.24-2.68c-7.49,1.97-15.08,4.74-22.87,5.33-.54.04-1.81.36-1.69-.47l25.43-7.77,1.3-4.88c-7.33,1.51-15.25,3.97-22.67,4.8-.53.06-2.2.48-2.12-.42,7.51-2.16,14.95-4.61,22.37-7.05,3.24-1.07,5.78-.63,7.29-4.62ZM274.99,505.62l-27.45-8.26c-19.4,13.07-31.14,41.93-19.49,63.71,7.81,3.02,15.4,6.8,23.6,8.73.05-3.08-1.1-5.97-1.45-9-2.06-18.08,3.98-32.23,15.79-45.47,2.33-2.62,6.73-5.89,8.52-8.5.28-.41.68-.48.48-1.22ZM504.8,502.73l-214.43,75.08.94,2.68,214.43-75.08-.94-2.68ZM282.28,507.08c-.8-.14-1.31.38-1.9.77-5.41,3.53-13.91,12.93-17.65,18.33-13.76,19.85-13.41,49.8,15.43,53.84.56.08,1.04.09.49-.49-2.07-2.16-6.01-4.38-8.28-6.79-13.52-14.34-10.3-33.93.06-49.08,1.29-1.88,13.23-15.24,11.87-16.57ZM288.56,552.26c-.04-1.18.53-6.64-.68-6.74l-22.08,6.84.42,4.61,22.34-4.7ZM288.6,553.76l-20.42,7.3,2.49,5.77,17.94-5.52c1-.74.47-6.12-.02-7.55Z"/>
    <path class="st2" d="M411.63,437.06c-6.12,1.08-13.07,1.28-19.06,2.58-1.34.29-2.81.47-3.79,1.56,2.62,2.45,21.57-1.53,22.37-.73l-1.43,7.57c-6.47.93-13.19,1.42-19.58,2.79-1.89.4-4.3.75-5.73,2.05,3.03,2.34,23.92-2.1,24.8-1.22-.32,1.98-.4,3.24.97,4.86l-232.92,25.77c1.22-4.37,2.2-8.95,2.84-13.45,1.23-8.69,1.92-17.92,1.05-26.66-.57-5.68-2.16-11.15-2.92-16.78l5.79-.43c-.33,1.43,4.87,12.82,6.37,11.13.37-4.04-1.02-7.93-2.9-11.43.07-1.24,5.31-.38,6.52-1.15,1.26.32,4.28,12.63,6.83,12.09,2.27-3.98-.63-8.69-1.7-12.64,4.47-.58,8.95-1.36,13.43-1.89,5.27-.62,14.88-2.12,19.62-.78,2.48.7,4.63,2.46,7.09,3.12,5.35,1.44,9.02-.68,14.14-1.37,41.26-5.53,82.72-9.74,123.93-15.66,3.8-1.44,6.25,9.7,8.26,9.27,2.81-1.7-2.31-9.64-1.7-10.21l18.73-2.48c3.49.19,6.27,8.61,7.01,11.51,1.86,7.27,2.06,15.12,1.98,22.58ZM356.68,431.23c-1.43-.01-2.65-.53-4.11-.51-9.03.14-20.55,1.48-29.68,2.45-8.24.88-17.36,1.64-25.04,4.61,1.19,1.14,3.55.81,5.12.75,14.1-.52,28.74-2.41,42.7-4.46,2.77-.41,7.94-.96,10.34-1.82.69-.25.82.14.68-1.03Z"/>
    <path class="st4" d="M497.21,463.58c-1.51,3.99-4.05,3.55-7.29,4.62-7.42,2.44-14.86,4.9-22.37,7.05-.08.9,1.59.48,2.12.42,7.41-.83,15.34-3.3,22.67-4.8l-1.3,4.88-25.43,7.77c-.12.84,1.15.52,1.69.47,7.79-.59,15.38-3.37,22.87-5.33l-.24,2.68c-14.74,3.75-29.44,7.93-42.8,15.31-.12.9.98.36,1.48.27,6.77-1.31,14.4-4.2,21.27-5.97,6.62-1.7,13.29-3.52,20.04-4.52.65,4.45-.78,4.41-4.37,5.6-8.43,2.79-18,4.17-26.64,6.92-5.58,1.77-10.85,4.05-16.16,6.46-.11.89,1.04.42,1.56.35,1.64-.22,3.59-.72,5.24-1.08,13.63-2.99,27.04-7.14,40.62-10.36l1.12,2.1-18.65,6.05-7.53,3.41c8.36-1.08,16.57-3.87,25.02-4.39.65-.04,3.04-.36,3.18.5-15.46,5.69-30.91,11.47-46.43,17.03-53.09,19.05-106.32,37.97-159.93,55.49-6.24,2.64-9.02-1.06-13.43-4.69-.36-.88,1.13-1.02,1.69-1.21,3.69-1.28,17.53-3.9,19.13-6.65,1.11-1.91,1.36-6.56,1.61-8.84,5.35-1.66,10.62-3.61,15.49-6.39.13-.81-1.17-.52-1.71-.5-4.59.15-9.34,2.6-13.84,3.42l-.42-6.74,12.57-4.45c.7-.71-.05-.87-.72-.96-3.9-.52-9.38,1.67-13.15,2.91-9.54,3.14-18.82,7.27-28.43,10.22-.91-1.04,2.86-14.76,4.39-15.78l33.77-10.97c.25,3.2-1.12,6.24-.74,9.51.1.84.11,1.67,1.23,1.68,1.89-.45,1.97-10.27,2.42-12.18l5.61-2.42c0-.85-2.14-.54-2.69-.5-6.12.45-13.84,3.74-19.96,5.33-5.7,1.48-11.49,2.61-17.22,3.93l2.44-4.12c8.47-2.29,18.1-4.13,25.27-9.26-7.44-.6-14.59,3.38-21.88,4.62l4.87-6.06c1.9-.5,3.94-.51,5.84-.97,3.13-.75,11.02-3.59,13.42-3.64,1.29-.03,2.2.98,3.82.99,3.87.03,27.12-5.94,30.68-7.78,1.19-.61,1.27-1.5,2.28-2.1,48.06-11.38,96.07-23.82,144.29-34.66,4.5-1.01,9.08-1.86,13.62-2.66ZM454.42,478.65c-9.59,1.25-19.91,3.99-29.07,7.15-4.59,1.58-9.33,3.23-13.22,6.22.72,1.09.99.52,1.84.4,8.65-1.24,27.89-7.48,36.06-11.11,1.43-.64,3.45-1.36,4.39-2.65ZM431.08,494.2c5.83-1.7,15.13-2.96,20.1-6.4,1.09-.76,3.12-2.95.45-2.48-3.18.56-16.63,5.71-19.25,7.5-.5.34-1.16.75-1.3,1.37ZM372.24,526.79c-11.19,2.64-22.53,5.45-33.43,9.11-2.25.76-6.65,2.07-8.5,3.17-2,1.19-1.88,2.25.61,2.09,8.2-.53,28.19-7.95,36.16-11.52l5.17-2.84Z"/>
    <path class="st2" d="M241.92,495.83c-16.4,14.83-26.04,35.94-21.39,58.34-2.67.57-5.1,1.47-7.91.86l-156.29-63.5c-15.99-9.65-18.1-33.2-6.73-47.26.94-1.16,4.42-4.83,5.7-4.77,19.35,4.78,38.33,10.95,56.96,17.98,6.52,7.74,11.27,17.12,18.05,24.74s9.01,7.8,19.45,7.28c15.16-.76,31.14-4.05,46.2-4.85,11.87-.63,18.76,3.02,29.53,6.45,5.42,1.72,10.94,3.23,16.42,4.74ZM102.85,472.48c-2.65-2.38-6.31-4.32-9.55-5.76-2.07-.92-12.1-3.99-12.57-4.93s.07-2.21-.98-2.91c-1.01-.21-2.03,2.29-3.4,2.43s-3.48-1.29-5.1-.97l4.13,2.91c.51,2.16-.25,4.42,2,5.81,1.25.27,2.47-2.8,2.14-3.87l23.34,7.29ZM184.55,529.86c1.05.18,1.15-.47,1.45-1.22,1.24-3.18,1.74-8.02,1.95-11.42-4.73,3.02-5.4,7.61-3.39,12.64ZM208.86,535.94c.4-3.23-.29-7.14,0-10.45-3.27,3.25-4.91,9.78-1.7,13.61.8.39,1.64-2.75,1.7-3.16Z"/>
    <path class="st2" d="M419.58,267.83c-38.72,7-77.24,15.01-115.74,23.1-6.85,1.44-13.51,4.14-20.68,3.67-46.7-9.33-93.88-17.27-139.99-29.23-2.45-.64-7.39-1.68-9.38-2.77-.57-.31-.82.02-.62-1.09,3.42-.04,6.65-1.63,10.03-1.88,8.09-.59,22.97,4.05,31.7,5.62,9.21,1.66,18.5,3.05,27.8,4.04l-45.71-13.12c8.48-1.29,17.97-4.78,26.58-4.68,6.62.08,14.25,3.51,21.07,3.7l-11.67-4.86c.07-.74.72-.75,1.24-.94,14.17-5.29,32.26,4.33,46.9,4.35l-24.31-8.26c6.09-.75,12.13-2.31,18.24-2.92,17.97-1.77,36.21,2.84,54.04,5.27,29.93,4.08,59.97,7.69,89.81,12.31,12.33,1.91,27.04,3.72,38.98,6.73.68.17,1.52,0,1.7.97ZM336.91,262c11.19,2.92,23.24,5.24,34.77,6.32,2.75.26,6.06.68,8.77.51,1.91-.12,7.24-1.07,3.05-2.6-7.63-2.79-25.79-2.98-34.68-3.74-3.44-.29-6.73-1.12-10.22-.97-.59.03-1.81-.37-1.69.48Z"/>
    <path class="st4" d="M417.68,334.88c.18,2.11-.44,4.24-1.45,6.09-5.03,1.06-10.5,2.1-14.59,5.34,4.74,1.01,9.38-.72,14.1-.73.99,5.85-7.18,8.53-11.67,9.97-8.08,2.58-16.64,3.69-24.68,6.44l-7.89,3.04,44.01-11.7.69.07,1.01,3.85c-8.54.51-16.79,3.66-25.2,5.19l-13.21,4.04c13.28-1.06,26.46-3.57,39.37-6.8l2.45,4.37-168.55,46.63c-6.68,1.49-7.17-4.56-6.92-9.6l23.75-7.85-23.82,3.89c.62-1.66.05-5.32,1.32-6.34,3.74-3.03,15.69-4.05,20.56-5.81,0-.88-2.09-.52-2.67-.48-2.38.17-16.49,2.63-17.27,1.94,1.22-5.07,3.73-9.72,7.18-13.6,22.43-4.33,44.93-8.32,67.22-13.37,32.32-7.33,64.08-16.72,96.27-24.56ZM357.88,355.29c5.75-.87,12.13-1.8,17.71-3.44,1.62-.48,3.53-.74,4.65-2.15-.7-.97-2.5-.28-3.5-.1-4.98.88-11.86,2.55-16.55,4.36-.64.25-2.2.6-2.31,1.33ZM287.85,372.32c-6.81.86-13.72,1.7-20.44,3.14-3.88.83-9.16,1.57-12.14,4.15,9.84-.94,19.58-2.98,29.07-5.69l3.5-1.59Z"/>
    <path class="st4" d="M283.48,305.7l-.51,4.84c-9.9-.72-19.46-3.83-29.15-5.81-.21,1.01.5,1.13,1.12,1.55,1.53,1.04,5,2.19,6.88,2.84,6.68,2.31,13.76,3.74,20.63,5.38l.05,20.37c-20.06-3.65-39.69-9.68-59.72-13.46-5.47-1.03-11.04-2.12-16.62-2.09.23.79,1.93,1.19,2.66,1.46,2.6.95,5.35,1.5,8.03,2.19,21.76,5.56,43.98,9.53,65.82,14.8l1.77,7.32c-26.45-5.7-52.77-12.25-78.98-19-29.54-7.61-58.79-16.33-88.5-23.24-.63-3.82-2.14-7.83-1.5-11.72,17.23,5.05,34.6,9.76,52.19,13.46,12.54,2.64,25.7,5.68,38.51,5.26l-91.43-20.66,1.46-19.94c55.43,13.51,111.06,26.43,167.27,36.48ZM172.12,290.14c-14.22-5.14-29.62-8.59-44.73-9.73,4.74,3.99,12.41,5.28,18.47,6.57,7.25,1.54,16.22,3.18,23.57,3.66.56.04,2.69.35,2.69-.5ZM253.32,308.62c-18.78-5.76-38.24-9.87-57.86-11.67,1.92,1.59,5.32,2.43,7.78,3.15,12.82,3.79,33.21,8.21,46.42,9.02.78.05,3.33.36,3.66-.5ZM268.89,321.26c-8.36-1.58-16.71-3.86-25.28-3.89l4.98,2.07c6.02,1.48,12.38,2.55,18.61,2.3.59-.02,1.81.37,1.69-.48Z"/>
    <path class="st2" d="M497.43,450.12c.12.7-.84.66-1.35.82-1.13.36-2.35.6-3.5.88-43.01,10.63-86.26,20.34-129.36,30.62-22.56,5.38-45.62,12.09-68.16,16.94-4.63,1-8.99,1.65-13.77,1.29l-62.49-17.02c.2-.94.98-.85,1.7-.97,11.45-1.85,23.95-2.95,35.56-4.31,32.7-3.84,65.45-7.57,98.17-11.24,22.97-2.57,48.94-3.49,71.33-7.44,8.83-1.56,14.21-3.83,18.77-11.87,1.17-2.06,2.04-5.71,3.06-7.15.32-.45.55-.8,1.17-.79l48.87,10.23Z"/>
    <path class="st4" d="M436.65,286.73v7.05c0,1.27,1.3,5.03,1.86,6.41,1.17,2.89,3.11,5.46,4.95,7.93l-152.94,36.95c-.38-1.11-3.03-6.1-1.9-6.85,17.39-3.89,35.02-7.01,52.13-11.97l3.51-1.59c-19.23.85-37.19,8.01-56.08,10.72l-1.24-6.07,23.29-6.36,9.72-3.64c-11.26.29-21.99,4.15-32.82,6.81-1.01.05-.62,0-.73-.72-.15-1.07-.35-4.85.6-5.27,16.71-4.08,33.21-8.87,49.97-12.75,33.05-7.64,66.54-13.49,99.69-20.66ZM425.95,300.35c-10.29.51-20.62,2.99-30.73,5.01-20.66,4.14-41.19,9.2-61.66,13.95.18-1.32-.94-4.92-2.67-4.38s-.01,3.91-.32,5c-.25.89-1.89,1.29-1.34,2.95,2.14,2.64,2.58.29,4.15-.59l83.58-18.53,8.98-3.41Z"/>
    <path class="st2" d="M424,324.66l-3.3,4.84c-37.7,9.08-74.92,19.8-112.82,28.07-13.68,2.99-28.56,6.65-42.3,8.76-7.27,1.12-14.21,2.09-21.26-.82l-160.21-58.84,17.69-5.29c3.6,5.52,4.33,10.42,11.46,12.35,4.17,1.13,8.88,1.65,13.25,2.8,49.02,12.9,97.77,28.02,147.32,38.92,17.37,3.82,22.43-.18,38.41-4.2,37.12-9.36,74.62-17.31,111.75-26.58Z"/>
    <path class="st2" d="M214.43,359.68c-5.03,11.15-8.31,22.33-7.29,34.75.26,3.2,1.7,6.25,1.45,9.49l-52.07-18.8c-6.87-15.34-5.4-31.5,4-45.34l53.91,19.9Z"/>
    <path class="st2" d="M221.72,414.63c.8.73-.08.86-.73.96-6.57.97-13.33,1.7-19.94,2.44-15.58,1.74-32.08,3.74-47.65,4.86-3.01.22-6.12.25-9.14.39-15.96-15.88-29.87-33.86-47.51-48.03,5.99.31,12.02-1.54,17.89.34l107.08,39.04Z"/>
    <path class="st6" d="M273.99,505.62c.2.74-.19.81-.48,1.22-1.8,2.6-6.19,5.88-8.52,8.5-11.81,13.24-17.85,27.38-15.79,45.47.34,3.03,1.5,5.92,1.45,9-8.2-1.94-15.79-5.71-23.6-8.73-11.65-21.78.09-50.64,19.49-63.71l27.45,8.26Z"/>
    <path class="st2" d="M434.7,393.24l-155.11,21.38c.13-.84.97-.85,1.57-1.1,2.94-1.23,7.38-2.18,10.58-3.03,32-8.5,64.15-16.49,96.17-24.94,6.93,2.68,13.14,7.73,20.53,9.62-2.54-5.29-8.27-7.13-12.32-10.29-.54-.42-1.01-.48-.81-1.37l16.86-4.23c8.35,2.86,14.98,9.52,22.52,13.96Z"/>
    <path class="st8" d="M440.54,275.55c-1.08,1.98-1.66,5.79-2.98,7.47s-10.43,3.47-12.97,4.04c-36.32,8.17-73.08,13.9-109.22,23.04-9.35,2.36-18.49,5.57-27.99,7.26-.28-4.01,1.63-7.7,3.27-11.19l149.9-30.62Z"/>
    <path class="st2" d="M164.26,426.86c6.98,17.95,5.34,38.69-1.74,56.33l-14.71,1.45c.48-6.1,3.03-11.55,3.83-17.81,1.66-13.11-.66-26.17-4.8-38.59l17.43-1.38Z"/>
    <path class="st2" d="M243.6,370.86c-4.39,10.33-8.74,20.21-7.72,31.78.37,4.23,2.35,8.47,2.85,12.23.1.75.05.83-.72.71l-18.49-7.77c-6.57-14.43-2.33-30.63,4.6-44.04l19.47,7.09Z"/>
    <rect class="st2" x="288.15" y="477.89" width="226.22" height="3.59" transform="translate(-100.74 106.72) rotate(-13.48)"/>
    <path class="st2" d="M290.28,298.41c-1.26,1.39-2.05,3.81-4.13,3.93-55.76-10.57-111.16-22.85-166.17-36.65l-5.24-2.29c3.15-1.47,5.54-.82,8.76-.26,11.39,2,24.4,6.5,35.97,9.26,37.15,8.84,75.62,16.55,113.22,23.42,5.81,1.06,11.69,2.2,17.6,2.59Z"/>
    <path class="st2" d="M286.83,349.99c.17.98.32,2.83-1.12,2.85-38.7-8.01-77.02-18-115.16-28.32-16.15-4.37-35.48-8.66-50.95-14.23-.67-.24-1.14.05-.91-.87.31-1.23,1.13-2.13,2.47-1.68,55.02,14.85,109.9,30.31,165.66,42.25Z"/>
    <path class="st2" d="M441.51,270.21l-147.82,31.11,2.3-4.38c43.96-9.7,88.4-17.24,132.48-26.41,2.09-.43,5.63-2.04,7.08-2.18,1.78-.17,4.19,1.53,5.96,1.85Z"/>
    <path class="st2" d="M284.93,506.53c1.36,1.34-10.58,14.69-11.87,16.57-10.35,15.15-13.58,34.74-.06,49.08,2.27,2.41,6.22,4.64,8.28,6.79.55.58.07.57-.49.49-28.84-4.04-29.19-33.99-15.43-53.84,3.74-5.4,12.24-14.8,17.65-18.33.6-.39,1.1-.91,1.9-.77Z"/>
    <rect class="st2" x="284.09" y="539.72" width="227.19" height="2.84" transform="translate(-156.48 161.82) rotate(-19.3)"/>
    <path class="st2" d="M250.9,414.63c3.45-.09,6.96-1.22,10.32-2.09,50.13-13.03,99.63-28.71,149.95-41.16,3.16-.78,14.55-4.06,16.88-3.34.58.18.91.71,1.31,1.12-.87,1.21-2.08,1.49-3.39,1.95-10.61,3.68-25.36,6.11-36.68,9.03-45.33,11.72-90.65,23.68-135.46,37.22-1.16.72-3.1-2.61-2.92-2.73Z"/>
    <path class="st8" d="M449.29,313.96l-41.34,9.48c-36.88,8.46-73.67,17.31-110.27,26.89-1.64.43-2.97-.38-3.99-1.6,0-.66,6.19-2.26,7.18-2.54,13.87-3.82,28.47-7.08,42.5-10.5,32.48-7.93,66.45-16.9,99.11-23.43,3.09-.62,4.93-1.68,6.81,1.7Z"/>
    <path class="st6" d="M168.23,482.7c5.41-18.25,5.91-37.83.56-56.18.18-1.05,6.28-1.06,6.97-.23.45.54,1.52,4,1.83,4.98,4,12.58,3.28,26.98.61,39.76-.43,2.05-1.93,8.94-2.76,10.37-1.07,1.85-5.39,1.18-7.21,1.29Z"/>
    <path class="st2" d="M232.67,374.17c.28.17,2.99,4.88,3.36,5.63,5.03,10.26,5.7,22.16,3.95,33.33-.79,5.05-3.37,9.7-2.84,14.91l-6.07.49c5.85-17.46,5.79-37.38-2.68-53.98l4.28-.39Z"/>
    <path class="st3" d="M220.7,362.15c.41.58-3.67,11.08-4.19,12.98-2.25,8.11-2.87,14.78-2.59,23.22.09,2.72,1.33,5.84.27,8.49-4.8-5.64-5.19-16.34-4.56-23.52.48-5.52,4.06-16.92,7.29-21.4,1.08-1.5,2.3.02,3.78.23Z"/>
    <path class="st3" d="M155.37,339.32c-1.56,3.17-3.72,5.95-5.1,9.24-3.73,8.96-4.05,18.32-2.54,27.81.37,2.32,1.54,4.97,1.8,6.96.09.72.04.86-.73.72-3.53-.63-5.9-13.53-6.09-16.76-.65-10.7,3.17-19.87,7.36-29.4l5.3,1.43Z"/>
    <path class="st4" d="M288.23,553.29c.49,1.43,1.02,6.81.02,7.55l-17.94,5.52-2.49-5.77,20.42-7.3Z"/>
    <path class="st4" d="M288.19,551.78l-22.34,4.7-.42-4.61,22.08-6.84c1.21.1.64,5.56.68,6.74Z"/>
    <path class="st2" d="M243.6,416.56l-3-5.02c-4.33-10.23-2.52-22,1.81-31.92.59-1.36,1.94-4.52,2.72-5.55,1.05-1.38,2.48-.98,2.18.69-.44,2.43-2.61,6.47-3.45,9.22-2.21,7.27-3.35,14.45-2.67,22.11.32,3.6,2.04,6.88,2.42,10.46Z"/>
    <path class="st2" d="M359.34,430.67c.14,1.16.02.78-.68,1.03-2.39.86-7.57,1.41-10.34,1.82-13.96,2.06-28.6,3.94-42.7,4.46-1.57.06-3.94.39-5.12-.75,7.69-2.98,16.81-3.73,25.04-4.61,9.13-.98,20.65-2.32,29.68-2.45,1.47-.02,2.69.5,4.11.51Z"/>
    <path class="st4" d="M371.87,526.06l-5.17,2.84c-7.96,3.58-27.96,11-36.16,11.52-2.49.16-2.6-.9-.61-2.09,1.85-1.1,6.25-2.41,8.5-3.17,10.91-3.66,22.24-6.47,33.43-9.11Z"/>
    <path class="st2" d="M184.55,529.86c-2-5.03-1.34-9.62,3.39-12.64-.21,3.41-.71,8.25-1.95,11.42-.29.75-.4,1.4-1.45,1.22Z"/>
    <path class="st2" d="M208.86,535.94c-.05.41-.9,3.54-1.7,3.16-3.21-3.83-1.57-10.36,1.7-13.61-.29,3.31.4,7.23,0,10.45Z"/>
    <path class="st2" d="M340.37,261.44c-.11-.85,1.1-.45,1.69-.48,3.49-.15,6.78.67,10.22.97,8.89.76,27.04.94,34.68,3.74,4.19,1.53-1.14,2.48-3.05,2.6-2.71.17-6.02-.25-8.77-.51-11.53-1.08-23.58-3.4-34.77-6.32Z"/>
    <path class="st2" d="M287.85,372.32l-3.5,1.59c-9.49,2.71-19.23,4.75-29.07,5.69,2.98-2.57,8.26-3.32,12.14-4.15,6.72-1.44,13.63-2.27,20.44-3.14Z"/>
    <path class="st2" d="M357.88,355.29c.11-.73,1.66-1.08,2.31-1.33,4.69-1.81,11.57-3.47,16.55-4.36,1-.18,2.8-.87,3.5.1-1.12,1.41-3.02,1.67-4.65,2.15-5.57,1.64-11.96,2.57-17.71,3.44Z"/>
    <path class="st4" d="M253.32,308.62c-.33.86-2.89.55-3.66.5-13.21-.81-33.6-5.23-46.42-9.02-2.46-.73-5.86-1.57-7.78-3.15,19.62,1.8,39.08,5.91,57.86,11.67Z"/>
    <path class="st4" d="M172.12,290.14c0,.85-2.13.54-2.69.5-7.35-.48-16.31-2.12-23.57-3.66-6.06-1.29-13.73-2.58-18.47-6.57,15.11,1.13,30.51,4.59,44.73,9.73Z"/>
    <path class="st4" d="M268.89,321.26c.11.85-1.1.46-1.69.48-6.23.25-12.59-.82-18.61-2.3l-4.98-2.07c8.57.03,16.92,2.31,25.28,3.89Z"/>
    <path class="st4" d="M425.95,300.35l-8.98,3.41-83.58,18.53c-1.57.87-2.01,3.23-4.15.59-.55-1.66,1.1-2.06,1.34-2.95.3-1.09-1.37-4.47.32-5s2.85,3.06,2.67,4.38c20.48-4.75,41-9.82,61.66-13.95,10.1-2.02,20.43-4.49,30.73-5.01Z"/>
    <path d="M230.76,452.88l.13.77c.19,2.22-.33,4.93-2.27,6.8-3.06,2.94-10.73,2.61-15.13,3.25-1.54.22-3.15.94-3.11,2.23,0,.17.1.36.1.47,0,.13-.24.17-.31.06-.11-.18-.27-.6-.31-.8-.24-1.25.68-2.36,2.04-3.11,2.93-1.62,7.35-1.33,10.72-1.8,3.16-.44,5.67-2.4,6.32-4.71.28-.99.14-2.02.11-3.01l-17.6,1.68c-1.53.16-2.9,1.15-3.38,2.22-.09.2-.02.49-.36.44-.23-.03.03-.3-.02-.41-.38-2.13-.2-4.51-.63-6.61-.02-.12-.23-.35-.06-.41.32-.11.26.09.34.2.47.76,1.67,1.56,2.83,1.67.96.09,1.86-.14,2.82-.13l15.79-1.5c-.15-1-.22-2.03-.69-2.97-.98-1.96-3.49-3.38-6.39-3.42-1.05-.02-2.06.13-3.11.25-2.75.3-5.9.84-8.48,0-1.49-.48-2.6-1.43-2.56-2.72,0-.13.09-.67.15-.77.02-.03.02-.06.07-.07l.23-.03c-.27,1.71,1.66,2.27,3.64,2.17,4.04-.2,10.65-1.65,14.23-.21,3.03,1.22,4.36,4.36,4.6,6.83l.02.78,6.57-.62c1.25-.12,3.1-1.74,3.52-2.58.08-.16.19-.67.27-.73.09-.07.24-.06.24,0l.82,8.63s-.09.09-.13.1c-.2.04-.35-.45-.42-.56-.5-.77-2.71-2.13-3.94-2.01l-6.67.63ZM207.36,450.71l.56,5.86c.51-.66,1.3-1.48,2.28-1.78.13-.04,1.01-.28,1.07-.29l18.01-1.71c.19.09.06.28.07.41.04.94.17,1.81-.07,2.76-.64,2.53-3.3,4.58-6.73,5.06s-9.45.1-11.77,2.74c-.45.51-.66,1.04-.66,1.64l.38-.61c.75-.78,2.03-1.17,3.24-1.33,4.13-.56,11.31-.35,14.36-2.86,1.77-1.46,2.31-3.59,2.56-5.44l-.17-2.47,6.99-.66c.07,0,1.15.21,1.3.26.66.19,1.48.65,1.99,1.01.31.22.54.5.83.74l-.67-7.08c-.13,0-.08.02-.12.06-.64.9-1.45,1.79-2.69,2.3-.87.36-1.06.33-1.98.41-1.96.16-3.91.39-5.87.56-.05-.4-.06-.81-.11-1.21-.11-.84-.27-1.62-.61-2.41-.7-1.59-1.8-3.23-3.85-4.02-3.55-1.37-10.27.07-14.32.25-1.3.06-2.93-.31-3.47-1.23.05.59.46,1.14,1.01,1.54,2.85,2.06,8.49.6,12.1.4,3.5-.18,6.6,1.49,7.55,3.92.36.93.4,1.9.58,2.85l-18.2,1.73c-.07,0-.84-.05-.98-.07-1.04-.12-1.93-.77-2.58-1.31Z"/>
    <path class="st6" d="M171.11,365.82c.35.93.87,2.08,1.76,2.63.12.07.8.44.87.46l17.37,4.97c.27-1.25.67-2.46.76-3.75.23-3.37-1.84-6.65-5.12-7.79s-9.18-1.57-10.85-5.23c-.32-.71-.45-1.55-.23-2.3.08,1.34,1.4,2.44,2.61,2.87,3.77,1.35,10.55,2.2,13.17,5.28,1.51,1.78,1.78,4.23,1.7,6.47-.04,1.11-.25,2.14-.53,3.22-.13.52-.31,1.02-.44,1.54,1.86.56,3.75,1.04,5.61,1.6.88.26,1.04.38,1.99.27,1.37-.15,2.5-.92,3.49-1.79.05-.04.02-.09.13-.03l-2.58,9.01c-.15-.41-.24-.84-.42-1.24-.3-.64-.84-1.53-1.36-2.02-.12-.11-1-.8-1.07-.82l-6.68-1.91-.96,3.12c-1.06,2.19-2.51,4.6-4.78,5.72-3.91,1.91-10.36-1.16-14.38-2.08-1.18-.27-2.52-.29-3.56.38l-.62.6c.27-.74.69-1.31,1.34-1.77,3.31-2.34,8.48.44,11.97,1.22s6.7-.74,8.42-3.61c.65-1.08.92-2.2,1.3-3.38.05-.17.26-.35.13-.54l-17.19-4.92c-.05-.02-.97-.06-1.11-.06-1.02,0-2.12.71-2.88,1.31l2.13-7.45Z"/>
    <g>
      <path class="st6" d="M110.83,331.1s.25-.44.38-.57c3.1-3.26,9.44-2.37,11.67,1.49.28.49.47,1.33.67,1.65.06.09.82.56,1,.74.8.76,1.53,1.95,1.81,3.01.64.07,1.22-.03,1.83-.18.69-.17,1.78-.82,2.27-.89.42-.06.68.06.75.5.12.72.08,3.01,0,3.78-.01.13,0,.26-.07.38-.1.22-1.85,1.32-2.23,1.65-.99.85-1.77,1.92-2.48,3.01-.21.32-1.27,1.98-1.33,2.18-.13.43.02,1.43-.02,1.96-.08,1.04-.44,2.23-.88,3.17-.22.46-1.32,2.02-1.36,2.24-.09.47.08.92.09,1.34.07,4-.31,8.69-4.6,10.36-3.67,1.43-7.78-.14-9.98-3.26-.22-.31-.54-1.06-.73-1.25s-.81-.42-1.1-.62c-3.11-2.14-4.46-6.39-3.5-10.01-1.89-2.49-1.78-7.18-.29-9.84.1-.17.32-.32.36-.45.1-.34.05-1.44.12-1.95.47-3.5,3.17-7.32,6.65-8.3.23-.06.89-.11.97-.15ZM130.04,340.45v-2.66c-1.13.39-3.03,1.14-4.18.62-.53-.24-.6-1.01-.85-1.49-.72-1.39-1.95-2.64-3.59-2.81-.55-.06-1.67.18-2.01.03-.4-.17-.38-.83.07-1.01.68-.27,1.99-.08,2.72-.03-1.21-2.82-5.19-4.19-7.95-3.04-2.42,1-3.66,3.48-3,6.02.15.56.93,1.59.35,1.97-.64.42-1-.51-1.19-.96-.66-1.6-.58-3.18-.02-4.8-3.56.91-6.1,4.8-6.13,8.38.52-.21,1.39-1.16,1.94-.64.74.71-.72,1.16-1.16,1.46-1.02.69-1.86,1.91-2.11,3.12-.4,1.92-.29,4.16.52,5.97.21.05.15-.04.2-.12.33-.48.72-1.53,1.45-1.31.91.28-.4,1.63-.62,2.05-1.81,3.55.45,10.43,5.03,9.8.75-.1,1.74-1.04,2.26-.7.18.11.19.55.1.73-.26.58-2.46,1.32-3.11,1.08,1.59,3.56,6.31,5.38,9.82,3.47,3.16-1.72,3.44-6.33,3.15-9.51-3.9,3.08-9.52.71-10.18-4.19-.15-1.09.11-2.03-.85-2.84-.38-.32-1.24-.43-.97-1.05.41-.96,2.11.25,2.28.96.78-.46,1.28-.87,2.27-.7,1.13.2,1.05,1.3.21,1.23-.47-.04-.57-.3-1.14-.04-.95.44-.76,1.91-.59,2.75.65,3.16,3.97,5,7.01,3.76,3.24-1.32,5.26-6.56,3.42-9.59-1.54-2.54-5.24-2.56-6.99-4.9-1.17-1.57-1.25-4.45.36-5.76.32-.26,1.08-.75,1.35-.18.34.71-.44.79-.77,1.13-.19.2-.42.66-.52.92-.87,2.32.97,4.32,3.08,4.98,2.82.89,3.92-3.06,1.49-3.92-.56-.2-1.56.06-1.59-.65-.05-.87,1.47-.59,2-.4,2.27.84,2.76,3.98.89,5.5-.1.08-.81.47-.76.54,1.25.61,2.34,1.64,2.79,2.97l1.55-2.46c1.04-1.54,2.42-2.68,3.95-3.71Z"/>
      <path class="st6" d="M108.98,338.42c.49-.47,1.3.42,1.57.8.45.64.73,1.49.69,2.28,1.12-.38,2.17-.28,2.91.7.27.36.56.81.11,1.17-.64.5-.9-.55-1.3-.79-.63-.38-1.49-.04-1.89.52-.17.24-.2.51-.35.75-.78,1.28-1.75,2.25-3.29,2.56-.49.1-1.81.27-1.93-.39-.19-1.01.99-.61,1.66-.71,2.21-.32,3.82-3.46,2.52-5.39-.29-.43-1.35-.88-.69-1.5Z"/>
      <path class="st6" d="M116.31,345.84c-.09-1.18,1.84-.48,2.4-.16,2.27,1.3,2.62,4.5.62,6.22-.42.36-2.08,1.41-2.15.32-.04-.69.7-.66,1.19-1.01,1.74-1.25,1.41-4.05-.63-4.74-.43-.15-1.37-.07-1.42-.64Z"/>
      <path class="st6" d="M109.03,350.11c.5.5-.41,1.16-.66,1.54-.96,1.47-.76,3.42,1.02,4.08.52.19,1.8.17,1.49.98-.24.65-1.14.34-1.65.18-2.45-.79-3.2-3.36-2-5.55.25-.45,1.2-1.82,1.79-1.23Z"/>
      <path class="st6" d="M112.75,358.72c-.18-1.01,1.33-.55,1.81-.36,2.27.88,2.7,3.39,1.4,5.32-.26.39-.95,1.31-1.47.78s.32-1.05.57-1.41c.84-1.23.73-2.98-.77-3.61-.48-.2-1.44-.14-1.54-.72Z"/>
    </g>
    <text class="st1" transform="translate(71.22 485.41) rotate(21.27) scale(.94 1)"><tspan x="0" y="0">PSICOLOGIA</tspan></text>
    <text class="st0" transform="translate(253.76 457.26) rotate(-6.34) scale(.94 1)"><tspan x="0" y="0">PSICOTERAPIA</tspan></text>
    <text/>
  </g>
</svg>