<!DOCTYPE svg PUBLIC "-//W3C//DTD SVG 1.1//EN" "http://www.w3.org/Graphics/SVG/1.1/DTD/svg11.dtd">
<!-- Uploaded to: SVG Repo, www.svgrepo.com, Transformed by: SVG Repo Mixer Tools -->
<svg fill="#5d6d68" height="800px" width="800px" version="1.1" id="Capa_1" xmlns="http://www.w3.org/2000/svg" xmlns:xlink="http://www.w3.org/1999/xlink" viewBox="0 0 385.458 385.458" xml:space="preserve">
<g id="SVGRepo_bgCarrier" stroke-width="0"/>
<g id="SVGRepo_tracerCarrier" stroke-linecap="round" stroke-linejoin="round"/>
<g id="SVGRepo_iconCarrier"> <path d="M57.707,179.811v-75.177C57.707,46.938,104.646,0,162.344,0c57.696,0,104.635,46.938,104.635,104.634v75.177 c0,25.973-21.13,47.104-47.103,47.104c-4.971,0-9-4.029-9-9s4.029-9,9-9c16.047,0,29.103-13.056,29.103-29.104v-75.177 c0-47.77-38.863-86.634-86.634-86.634c-47.772,0-86.638,38.864-86.638,86.634v75.177c0,16.048,13.057,29.104,29.104,29.104 c4.971,0,9,4.029,9,9s-4.029,9-9,9C78.838,226.915,57.707,205.784,57.707,179.811z M131.558,121.637 c-3.791,1.999-7.711,4.065-11.51,6.201c-7.95,4.469-15.576,9.745-17.522,18.019c-1.705,7.25,1.715,13.535,4.883,18.198 c7.239,10.658,26.892,35.451,53.003,35.494c8.067-0.013,16.053-2.577,25.893-8.313c23.504-13.698,38.104-39.742,38.104-67.969 c0-11.784-1.896-22.656-5.635-32.317c-1.794-4.636-7.004-6.94-11.643-5.145c-4.635,1.794-6.938,7.006-5.145,11.642 c2.935,7.58,4.422,16.267,4.422,25.82c0,21.847-11.177,41.932-29.168,52.417c-6.944,4.048-12.144,5.856-16.829,5.864 c-14.291-0.023-29.059-14.276-38.113-27.608c-1.643-2.417-2.071-3.594-2.184-4.032c0.388-0.606,2.063-2.619,8.755-6.38 c3.588-2.017,7.398-4.026,11.083-5.969c20.513-10.814,41.723-21.997,45.401-44.24c3.291-19.901-3.794-31.986-10.316-38.619 c-10.506-10.684-27.476-15.189-46.567-12.361c-4.917,0.729-8.312,5.305-7.583,10.222c0.729,4.918,5.308,8.31,10.222,7.584 c13.334-1.976,24.666,0.64,31.095,7.176c5.229,5.317,7.042,13.076,5.392,23.062C165.375,103.808,148.949,112.468,131.558,121.637z M203.443,259.124c1.447,0.866,3.039,1.278,4.611,1.278c3.062,0,6.046-1.563,7.732-4.381c2.552-4.266,1.162-9.792-3.104-12.344 c-9.313-5.572-15.552-11.714-18.539-18.256c-2.065-4.521-7.403-6.514-11.926-4.447c-4.521,2.065-6.513,7.404-4.447,11.926 C182.303,242.82,190.94,251.644,203.443,259.124z M338.729,316.047c0.101,4.969-3.847,9.08-8.816,9.18l-9.961,0.201l6.055,13.002 c2.098,4.506,0.146,9.859-4.36,11.958c-4.505,2.099-9.859,0.146-11.958-4.36l-4.58-9.836l-12.551,21.738 c-9.091,15.748-25.647,24.564-42.646,24.564c-8.333,0-16.77-2.117-24.491-6.574c-0.022-0.013-0.045-0.026-0.067-0.039 c-11.297-6.545-19.389-17.132-22.788-29.819c-3.406-12.71-1.679-25.951,4.863-37.281l34.227-59.285 c13.531-23.437,43.586-31.515,67.041-18.044c0.033,0.019,0.066,0.038,0.1,0.057c23.469,13.549,31.539,43.667,17.991,67.137 l-5.049,8.744l7.812-0.158C334.51,307.126,338.63,311.078,338.729,316.047z M288.889,328.284 c-11.231,1.882-22.633-0.152-32.568-5.888c-9.403-5.43-16.58-13.619-20.756-23.681c-0.219-0.526-0.427-1.054-0.627-1.584 l-11.922,20.65c-4.138,7.167-5.227,15.556-3.064,23.623c2.161,8.066,7.299,14.788,14.466,18.926 c0.019,0.011,0.037,0.022,0.056,0.033c14.869,8.544,33.92,3.423,42.496-11.432L288.889,328.284z M299.87,247.139 c-0.026-0.015-0.052-0.029-0.077-0.044c-14.877-8.588-33.962-3.473-42.55,11.401l-3.246,5.623c-0.025,0.046-0.052,0.092-0.078,0.138 c-4.867,8.43-5.497,18.475-1.728,27.56c2.645,6.375,7.185,11.558,13.129,14.99c7.168,4.138,15.559,5.227,23.625,3.065 c8.067-2.161,14.788-7.298,18.925-14.465c0.023-0.04,0.046-0.079,0.069-0.117l3.259-5.644 C319.769,274.796,314.686,255.747,299.87,247.139z M188.888,367.457h-51.56l-66.097-88.853 c42.813-10.415,68.217-25.423,77.48-45.705c2.065-4.521,0.074-9.86-4.447-11.926c-4.521-2.066-9.86-0.074-11.926,4.447 c-5.183,11.348-22.969,27.245-78.233,38.567c-0.684,0.125-1.358,0.33-2.01,0.618c-1.011,0.445-1.912,1.064-2.674,1.814 c-0.946,0.927-1.651,2.027-2.103,3.211c-0.454,1.187-0.662,2.481-0.572,3.808c0.068,1.041,0.318,2.078,0.756,3.061 c0.3,0.675,0.677,1.3,1.119,1.869l76.965,103.461c1.086,1.46,2.53,2.498,4.121,3.079c0.497,0.182,1.014,0.322,1.547,0.414 c0.515,0.09,1.036,0.136,1.56,0.136c0.063,0,0.127,0,0.191-0.002h55.882c4.971,0,9-4.029,9-9S193.859,367.457,188.888,367.457z M279.757,279.928c-4.449-2.223-9.853-0.421-12.075,4.025c-2.223,4.446-0.421,9.852,4.025,12.075l0.004,0.002 c1.291,0.646,2.664,0.952,4.017,0.952c3.301,0,6.479-1.824,8.056-4.978C286.006,287.558,284.202,282.151,279.757,279.928z"/> </g>
</svg>