<?xml version="1.0" encoding="UTF-8"?>
<svg id="Camada_1" xmlns="http://www.w3.org/2000/svg" version="1.1" viewBox="0 0 32 32">
  <!-- Generator: Adobe Illustrator 29.1.0, SVG Export Plug-In . SVG Version: 2.1.0 Build 142)  -->
  <defs>
    <style>
      .st0 {
        fill: #5D6D68;
      }
    </style>
  </defs>
  <path class="st0" d="M27.5,22.27c1.79,1.48,4.36,3.45,2.04,5.68-1.96,1.89-4.13,3.38-6.95,3.58h-1.58c-5.45-.6-9.9-4.55-13.32-8.55C3.43,17.98-1.14,10.17,3.45,3.92c.61-.83,2.97-3.1,3.91-3.38,1.49-.44,2.58.98,3.35,2.05,1.05,1.48,2.82,4.12,2.23,5.97-.75,2.34-4.22,2.51-3.82,5.39.36,2.6,4.97,7.77,7.27,8.99,2.83,1.51,3.33-.37,5.25-1.84,2.24-1.73,4.05-.32,5.85,1.17Z"/>
</svg>