<?xml version="1.0" encoding="UTF-8"?>
<svg id="Camada_2" xmlns="http://www.w3.org/2000/svg" version="1.1" viewBox="0 0 546.8 1581.1">
  <!-- Generator: Adobe Illustrator 29.3.1, SVG Export Plug-In . SVG Version: 2.1.0 Build 151)  -->
  <defs>
    <style>
      .st0 {
        fill: #b7a68a;
      }
    </style>
  </defs>
  <g id="Camada_1-2">
    <path class="st0" d="M87.8,880.8c-.1,0-.8-1.9,0-2.6,4.4-3.7,11.8-.6,16.9-.4,10.3.4,18.5-.2,28.9,1.9,14.6,2.9,42.6,9.6,52.4,21,3.1,3.6,3.8,8.7,7.5,11.6-.8-6.9.3-14.1-3.1-20.4-3.1-5.6-18.6-19.7-24.4-22.8-3.1-1.7-6.2-2-9.3-3.5-16.3-8-33.2-37.5-39.5-54-5.1-13.4-7.4-31.2-14.6-43-.8-1.4-7.7-8-4-8.7,1.6-.3,12.7,9.9,15.2,11.7,6.1,4.1,13.4,7,19.5,11.2,21.3,14.4,34.5,37.1,46.2,59.3,10.4,19.8,15.9,41.9,16.9,64.3l9.9-50.2c2-6.9,4.1-13.7,6.5-20.4,5.4-15.4,11.9-23.8,10.5-41.1-.9-10.9-5.2-25.2-11.4-34.3-12.4-18.2-22-21.2-24.6-46.5-1.4-14,1.4-45-4.7-55.9-2.4-4.4-4-6.7-9.2-7.2-6.4-.6-17.7-1.3-24-.7-10.1.9-21.1,6.1-31.5,7.5-18.5,2.4-46.7,1.6-64.7-3.5-10.1-2.9-17.1-7.5-26.2-11.2-8.3-3.5-17.3-5.6-25.7-8.8-.2-1.3,0-2,1.3-2.5,7.2-2.5,21.3-4.3,29.2-5.3,22.1-2.9,44.3-3.7,66.2,1,15.3,3.3,29.5,10,44.6,13.8,9,2.2,18.3,3.4,27.3,5.3-10.6-8-21.6-15.4-31.5-24.3-15.5-13.9-25.2-30.3-43.2-41.4-5-3.1-5.9-3-11.5-2-14.3,2.5-25.8,8.5-41,3.5-8.7-2.9-22.5-14.5-30.7-14.8-1.5,0-5.1,1.9-5.5.1-.5-2.2,1.7-2.8,3.2-3.5,12.3-6,31.6-8.5,45-6.5,19.5,2.9,34.3,15.4,49.9,26.1l-17.9-36.9c-12.4-6.5-25.2-20.2-29.3-33.8-8-26.1,6.6-53.3-1.3-77.2-.9-2.8-5.3-8.3-1.3-9.1,10,13.9,24.1,26.7,32.5,41.6,8.8,15.6,7.3,40.6,5.3,58-.7,6.1-3.1,11.5-2.1,18,.4,2.7,8.9,19.2,10.8,22.9,12.7,24.2,30.1,43.8,51.7,60.5,1.2-8.9-6.6-14.7-10.7-21.4-17.6-29.3-14.8-77-3.9-108.3,2.2-6.2,6.3-17.4,9.2-23,.8-1.6,1.6-2.3,3.6-2,2.2,10.2,7.2,19.7,10.1,29.9,8.9,31.4,4,55.5-.5,87-2,14-7.8,27.8-1.8,41.6,1.4,3.2,20.2,14.8,24.4,17.5,10.9,6.8,22.2,13.2,33.7,19.1-.6,1.1-4.9,2.6-5.9,2.7-1.3.1-2-2-3-.8,9.7,8.3,18.7,17.5,23.6,29.5,13.5,32.8,2.3,65.7-4.1,98.7l16.4-31.1c12-21,25.3-41.4,41.7-59.3,2.9-3.2,22.3-21.2,22.6-22.8.9-6.2-5.9-14.6-12-15.4-6.6-.8-13.9,1.4-20.4-1.3-10-4.1-12-22.2-17.3-30.6-.9-1.5-4.9-4.8-4.6-5.8.8-1.1,1.1-1.2,2.4-1,2.3.4,7.9,2.3,10.3,3.2,5.7,2.2,15.1,7.1,20.2,10.5,12.1,8,18.4,19.9,23.3,33.2l1.5-5c-3-4.5.5-8.2,0-12.5-.7-6-8.2-10.3-12-14.3-7.2-7.8-24.1-29.3-28.1-38.5-6.4-14.8-10.6-36.6-12.4-52.7-1-8.7.3-19.2-3.6-27-.9-1.9-10.8-13-4.6-11.9,16.2,3,40.5,31.2,48.5,45.1,11.1,19.3,15.1,44,16.6,66,1.2,0,1.2-2.6,1.4-3.5,4.3-25.8,6.2-66.5,4.6-92.6-1.1-18.3-15.2-51.7-21.8-70.2-11.2-31.7-23.7-62.9-35.2-94.5l-2,6.6c-3,17.2-3,34.7-1.7,52.1,12.8,18.9,25.4,39,35.6,59.4,3.2,6.4,9.9,20.5,2.8,26.2-6.9,5.5-14.2-8.8-17.4-13.8-11.7-18.4-17.9-34.2-22.2-55.6-.9-4.3-1-9.8-1.9-13.8-1.4-5.8-25.3-29.2-30.9-34.2-26.3-22.9-60.1-41.1-93.5-51.1-10-3-20.2-5.6-30.6-6.9,9.1,9.4,18.7,18.2,27.8,27.6,29.6,30.9,56.9,63.7,90.3,90.8,5.7,4.6,16.1,10.8,20.6,15.3,1.7,1.8,2.4,3.3-.8,3.1-46.2-30.7-80.6-74.6-119.1-113.7-4.9-5-21.2-22.3-26.4-24.5-2.6-1.1-14.3-1.2-14.8-3.2-.3-1.3,1.8-2.2,2.8-2.4,3.6-.8,22.9,3.6,28,4.7,57.1,12.4,108.1,41.2,145.4,86.4-.6-16.4.2-31.8,2.5-48,.4-3.2,1.9-6.9,2-10,.4-7.5-15.6-38.4-20.1-46.4-15.8-28-36.9-51.3-62.7-70.5-8.7,18-18,21.1-36.9,15.9-17.4-4.8-57-24.2-54.8-46.1.5-5.4,3.3-8.3,8.9-7.9-4.4-8.2-1.9-20.5,8.6-21.7,20.8-2.4,48.4,7.2,64.4,20.2,12.8,10.4,18.1,21.2,10.9,37.3,39.7,26.2,66.3,67.6,83.2,111.4l15.6-40.9c-17.8-59.2-41.2-116.7-68.4-172.1-1.4-1.5-4.4,1.1-6.5,1.7-11.3,3.2-32.7,2.1-43.3-3.6-11.8-6.4-30.4-39.3-36.2-52.1-5.1-11.5-12.2-34.6-9.1-46.7,2.7-10.3,9.8,1.7,13.7,4.3l-3-18.3c.9-7,1.3-13.2,10.2-12.3,3.4.3,4.7,2.9,7.9,3,0-3.3,3.5-4.5,6.4-4.6,9.8-.3,40.7,15.1,49,21.4,27.9,21.1,48.2,66.7,22.2,96.8-1.5,1.7-8.5,7.4-8.5,8.4,26.1,54.4,49.6,110.2,67.3,168l1.5-1.8,59.6-147.7c-2.9-17.7-4.5-72.1,24.7-68.1,4.7.7,3,5.2,2.2,9-4.1,20.1-18.2,42.4-24.1,62.5,10.7,75.6,34.7,155.6,21.2,232.1-7.8,44.6-24.5,87.7-34,132-.9,4.1-2.8,20-3.9,22.1-.5.9-2.1,0-2.3.9.5,24.4-1.1,48.9-3.8,73.1-2.1,19.6-5.1,39.3-8.1,58.8.5.5,6-4.2,6.8-4.8,22.3-19.8,50.9-43.9,69.7-66.6,5.7-6.9,3.4-8.9,4.2-17.6-13.2-37.2-33.8-71-32-111.8.4-9.4,2.6-18.4,3.8-27.7.3-2-1.7-4.9,1.5-5.2,2.2.9,19.2,26.7,21.1,30.5,14.4,28.7,24.6,63.1,16.3,95-2.3,8.9-8.7,16.4-6.7,25.8,15.3-17.6,28.3-39.5,34.8-62,1.9-6.6,7.6-26.7,7.7-32.5.1-5.9-5.2-15-7.4-20.9-5.5-15.3-11.3-38.3-6.9-54,4.4-16.2,15.3-31.1,21.4-46.7.2-.6,1.4-2.1,1.7-2,3.1,0-.2,9.4-.4,11.6-1.2,15.6,9.1,31.8,13,46.1,7.4,27.4,2.6,47.5-17.3,67.7l-9.2,39.1c8.8-8.1,15.3-18.2,24.7-25.8,16.5-13.3,38.5-18.5,59.5-15.2,1.5.2,8.4,1.1,8,3.3-.3,1.5-4.6,1.1-6,1.5-6.1,1.8-16.6,14-22.1,18.3-7.5,5.9-16,8.5-25.5,9-7.6.4-20.1-2.8-26.6,1.2-1.2.7-13.5,13.7-14.6,15.3-4.1,5.7-7.7,15.5-11.5,22.1-9.5,16.3-21.6,30.7-33.9,45.1,8.4-3.1,17.5-6.7,25.5-10.8,13.8-7,26.1-17.1,40.2-23.5,23.5-10.6,54.3-15.7,80.1-16.6,2.6,0,12.7-.4,14.2.7.7.1.6,1.5.5,1.9-.1.4-7.1,3.4-8.5,4.3-15.8,9.5-27.9,22.2-44.7,30.2-19.4,9.1-50.3,14.7-71.6,14.6-4.1,0-8.2-1.1-12.7-.8-7.8.5-21,4.6-28.7,7.3-5.7,2-17.3,15.9-22.6,20.8-25.2,23.4-52.1,45.2-74.9,71-.6.7-5,5.8-4.5,6.3,2.2-.7,4.5-3,6.4-4.5,8.2-6.7,15.9-14.5,25.2-19.7,25.1-14.2,57.1-5.2,84.6-7.2,2.2,2.2-7.6,5.9-9.2,6.9-23.4,13.9-25.5,28.3-57.2,32.7-18.2,2.5-27.5-5.3-41.8-5.1-13.7.2-22.1,14.6-28.5,24.7-13.4,20.9-25,44.3-34.4,66.6-.8,1.8-2.3,4.9-1.7,6.5,19.4-19.2,44.9-31.4,71.4-37.1,16.2-3.5,41-7,57.5-7,3.4,0,3.2,2.7.5,3.6-1.6.5-3.5.3-5.6,1.1-15.7,5.8-25.2,22.4-38.8,31.5-15.7,10.5-34.5,16-53.5,14.6-9.9-.7-19.5-5-29.4-.1-1.2.6-7.2,5.1-7.7,5.9-3.9,7.1-7.8,25.2-9.5,33.7-3.6,17.4-7.6,37.7-9.9,55.2-1.9,14.7-2.5,29.6-2.4,44.4,5.3-4.6,10.3-10.1,12.8-16.8,4.7-13,3.9-20.3,13.8-31.8,21.2-24.6,48.2-22.2,74.5-35.6,3.7-1.9,8.1-5.9,11.6-7.1,2.9-1,1.9,1.8,1.1,3.4-3.1,6.4-11.7,20-16,25.8-10.9,14.3-36.9,36.1-53.5,43-10.3,4.3-21.4,6.2-31.1,12.3-4.6,2.9-12.5,9.7-13.1,15.3-.4,3.2.5,12,.8,15.7.4,5.8,1.5,11.8,2.2,17.6,16-3.9,23.5,10,26.6,23.2,3.5,14.7,2.7,29.2,1.4,44.1l62.7,148.7,21-62.4c13.5-36.5,28.1-72.6,44.9-107.6-38.9-27.2-19.8-81,12.1-105.3,7.8-5.9,34-19.7,43.2-21.2,4.2-.7,11-1.2,11.5,4.3,21.7-13.7,18.4,13.9,15,26.9,1.8.5,1.3-.5,1.7-.9,2.9-2.9,5.4-8.7,10.3-6.9,3,1.9,2.5,15,2.2,18.7-1.3,15.9-9.3,33.6-16.8,47.5-8.6,15.9-18.7,36.6-37.7,40.9-5.2,1.2-21.4,2.2-26.8,1.7-4.5-.4-8-3.1-12.3-3.7-22.1,47.9-42.2,96.9-58,147.4-1.9,6-8.2,23.2-6.9,28.3,1.7,6.5,7.3,16.7,10,23.7,1.9,4.9,3.9,9.9,4.7,15.1,1.1,0,1.1-1.1,1.5-1.8,3-5.9,5.3-13.4,8.1-19.6,16.1-35.5,39.5-68.6,72-90.8-2.3-9-4.9-15.9-.6-24.9,10.5-21.9,54.5-37.6,77.4-34.1,8.8,1.4,10.7,14.2,7.2,20.9,5.5.4,8.5,3.1,9,8.6,1.7,20.8-33.9,39.5-50.6,45.2-12.2,4.2-25.7,7.6-34.7-4.3-1.4-1.9-4.1-8.1-5.4-8.9-.6-.4-.9-.6-1.5,0-38.7,28.7-64.7,70-80.2,115.2,4.2,19.8,6.8,39.9,5.2,60.1,16.1-19.3,34.1-36.1,54.9-50.2,34.9-23.6,72.1-36.2,113.4-43.9,2.7-.2,6.8,0,6.4,3.7-.5.5-11,1.1-12.9,1.7-5.6,1.7-31.2,29.6-36.9,35.7-28.8,30.8-55.1,63.4-87.7,90.4-3.3,2.8-16.1,13.6-19,14.6-1,.4-2,.4-3,.3l.4-2.3c52.9-37.7,91.2-90.9,136.8-136.4-2.2-.6-5.1.4-7.4.9-56.6,12.2-110.4,45.3-145,91.6-2.6,26.7-12.9,61.7-30.6,82.4-8.5,9.9-14.5,2.2-13.4-8.1,1.2-11.1,22.8-47.4,29.6-58.7,2.6-4.3,7.4-9.7,9.3-13.9,2.4-5.2,1.9-26.8,1.5-33.7-.5-8.9-2.8-17.7-3.8-26.5l-1.1.7c-19.5,51.1-37.2,102.9-53.5,155.2-.6,22-.6,45.2,1.4,67.2.5,5.5,2.3,6.2,7.5,7.9,1.8,1.9-5.4,1.7-5.6,3-1.3,2,2.8,29.3,3.5,33.9,1.7,10.9,4.1,21.7,5.9,32.6l-3-.3c-5.5-22.4-7.9-45.6-10.8-68.5l-28.1-16.8-19.9-1.8c-11-1.4-20.7,3.4-30.9,5.8-19,4.4-53.8,3.9-72.7-1.1-11.5-3-20.1-8.4-30.7-12.7-3.3-1.3-23.2-6.8-23.4-8-.3-1.4,1.7-2.2,2.7-2.6,18.3-6.1,58.6-8.7,77.9-6.8,22.1,2.2,39.8,11.4,60.6,16.5,9,2.2,18.3,3.4,27.4,5.1l-31.5-24.3c-10.8-8.1-18.8-22-28-30.8-1.7-1.6-16.9-11.9-18.7-12.4-7.1-2.1-24.1,4.8-33.2,5.4-22.9,1.4-32.1-16.8-49.8-16-5.1.2-.3-3.3,1.7-4.3,12-5.6,30.5-8.3,43.5-6.5,20,2.8,35.5,15.6,51.4,26.8l-18.4-36.6c-16.8-11-30.3-26.6-31.8-47.5-1.4-19.9,7.4-45.1,1.7-63-.6-1.8-6.3-11.5-2.1-10.6,8.4,11.2,18.3,21.2,26.5,32.6,3.8,5.3,8.2,11.3,10.1,17.6,2.8,9.7,3.4,28,2.8,38.3-.5,8.4-4.8,21.7-3.6,29,.8,4.8,12.4,26.3,15.4,31.7,11.5,20.1,29,37.4,47,51.8,1.8-8.9-6.9-15-11-21.9-16.5-28.2-13.7-67.8-6.2-98.4,2.8-11.6,9.2-22.8,13.1-34.1,3.1-2.2,2.9,3.8,3.8,6.1,4.8,13.4,10.1,24.6,12.6,39.1,4,23.6-1,49.3-4.4,72.9-1.1,7.7-3.9,16.5-4.4,24-.3,4.3,1.4,15.8,4.5,18.6,5.2,4.8,16.9,11.7,23.2,15.7,7.2,4.5,14.7,8.8,22.4,12.4l-2.2-44.1-2.2.7c-8.8-61-37.5-117.6-44.1-179.1-2.8-26.4-.6-52,2.2-78.3,1.5-14,5.2-29.8,5.9-43.5,0-1.1.2-2.3-.4-3.4l-31.2-18.2c-8.7-.5-19.2-2.6-28-1.9s-18,4.6-26.6,6.4c-19.6,3.9-53.1,3.1-72.3-2.6-9.9-3-17.5-7.8-26.6-11.6-3.2-1.3-23.4-7.1-24-8.2-1-2.2,1.3-2.1,2.7-2.5,24.8-7.1,63.6-9.5,88.9-5.1,17.5,3,33.7,10.9,51,14.9,8.6,2,17.4,3.2,26.1,5l-20.6-15c-10.5-8.5-20.2-17.6-29.3-27.6-4-4.4-7.5-10.5-12-14.2-2.5-2.1-13-9.1-15.8-10.4-1.4-.7-2.5-1.2-4.1-1.2-6.5,0-16.7,4.3-23.7,5.4-10.7,1.6-18.3.9-27.9-3.9-8.4-4.1-18.3-13-27.7-11.2-2.8.5-2.9-1.3-.7-3,8.7-6.9,35.1-9.4,46-7.8,19.9,2.8,34.6,15.3,50.7,26.1l-18.1-36.1c-10.3-6.9-19.6-15-25.5-26.1-13.4-25.2-.6-50.9-2.8-77.1-.5-5.6-3-10.7-5.3-15.7l1.9-1.8c9.9,14,23.9,26.8,32.5,41.6,6.4,11.1,7.5,31.1,6.9,44-.4,9.2-5,24.1-3.7,32.1.4,2.7,8.7,18.7,10.6,22.4,12.7,24.5,30,44.4,52,61,1.1-8.7-6.7-14.6-10.7-21.4-20.7-34.8-13.2-95.9,5.2-130.6.9-1.7,1.2-3.2,3.6-2.7.4,6.5,4.1,12.1,6.2,18.1,13.3,38.1,8.9,60,3.4,98.8-1.3,8.9-5.2,21.6-5,30,0,.6,2.8,11,3.1,11.7,1.6,4.1,41.5,27.9,48,31.3.8.4,4.6,2.6,5,2.1l11.6-77.4-21.2-51c-5.9-3.3-6.3-10.3-7.4-16.5-4.4-22.9-4.5-49-3.2-72.3.2-4.1,2.7-18.1,2.1-20.7-.1-.5-4.9-8.9-5.4-9.6-5.4-6.8-17.1-2-24-1.5-11.5.9-18-.7-27.3-7.2-7.9-5.5-23.2-22.7-32.7-22.7s-16.2.5-16.9,0h0ZM147.2,15.4c-2.2,2.2.9,10,1.2,13,4.1,32.4,7.6,66.5,24.4,95.2,9.4,16.1,20.4,21.2,37.6,10.6,20.3-12.4,23.9-38.4,16.5-59.4-10.7-30.6-38.2-49.9-68.4-58.9-3.7-1.1-7.8-2.5-11.5-.5h0ZM143,19.9c-1-1.4-7.1-4.2-9.1-4-5.3.7-4.4,12-4.1,16,.3,3.3,2.7,15,4.1,17.6.5.9,5.1,5.9,6.3,7.2,3,3.3,6.4,6.4,9.8,9.3-3.1-11.1-3.1-22.6-4.6-33.9-.3-2.1-1.6-11.2-2.4-12.2h0ZM120.5,39.4l-2-1c-2.8,20.5,5.3,40.5,14.9,58.1,4.6,8.4,10.9,19.2,16.3,27.1,8,11.7,18.3,16.2,32.5,16.5-19.1-16.8-24.6-43.2-30.8-66.8l-30.9-33.9h0ZM365.1,90.7c-14.1-1.1-19.6,13.7-21.5,25.3-1.7,10.5-1.8,20.7-1,31.2,0,1.3,0,2.5,1.2,3.3,5.7-15.7,14.2-31.6,19.1-47.5,1.3-4.1,2.8-7.9,2.2-12.3h0ZM326.1,544.4c7.8-56.2,32.5-109.4,39.6-165.7,6.7-52.7-5.4-114.7-14.4-167.1-2.4-14-4.6-30.7-8-44.3-.2-1,0-1.9-1.1-2.6l-59.4,147.7c21.1,68.3,39.8,137.9,42.5,209.9.2,6.5-.3,13,0,19.5,0,.9-.6,2.8.7,2.6ZM102.8,209.6c10,12.3,35.3,36.5,51.3,38.1,16.1,1.6,28.2-7.2,25.8-24.2-1.8-12.6-26-26.1-37-30.4-9.5-3.7-29.1-8-38.8-5.8-8,1.8-8.3,13.2-4.4,18.8,20.5,2.7,41.2,6.9,60.4,14.7l-.8,1.5c-18.6-5.2-37.2-10.8-56.6-12.7ZM98.1,209c-2.3-1.3-6.4-.4-7.1,2.6-4.4,19.8,31.4,38.3,46.9,43.3,12.1,3.9,29,8.3,35.4-6.9.2-.4.1-1.3-.4-1.1-5.2,3.5-11.8,4.3-18,3.7-16.6-1.4-42-24.6-53.2-36.6-.9-.9-3.2-4.9-3.5-5.1h0ZM320.9,507.8c-2.6-49.9-13.8-98.8-27.2-146.7l-13.3-43.2c-5.4,13.8-11.4,27.4-14.1,42l26.9,69.7,27.7,78.1h0ZM443.1,499.6c.8.9,4.6-3.4,5.2-4.1,29.1-33.2,6.5-60.2-1.2-94.4-.6-2.8-.9-5.6-1.4-8.4-5,12.1-16.4,28.4-17.6,41.5-1.1,12,3.5,32.6,7.5,44.2,2.5,7.1,7,13.8,7.5,21.3h0ZM263.2,432.3c1.7,19.9,8.9,38.7,18.6,55.8,1.8,3.2,11.5,19.1,13.6,20.1,4.3,2,5.3-3.5,5.3-6.7-.1-9.5-18.4-39.6-24.2-49.2l-13.3-20h0ZM87.8,542.9c-.8-6.4,1.4-12.2,2.2-18.4,1.6-13,1.9-27.3,0-40.3-2.4-17-18.8-32.3-29.2-45.2,0,1.4.7,2.5.8,4.1,1,21.7-6.6,44.6-1.8,65.3,3.2,13.7,15.3,28.5,28,34.5h0ZM395.1,584.8c5.4-7.3,7.8-17.6,8.9-26.6,2.2-18.1,0-32.4-5.7-49.4-6.8-20.4-15.7-39.3-29.1-56.2-1.1.5-2.3,9.2-2.5,10.9-3.1,23.7-1.9,41,5.9,63.4,6.7,19.5,15.5,38.5,22.5,57.9h0ZM153.8,614.7l10.6-76.6c-.7-10.7-1.9-20.2-4.6-30.6-2.4-9.4-5.8-18.7-10.1-27.4-9.8,19.1-14.1,40.4-16.1,61.7-2.4,25.4,2.5,53.8,20.2,72.9h0ZM451.3,531h25.9c1,0,8.7-2,10.3-2.5,12.3-3.8,18.7-16.5,29.8-22.2l-.4-1.5c-9.6-.7-18.8-.5-28.3,1.7-14,3.3-24.6,10.9-34.7,20.7-.3.3-3.2,3.2-2.6,3.7h0ZM313.4,654.3c2-22.6-.7-47.1-7-68.9-5-17.4-14-32.3-26.4-45.4-7.1-7.6-15.6-15-25.1-19.4,8.2,9.5,6.2,22.4,7.5,34,2,17.9,7.2,45.6,17.4,60.4,5.7,8.3,15,20.3,21.6,27.8,3.7,4.1,8.3,7.4,12,11.6h0ZM87.1,575.1c-19.7-16.7-46.4-18.8-70.4-10.4l27.2,14.3c14.3,5.5,29-1.5,43.2-3.9ZM539,570.6c-32,.4-65.4,5-93.7,20.5-8.5,4.7-16.5,10.7-25,15.5l-17,8.8c11.3-1.9,22.7.9,34.1,0,30-2.3,64.2-14.3,86.3-35l15.2-9.8h0ZM154.5,646.1c-21.2-2.5-40.3-13.4-61.3-17-21-3.6-43.9-2.2-64.9.6-5.9.8-11.7,2.4-17.7,2.9.2,1.3,1.5,1.3,2.4,1.7,18.6,8.2,43.7,19.4,63.9,20.7,13.7.9,28.2-.5,41.9-.7l35.6-8.2h0ZM302.9,668.5c-6.2-18.1-24.7-27-41.2-33.6,3.9,9.6,6.1,20.5,13.1,28.4,7.7,6.3,20.2-.2,28.1,5.2h0ZM226.5,789.6c6.3-31.3,15.7-63.7.3-94.1-6-11.9-22.3-26.2-32.9-34.5-.9-.7-8.1-5.7-8.6-5.2,1.4,2.1,2.6,4.7,2.9,7.2,3.9,25.9-3.6,55,11.9,77.8,5.3,7.7,12.4,13.5,17,21.9,4.9,8.8,5.8,15.4,8.1,24.8.2.7.2,2.3,1.3,2.1h0ZM386.1,695.4l-37.9-1.5c-6.7,1.1-13.1.5-19.9,1.9-17.5,3.6-30.6,16.7-43.5,28,14.1.2,25.5,6.3,40.1,5.2,19.7-1.4,34.5-9.3,47.2-23.9l13.8-9.7h0ZM191.2,886.8c-2.6-17.6-8.9-32.8-17.1-48.3-9.9-18.8-21.6-38-38.7-51.1-8.8-6.7-19.4-10.4-28.1-17.2,6.2,15.9,9.2,32.9,16.1,48.6,6.1,13.7,21.3,36.9,34.8,43.8,11.6,5.9,18.8,10.2,28.4,19.5,1.5,1.5,2.4,3.9,4.6,4.8h0ZM339.6,784.4c-40.9,2.6-85.1,11.5-113.9,42.6,12.9-4.2,26.2,2.1,39.3,1.5,27.5-1.3,50.3-19.8,67.8-39.2l6.8-4.8ZM186,906.2c-4.8-8.1-14.1-12.8-22.8-15.7-15-5-33.3-8.8-49.1-9.7l24.1,19.7c14.6,13.3,31.2,3.4,47.9,5.7h0ZM302.9,886.1c-.3-.3-6.5,3.3-7.7,3.9-25.2,10.9-51.6,11.4-70.6,33.5-9.1,10.6-11,22.1-14.6,35.1,4.9-1.9,9.6-4.2,14.6-6,13-4.7,19.3-6.7,30.9-14.8,19.7-13.6,37.2-29.7,47.4-51.7h0ZM412.9,933.3c-6.1.7-27.4,10.9-33.6,14.4-28.8,16-54.3,57.5-37.6,89.9,7.2,13.9,28.3,29.4,43.2,18.2,22.6-17.1,32.1-88.2,34.1-115.5.1-1.7.5-4.8-.7-6-1.7-1.3-3.4-1.2-5.4-.9h0ZM87.8,1038.5c-.9-6.7,1.4-12.8,2.2-19.2,1.5-13.1,1.9-27.2,0-40.3-2.4-17.1-18.8-32.3-29.2-45.2,0,1.4.7,2.5.8,4.1.9,20.3-4.6,38.4-3,58.3,1.3,17.5,14.4,33.7,29.2,42.2h0ZM416.9,985.5c4.2-5.6,14.1-13,16.3-19.3,2.1-6.1,4.9-23.7,1.9-29.1-2.3-4.2-10-1-12,1.5-2.3,2.8-2.7,22.2-3.2,27.1-.7,6.6-2.2,13.2-3,19.8h0ZM386.1,1059.5c7.5,0,14.5-1.8,20.9-5.7,7.2-4.4,9.9-9.7,14.1-16.5,14.5-23.3,30.6-51.9,26.4-80.2l-32.2,35.5c-5.4,23.5-11.2,49.7-29.2,66.9h0ZM153.8,1109.5c.5-8.8,3.1-17.2,4.4-25.9,2.9-18.9,7.3-44.7,5.3-63.3-1.7-15.6-7.4-31.1-13.8-45.3-9.6,19.1-14.1,40.4-16.1,61.7-2.5,25.9,2.4,51.2,18.5,71.9.5.6,0,1.4,1.7.9h0ZM225,1073.7c1.5-14.4,1.5-45.6-10.1-56.1-6.6-6-17.1-7.8-11.6,4.9l21.8,51.2ZM87,1069.9c-20.2-16.4-46.2-18.5-70.4-10.4l26,14.1c14.4,6.1,30.1-.7,44.5-3.6ZM226.5,1087.1c-1.1-1.2-1.3.1-1.5,1.1-3.6,24-7.6,47.9-11.1,71.9l2.8,3.9-3.8,1.2c-2.3,25.4-7.2,50.7-9,76.1-4.4,65,16.9,121.6,35,182.6l9.9,41.3c-.3-29.3,1.4-58.7,5.4-87.7,6.7-48.8,20.4-96.3,33.5-143.6l-61.4-146.9h0ZM469.1,1124.3c9.4-21.3-9.9-19.9-24.7-17.5-21,3.4-67.2,24.2-52.2,51.6,3.4,6.3,14.4,9.2,21.3,8.7,14.7-1.1,40-23.2,49.5-34.4.6-.7,3.9-4.6,3.4-5.2-11.9,2.3-23.7,4.5-35.4,7.7-7.2,2-14.3,5-21.6,6.5v-2.2c19.3-7.5,39.5-11.6,59.8-15.2h0ZM154.5,1141c-20-1.8-38.3-12.2-57.7-16.1-21.2-4.2-45.6-3.1-67-.2-6.2.8-12.2,2.5-18.5,2.9-.3,1.9.3,1.2,1.1,1.6,4.8,2.4,10.5,3.4,15.4,5.6,32.9,13.9,47.9,17.9,85.1,15.3l41.6-9h0ZM396.6,1167.1c7.8,18,29.4,9.5,43,3.6,10.6-4.6,36-20.2,38.4-32,1.2-5.9,1.1-13.9-7-11.8-9.3,13.2-22.8,25.6-36.3,34.4-12.3,8-23.6,12-38,5.8h0ZM253.4,1430.2c15.6-50.1,33.2-99.5,51.6-148.6-2-14.6-9.4-28.1-14.1-42-1.7.8-2.1,3.5-2.6,5.2-17.7,55.7-29.6,115.6-34.9,173.8v11.6s0,0,0,0ZM132,1393.6c-.8-5.7,1.3-10.9,2-16.3,2-14.7,3.4-41.3-3.4-54.5-5.9-11.5-16.7-22.3-24.8-32.4-.4,2.7.8,5.2.8,7.8-.2,22.4-8.9,46.2,0,67.9,4.4,10.8,14.6,22.5,25.4,27.4h0ZM198,1466.1c.7-8.5,3.1-16.7,4.4-25.1,5.9-38.5,10.4-64.8-4.6-102.1-1-2.6-2.3-6.4-4.3-8-2.8,9.6-7.9,18.4-10.3,28.2-7.2,30.3-9.9,68.4,6.7,96.1l8.1,11h0ZM308.9,1353.2c-4.8,8.4-10.3,16.4-15.1,24.9-4.7,8.3-21.3,37.7-20.8,45.6.2,2.7,2.1,8.1,5.6,5.8,3.2-2.1,11.7-17.1,14-21.2,8.7-16.2,15.3-34.1,17-52.5,0-.8.7-2.7-.6-2.5h0ZM131.3,1425.7c-19.4-16.3-46.1-18.7-69.7-10.4,0,.9,1.1,1.2,1.7,1.6,6.7,4.2,24.5,13.9,31.7,14.7,12.3,1.3,24.5-3.3,36.3-5.9h0ZM198,1496.8c-21.2-2.1-40.5-13.5-61.3-17-21.7-3.6-50.6-1.9-72.3,2.3-2.8.5-6.4.8-8.8,2.4,17.8,5.8,33.8,15.7,52.5,19.4,17,3.4,34.1,2,51.3,1.9l38.6-9h0Z"/>
  </g>
</svg>