<?xml version="1.0" encoding="UTF-8"?>
<svg id="Camada_2" data-name="Camada 2" xmlns="http://www.w3.org/2000/svg" viewBox="0 0 546.75 1581.12">
  <defs>
    <style>
      .cls-1 {
        fill: #093a16;
      }
    </style>
  </defs>
  <g id="Camada_1-2" data-name="Camada 1">
    <path class="cls-1" d="M86.42,871.94c-.11-.08-.85-1.91,0-2.61,4.45-3.71,11.85-.61,16.88-.39,10.28.44,18.48-.18,28.86,1.87,14.64,2.9,42.63,9.6,52.44,21.02,3.12,3.63,3.83,8.73,7.5,11.6-.76-6.96.33-14.19-3.14-20.47-3.1-5.62-18.63-19.73-24.35-22.88-3.07-1.69-6.16-1.96-9.26-3.48-16.33-7.99-33.24-37.56-39.51-54.19-5.07-13.44-7.44-31.31-14.56-43.16-.83-1.38-7.68-8.02-3.97-8.76,1.61-.32,12.66,9.97,15.25,11.72,6.06,4.1,13.38,7.05,19.52,11.21,21.28,14.43,34.5,37.19,46.18,59.52,10.41,19.9,15.94,42.06,16.86,64.48l9.95-50.39c2.02-6.87,4.15-13.72,6.52-20.47,5.41-15.42,11.89-23.85,10.5-41.21-.88-10.96-5.17-25.24-11.37-34.36-12.42-18.25-22-21.22-24.59-46.63-1.43-14.06,1.4-45.13-4.66-56.07-2.45-4.41-4.04-6.73-9.23-7.26-6.4-.65-17.73-1.31-23.96-.75-10.15.92-21.08,6.1-31.5,7.48-18.54,2.44-46.68,1.57-64.65-3.54-10.11-2.88-17.13-7.49-26.2-11.28-8.29-3.46-17.28-5.62-25.69-8.79-.18-1.29-.04-1.99,1.28-2.46,7.18-2.52,21.25-4.27,29.18-5.3,22.12-2.87,44.32-3.7,66.23,1.01,15.26,3.28,29.53,10.03,44.64,13.82,8.98,2.25,18.26,3.39,27.3,5.29-10.59-7.99-21.62-15.43-31.49-24.35-15.47-13.97-25.23-30.37-43.21-41.5-4.97-3.08-5.92-3.02-11.52-2.02-14.32,2.55-25.85,8.54-40.96,3.53-8.69-2.88-22.55-14.58-30.71-14.87-1.48-.05-5.09,1.95-5.5.11-.5-2.22,1.73-2.77,3.23-3.5,12.26-5.99,31.6-8.51,45.01-6.51,19.51,2.91,34.26,15.45,49.94,26.14l-17.93-36.97c-12.41-6.54-25.18-20.28-29.31-33.85-7.96-26.15,6.6-53.48-1.27-77.44-.94-2.85-5.34-8.3-1.34-9.16,9.95,13.99,24.1,26.76,32.47,41.75,8.77,15.69,7.34,40.68,5.27,58.21-.72,6.1-3.11,11.56-2.08,18.06.42,2.7,8.9,19.28,10.8,22.93,12.68,24.29,30.14,43.95,51.74,60.7,1.23-8.9-6.65-14.7-10.72-21.51-17.55-29.34-14.77-77.23-3.91-108.57,2.16-6.23,6.29-17.45,9.18-23.06.83-1.62,1.65-2.3,3.57-2.05,2.17,10.26,7.21,19.71,10.12,29.99,8.91,31.48,4,55.69-.48,87.23-2,14.08-7.84,27.92-1.78,41.72,1.42,3.23,20.16,14.86,24.43,17.55,10.91,6.86,22.22,13.27,33.66,19.19-.65,1.14-4.93,2.57-5.95,2.66-1.32.12-1.99-2.05-3.04-.8,9.72,8.35,18.66,17.56,23.59,29.63,13.47,32.93,2.31,65.91-4.1,98.94l16.35-31.24c12.01-21.07,25.32-41.56,41.72-59.48,2.91-3.18,22.32-21.23,22.56-22.82.94-6.18-5.87-14.69-12.04-15.42-6.64-.79-13.87,1.37-20.4-1.33-10.04-4.16-12.05-22.25-17.32-30.65-.93-1.48-4.85-4.85-4.64-5.84.83-1.08,1.1-1.21,2.45-1,2.26.36,7.91,2.33,10.27,3.25,5.7,2.23,15.07,7.14,20.19,10.55,12.08,8.04,18.41,19.95,23.31,33.29l1.46-4.98c-3.03-4.47.52-8.21.01-12.56-.71-6.03-8.23-10.28-11.96-14.34-7.22-7.86-24.1-29.38-28.11-38.61-6.44-14.81-10.59-36.71-12.39-52.83-.98-8.76.27-19.22-3.61-27.12-.92-1.88-10.78-13.07-4.6-11.93,16.19,2.97,40.52,31.27,48.54,45.2,11.13,19.33,15.11,44.17,16.64,66.2,1.16.02,1.24-2.59,1.39-3.47,4.33-25.92,6.16-66.66,4.63-92.89-1.07-18.32-15.17-51.84-21.75-70.45-11.25-31.8-23.74-63.13-35.25-94.81l-2,6.6c-3.05,17.24-3.04,34.78-1.7,52.21,12.81,18.98,25.4,39.07,35.59,59.62,3.19,6.44,9.89,20.55,2.78,26.27-6.89,5.54-14.22-8.79-17.43-13.86-11.69-18.46-17.94-34.26-22.23-55.73-.87-4.35-.96-9.86-1.91-13.84-1.37-5.78-25.26-29.29-30.95-34.26-26.26-22.94-60.06-41.23-93.47-51.2-9.99-2.98-20.21-5.59-30.55-6.93,9.06,9.42,18.72,18.29,27.75,27.72,29.63,30.96,56.93,63.9,90.32,91.09,5.67,4.62,16.14,10.8,20.6,15.38,1.72,1.76,2.43,3.32-.81,3.07-46.2-30.78-80.65-74.81-119.11-114.03-4.94-5.03-21.22-22.37-26.44-24.53-2.64-1.09-14.33-1.23-14.8-3.2-.3-1.28,1.8-2.22,2.78-2.45,3.56-.81,22.92,3.58,27.97,4.68,57.14,12.43,108.11,41.36,145.37,86.61-.63-16.45.25-31.89,2.47-48.14.43-3.17,1.89-6.93,2.03-9.99.36-7.49-15.57-38.49-20.11-46.58-15.77-28.1-36.93-51.48-62.72-70.7-8.68,18.08-18.01,21.19-36.94,15.94-17.45-4.83-57-24.26-54.8-46.23.54-5.43,3.33-8.37,8.92-7.97-4.44-8.24-1.86-20.53,8.62-21.73,20.75-2.37,48.38,7.19,64.44,20.26,12.8,10.42,18.07,21.28,10.89,37.45,39.65,26.3,66.35,67.83,83.21,111.71l15.6-41.02c-17.77-59.41-41.2-117.05-68.45-172.64-1.35-1.51-4.44,1.13-6.53,1.72-11.29,3.22-32.73,2.14-43.26-3.63-11.81-6.46-30.4-39.4-36.15-52.3-5.13-11.49-12.25-34.68-9.1-46.84,2.67-10.31,9.84,1.72,13.72,4.36l-3.02-18.4c.86-7.03,1.35-13.28,10.16-12.36,3.37.35,4.7,2.86,7.85,3.02,0-3.32,3.47-4.47,6.37-4.57,9.84-.32,40.65,15.13,49.04,21.5,27.86,21.12,48.22,66.93,22.18,97.03-1.48,1.71-8.5,7.4-8.49,8.46,26.05,54.57,49.58,110.54,67.33,168.45l1.52-1.84,59.59-148.08c-2.89-17.77-4.45-72.31,24.74-68.26,4.72.66,3.04,5.19,2.25,9.07-4.1,20.18-18.25,42.56-24.15,62.65,10.74,75.84,34.67,156.06,21.25,232.82-7.81,44.7-24.51,87.97-34.01,132.41-.88,4.11-2.78,20.09-3.94,22.15-.53.93-2.1.06-2.33.9.53,24.51-1.15,49-3.79,73.33-2.14,19.67-5.11,39.42-8.15,58.93.52.52,6.02-4.2,6.76-4.85,22.31-19.9,50.91-44.03,69.68-66.75,5.74-6.95,3.41-8.89,4.22-17.61-13.23-37.27-33.8-71.2-31.96-112.1.42-9.42,2.58-18.5,3.8-27.75.26-1.97-1.7-4.94,1.47-5.22,2.16.9,19.19,26.77,21.12,30.62,14.41,28.77,24.64,63.26,16.3,95.29-2.34,8.97-8.71,16.45-6.68,25.92,15.27-17.66,28.26-39.62,34.84-62.22,1.93-6.63,7.59-26.77,7.73-32.6.13-5.92-5.25-15.04-7.36-20.99-5.46-15.36-11.26-38.4-6.93-54.19,4.44-16.21,15.32-31.19,21.37-46.84.21-.56,1.37-2.06,1.69-2.05,3.06.08-.19,9.43-.36,11.62-1.23,15.62,9.1,31.88,12.97,46.23,7.42,27.51,2.61,47.62-17.29,67.9l-9.18,39.17c8.84-8.15,15.3-18.25,24.72-25.87,16.48-13.35,38.51-18.51,59.51-15.27,1.48.23,8.38,1.11,7.95,3.27-.29,1.48-4.56,1.06-6.02,1.48-6.13,1.76-16.57,14.02-22.1,18.37-7.47,5.89-15.96,8.48-25.47,9.01-7.63.42-20.08-2.77-26.57,1.16-1.16.7-13.46,13.78-14.6,15.39-4.08,5.74-7.66,15.55-11.54,22.2-9.55,16.39-21.65,30.81-33.86,45.22,8.43-3.09,17.46-6.73,25.5-10.85,13.81-7.07,26.06-17.14,40.19-23.52,23.54-10.64,54.29-15.72,80.06-16.63,2.61-.09,12.71-.38,14.21.71.69.13.59,1.51.46,1.94-.14.45-7.13,3.45-8.49,4.27-15.76,9.49-27.87,22.27-44.72,30.24-19.37,9.16-50.29,14.79-71.63,14.63-4.06-.03-8.18-1.08-12.74-.81-7.79.46-21.02,4.64-28.68,7.3-5.73,1.99-17.32,15.91-22.62,20.85-25.19,23.48-52.13,45.32-74.94,71.23-.65.74-5.03,5.83-4.51,6.35,2.21-.74,4.5-2.99,6.35-4.51,8.19-6.72,15.9-14.51,25.19-19.79,25.07-14.23,57.12-5.2,84.63-7.18,2.19,2.21-7.61,5.93-9.21,6.89-23.4,13.99-25.49,28.41-57.19,32.76-18.23,2.5-27.51-5.3-41.78-5.11-13.68.18-22.06,14.61-28.53,24.74-13.38,20.95-24.98,44.45-34.38,66.84-.76,1.8-2.28,4.96-1.66,6.56,19.35-19.22,44.85-31.49,71.44-37.25,16.23-3.51,41.05-7,57.52-7.02,3.43,0,3.18,2.73.54,3.61-1.62.54-3.55.32-5.65,1.09-15.74,5.8-25.2,22.5-38.84,31.62-15.74,10.53-34.53,16.09-53.51,14.67-9.86-.74-19.53-4.99-29.38-.12-1.25.62-7.25,5.11-7.72,5.96-3.93,7.14-7.79,25.27-9.52,33.76-3.55,17.42-7.64,37.83-9.87,55.35-1.88,14.72-2.5,29.67-2.35,44.5,5.27-4.62,10.33-10.13,12.76-16.84,4.73-13.03,3.91-20.37,13.83-31.9,21.25-24.7,48.16-22.23,74.5-35.69,3.69-1.89,8.11-5.94,11.59-7.17,2.9-1.03,1.89,1.77,1.12,3.39-3.07,6.45-11.66,20.1-16.05,25.92-10.86,14.39-36.94,36.23-53.54,43.16-10.31,4.3-21.35,6.21-31.11,12.36-4.64,2.92-12.5,9.69-13.11,15.37-.35,3.24.49,11.99.77,15.75.44,5.86,1.53,11.8,2.25,17.63,16.01-3.96,23.47,9.99,26.61,23.23,3.51,14.78,2.7,29.29,1.41,44.26l62.67,149.16,20.96-62.61c13.5-36.58,28.08-72.79,44.9-107.95-38.9-27.23-19.84-81.26,12.15-105.62,7.81-5.95,34.02-19.79,43.21-21.25,4.22-.67,11.01-1.17,11.45,4.32,21.7-13.71,18.37,13.92,14.98,26.98,1.75.53,1.3-.53,1.71-.95,2.86-2.91,5.35-8.68,10.29-6.92,3.03,1.88,2.52,15.09,2.23,18.74-1.28,15.93-9.31,33.72-16.84,47.63-8.6,15.9-18.67,36.72-37.7,41.01-5.19,1.17-21.44,2.19-26.77,1.7-4.53-.42-7.97-3.08-12.32-3.69-22.1,48.06-42.24,97.2-57.97,147.81-1.87,6.03-8.24,23.26-6.94,28.34,1.67,6.53,7.3,16.77,9.95,23.78,1.87,4.94,3.92,9.9,4.69,15.18,1.08-.07,1.15-1.15,1.51-1.85,3.01-5.92,5.28-13.42,8.09-19.65,16.06-35.6,39.52-68.83,72.04-91.02-2.27-9.01-4.93-15.9-.61-24.95,10.47-21.92,54.49-37.7,77.44-34.15,8.76,1.36,10.71,14.23,7.17,20.93,5.5.37,8.55,3.11,9,8.64,1.72,20.85-33.93,39.65-50.59,45.36-12.16,4.17-25.73,7.59-34.74-4.27-1.43-1.89-4.14-8.11-5.36-8.9-.63-.41-.89-.59-1.52,0-38.72,28.81-64.71,70.17-80.16,115.56,4.17,19.82,6.78,40.03,5.23,60.26,16.08-19.35,34.06-36.24,54.92-50.39,34.85-23.65,72.07-36.31,113.37-44.07,2.72-.23,6.84.07,6.35,3.75-.46.47-11.02,1.12-12.93,1.69-5.59,1.69-31.21,29.67-36.93,35.78-28.81,30.85-55.06,63.59-87.7,90.7-3.34,2.77-16.12,13.63-19.05,14.68-.99.36-2,.41-3.04.33l.36-2.26c52.91-37.78,91.22-91.2,136.8-136.81-2.23-.65-5.11.4-7.36.89-56.65,12.23-110.36,45.43-144.98,91.89-2.6,26.74-12.86,61.9-30.56,82.63-8.48,9.93-14.48,2.16-13.39-8.15,1.17-11.14,22.78-47.54,29.59-58.86,2.6-4.33,7.36-9.68,9.34-13.9,2.44-5.23,1.86-26.92,1.46-33.76-.52-8.93-2.79-17.76-3.75-26.62l-1.12.75c-19.47,51.28-37.22,103.22-53.53,155.62-.62,22.03-.61,45.38,1.45,67.4.52,5.51,2.3,6.21,7.48,7.9,1.84,1.9-5.45,1.75-5.65,2.96-1.28,1.96,2.82,29.41,3.52,34.01,1.68,10.96,4.15,21.79,5.87,32.73l-3.04-.32c-5.46-22.42-7.86-45.7-10.8-68.66l-28.09-16.89-19.9-1.83c-11.02-1.37-20.69,3.38-30.94,5.77-18.98,4.42-53.77,3.92-72.7-1.07-11.53-3.04-20.14-8.41-30.7-12.78-3.26-1.35-23.16-6.85-23.43-8.06-.31-1.41,1.65-2.22,2.67-2.56,18.34-6.11,58.6-8.73,77.89-6.79,22.14,2.22,39.76,11.41,60.62,16.58,9.01,2.23,18.33,3.46,27.45,5.14l-31.49-24.35c-10.84-8.12-18.82-22.03-27.99-30.86-1.66-1.6-16.95-11.91-18.68-12.42-7.11-2.12-24.14,4.86-33.16,5.4-22.89,1.36-32.05-16.82-49.85-16.06-5.13.22-.33-3.34,1.74-4.31,12.01-5.63,30.49-8.32,43.53-6.52,20.02,2.76,35.54,15.67,51.42,26.9l-18.4-36.69c-16.85-11.06-30.31-26.64-31.8-47.66-1.41-19.91,7.38-45.24,1.7-63.17-.56-1.76-6.3-11.55-2.1-10.66,8.44,11.2,18.35,21.31,26.48,32.74,3.81,5.35,8.25,11.32,10.07,17.66,2.8,9.75,3.42,28.12,2.8,38.42-.51,8.38-4.82,21.73-3.56,29.07.82,4.78,12.35,26.37,15.43,31.79,11.5,20.19,29.01,37.54,46.98,51.97,1.84-8.92-6.95-15.05-11-21.98-16.49-28.3-13.68-67.95-6.25-98.71,2.8-11.61,9.2-22.84,13.08-34.15,3.14-2.23,2.94,3.81,3.75,6.08,4.77,13.42,10.08,24.71,12.55,39.18,4.02,23.62-1.01,49.41-4.37,73.12-1.1,7.75-3.89,16.51-4.38,24.11-.28,4.3,1.44,15.86,4.53,18.69,5.21,4.77,16.88,11.75,23.25,15.72,7.18,4.48,14.74,8.84,22.42,12.43l-2.25-44.23-2.24.75c-8.84-61.22-37.5-117.9-44.13-179.64-2.84-26.46-.64-52.2,2.25-78.53,1.54-14.01,5.19-29.9,5.92-43.6.06-1.11.23-2.35-.38-3.36l-31.17-18.29c-8.74-.53-19.24-2.6-28.04-1.92s-18,4.64-26.61,6.37c-19.61,3.94-53.11,3.12-72.35-2.62-9.94-2.97-17.47-7.81-26.61-11.62-3.23-1.35-23.44-7.11-23.96-8.27-.97-2.17,1.27-2.1,2.71-2.51,24.8-7.12,63.56-9.52,88.87-5.12,17.52,3.05,33.71,10.9,50.97,14.99,8.6,2.04,17.44,3.21,26.09,5l-20.58-15.02c-10.52-8.48-20.22-17.69-29.27-27.7-3.96-4.38-7.5-10.54-12-14.24-2.53-2.08-13.03-9.15-15.81-10.42-1.44-.66-2.47-1.18-4.11-1.18-6.53-.02-16.69,4.36-23.71,5.4-10.69,1.58-18.26.9-27.93-3.92-8.35-4.16-18.32-13.04-27.68-11.2-2.78.55-2.86-1.34-.74-3.01,8.74-6.87,35.11-9.38,45.96-7.83,19.91,2.84,34.61,15.39,50.67,26.15l-18.09-36.25c-10.33-6.96-19.58-15.04-25.51-26.22-13.4-25.27-.56-51.08-2.84-77.37-.49-5.65-3.04-10.69-5.27-15.76l1.86-1.83c9.92,14.04,23.94,26.86,32.47,41.75,6.39,11.16,7.52,31.22,6.92,44.12-.43,9.21-5,24.16-3.73,32.16.43,2.74,8.65,18.75,10.55,22.43,12.67,24.54,30.03,44.54,51.99,61.2,1.1-8.76-6.68-14.69-10.72-21.51-20.7-34.92-13.2-96.19,5.19-130.95.92-1.74,1.17-3.17,3.65-2.72.39,6.52,4.1,12.13,6.2,18.17,13.3,38.25,8.94,60.22,3.44,99.05-1.26,8.92-5.19,21.67-5.01,30.11.01.61,2.77,11.04,3.07,11.78,1.65,4.11,41.47,27.99,48.02,31.44.83.44,4.59,2.59,5,2.12l11.63-77.62-21.19-51.13c-5.9-3.28-6.27-10.34-7.44-16.55-4.36-22.99-4.54-49.1-3.23-72.47.23-4.12,2.74-18.15,2.11-20.8-.13-.54-4.92-8.95-5.45-9.61-5.41-6.8-17.06-2-24.04-1.47-11.48.87-17.98-.74-27.28-7.18-7.92-5.48-23.23-22.8-32.67-22.8-2.36,0-16.18.49-16.86,0ZM145.82,4c-2.21,2.19.86,10.02,1.24,13.02,4.07,32.49,7.56,66.65,24.42,95.52,9.45,16.18,20.35,21.22,37.64,10.63,20.31-12.45,23.9-38.48,16.54-59.56-10.71-30.67-38.21-50.05-68.38-59.05-3.66-1.09-7.8-2.54-11.46-.55ZM141.67,8.54c-1.04-1.43-7.13-4.26-9.11-3.98-5.26.72-4.43,12.06-4.07,16.04.3,3.26,2.73,15.08,4.08,17.66.49.93,5.11,5.87,6.3,7.19,2.97,3.32,6.43,6.4,9.76,9.35-3.07-11.1-3.06-22.69-4.58-34.02-.28-2.09-1.63-11.21-2.38-12.24ZM119.16,28.07l-2-1c-2.76,20.51,5.29,40.57,14.85,58.23,4.58,8.46,10.91,19.28,16.31,27.17,8.01,11.71,18.29,16.27,32.54,16.55-19.15-16.89-24.62-43.3-30.83-66.99l-30.88-33.96ZM363.75,79.54c-14.15-1.12-19.62,13.7-21.52,25.33-1.72,10.53-1.78,20.71-1.01,31.31.09,1.28-.08,2.48,1.17,3.33,5.67-15.75,14.16-31.67,19.12-47.59,1.28-4.11,2.77-7.94,2.24-12.38ZM324.77,534.58c7.81-56.33,32.47-109.73,39.63-166.15,6.7-52.83-5.38-115.04-14.37-167.58-2.41-14.09-4.63-30.83-8.01-44.47-.25-1-.02-1.94-1.13-2.62l-59.37,148.17c21.11,68.52,39.75,138.28,42.54,210.51.25,6.49-.3,13.04-.03,19.53.04.91-.57,2.79.74,2.61ZM101.42,198.74c10.02,12.36,35.31,36.57,51.35,38.22,16.07,1.65,28.17-7.2,25.78-24.29-1.77-12.67-25.99-26.16-37.02-30.45-9.5-3.7-29.06-7.99-38.83-5.82-7.96,1.76-8.32,13.27-4.36,18.87,20.53,2.73,41.25,6.95,60.43,14.7l-.79,1.5c-18.61-5.23-37.21-10.83-56.56-12.73ZM96.76,198.15c-2.26-1.29-6.45-.45-7.13,2.65-4.36,19.85,31.44,38.43,46.86,43.45,12.09,3.93,29.02,8.36,35.38-6.92.18-.44.14-1.27-.36-1.11-5.21,3.51-11.81,4.27-17.98,3.73-16.6-1.44-41.98-24.65-53.24-36.71-.88-.95-3.25-4.94-3.52-5.09ZM319.52,497.85c-2.62-50.04-13.81-99.05-27.19-147.09l-13.27-43.31c-5.35,13.79-11.42,27.49-14.11,42.15l26.86,69.91,27.71,78.35ZM441.7,489.6c.77.89,4.58-3.4,5.22-4.14,29.07-33.32,6.48-60.4-1.25-94.66-.63-2.79-.91-5.6-1.35-8.41-4.96,12.12-16.44,28.53-17.65,41.58-1.12,12.07,3.45,32.69,7.51,44.28,2.49,7.11,7.02,13.83,7.51,21.35ZM261.82,422.14c1.66,19.92,8.85,38.78,18.6,55.98,1.81,3.2,11.48,19.12,13.64,20.11,4.33,2.01,5.33-3.55,5.28-6.76-.14-9.52-18.39-39.76-24.18-49.32l-13.34-20.01ZM86.42,533.08c-.82-6.42,1.41-12.28,2.15-18.47,1.55-13.03,1.9-27.33.1-40.37-2.36-17.08-18.78-32.39-29.22-45.36.07,1.44.72,2.55.79,4.07.99,21.81-6.61,44.75-1.8,65.52,3.18,13.75,15.26,28.61,27.98,34.6ZM393.74,575.07c5.38-7.32,7.79-17.63,8.89-26.71,2.21-18.14,0-32.47-5.7-49.59-6.81-20.44-15.74-39.43-29.06-56.39-1.09.48-2.29,9.18-2.52,10.97-3.06,23.73-1.88,41.07,5.88,63.63,6.74,19.6,15.52,38.58,22.51,58.09ZM152.38,605.06l10.57-76.84c-.71-10.7-1.93-20.29-4.62-30.68-2.44-9.41-5.81-18.72-10.06-27.43-9.79,19.12-14.11,40.51-16.11,61.86-2.38,25.47,2.48,53.93,20.23,73.09ZM449.95,521.09h25.86c1.04,0,8.72-1.97,10.28-2.46,12.27-3.84,18.69-16.52,29.81-22.29l-.37-1.49c-9.57-.72-18.84-.47-28.26,1.72-14.01,3.26-24.61,10.98-34.71,20.79-.33.32-3.24,3.25-2.61,3.73ZM312.03,644.79c1.97-22.64-.69-47.26-6.95-69.13-4.99-17.43-14.05-32.4-26.38-45.58-7.14-7.63-15.59-15.02-25.12-19.47,8.22,9.54,6.21,22.46,7.5,34.1,1.98,17.93,7.2,45.71,17.37,60.59,5.67,8.3,14.95,20.4,21.62,27.85,3.72,4.16,8.3,7.42,11.96,11.64ZM85.68,565.32c-19.73-16.74-46.42-18.89-70.45-10.48l27.22,14.37c14.33,5.5,29.04-1.53,43.23-3.89ZM537.64,560.83c-31.96.4-65.44,5.06-93.7,20.59-8.54,4.69-16.45,10.74-24.97,15.51l-16.99,8.86c11.32-1.94,22.7.88,34.09,0,30.04-2.31,64.23-14.3,86.33-35.1l15.23-9.86ZM153.13,636.55c-21.19-2.53-40.35-13.44-61.3-17.03s-43.91-2.25-64.88.64c-5.92.81-11.74,2.45-17.72,2.9.2,1.32,1.51,1.29,2.42,1.69,18.61,8.26,43.69,19.42,63.92,20.78,13.7.92,28.23-.51,41.95-.75l35.61-8.23ZM301.53,659.03c-6.19-18.12-24.67-27.09-41.21-33.73,3.89,9.66,6.08,20.51,13.1,28.5,7.7,6.33,20.25-.2,28.11,5.24ZM225.08,780.47c6.28-31.39,15.74-63.93.29-94.36-6.04-11.9-22.27-26.3-32.9-34.56-.95-.74-8.08-5.76-8.6-5.26,1.38,2.09,2.56,4.68,2.94,7.18,3.86,25.94-3.64,55.18,11.89,78.07,5.26,7.75,12.37,13.57,17.04,21.93,4.92,8.81,5.79,15.46,8.07,24.92.18.75.22,2.26,1.28,2.08ZM384.73,686.03l-37.88-1.54c-6.73,1.07-13.11.5-19.85,1.89-17.48,3.61-30.61,16.76-43.45,28.13,14.13.16,25.55,6.29,40.09,5.25,19.68-1.41,34.45-9.34,47.25-23.96l13.84-9.76ZM189.85,877.93c-2.56-17.63-8.93-32.89-17.1-48.48-9.87-18.82-21.62-38.11-38.74-51.21-8.76-6.7-19.42-10.43-28.08-17.26,6.23,15.95,9.19,32.96,16.13,48.7,6.07,13.75,21.33,36.99,34.8,43.91,11.58,5.95,18.81,10.2,28.43,19.54,1.54,1.49,2.41,3.87,4.57,4.8ZM338.26,775.24c-40.92,2.59-85.05,11.54-113.92,42.72,12.95-4.23,26.17,2.12,39.34,1.5,27.5-1.3,50.32-19.9,67.83-39.36l6.75-4.86ZM184.61,897.42c-4.82-8.14-14.11-12.87-22.84-15.76-15.03-4.98-33.35-8.79-49.12-9.71l24.05,19.79c14.55,13.29,31.21,3.36,47.91,5.68ZM301.54,877.19c-.34-.31-6.53,3.35-7.74,3.87-25.22,10.94-51.63,11.44-70.6,33.59-9.07,10.6-10.98,22.15-14.6,35.24,4.86-1.94,9.65-4.23,14.59-6.02,12.97-4.7,19.28-6.73,30.92-14.8,19.73-13.68,37.15-29.77,47.43-51.89ZM411.55,924.59c-6.14.74-27.4,10.98-33.58,14.42-28.8,16.07-54.33,57.68-37.6,90.12,7.19,13.94,28.33,29.51,43.22,18.21,22.57-17.13,32.11-88.47,34.11-115.81.12-1.71.46-4.82-.71-6.01-1.73-1.3-3.39-1.17-5.43-.93ZM86.42,1030.12c-.9-6.71,1.41-12.79,2.15-19.22,1.51-13.1,1.91-27.25.1-40.37-2.37-17.12-18.79-32.35-29.22-45.36.07,1.44.72,2.54.79,4.07.92,20.36-4.57,38.5-3.04,58.51,1.35,17.6,14.38,33.84,29.21,42.37ZM415.48,976.89c4.18-5.58,14.1-13.01,16.27-19.32,2.11-6.1,4.87-23.72,1.88-29.2-2.29-4.2-9.95-.99-11.95,1.51-2.26,2.82-2.67,22.22-3.22,27.15-.74,6.65-2.22,13.23-2.99,19.87ZM384.74,1051.1c7.45.02,14.55-1.8,20.93-5.67,7.21-4.38,9.86-9.68,14.15-16.58,14.53-23.36,30.57-52.06,26.38-80.44l-32.25,35.57c-5.39,23.6-11.19,49.84-29.2,67.12ZM152.38,1101.33c.5-8.81,3.07-17.29,4.39-25.97,2.88-18.96,7.32-44.87,5.26-63.52-1.74-15.67-7.38-31.24-13.77-45.46-9.59,19.2-14.09,40.5-16.11,61.86-2.46,26.02,2.36,51.3,18.52,72.14.48.62-.01,1.37,1.71.94ZM223.58,1065.35c1.49-14.49,1.47-45.72-10.11-56.22-6.62-6-17.14-7.84-11.65,4.91l21.76,51.31ZM85.67,1061.59c-20.17-16.45-46.16-18.6-70.45-10.48l25.96,14.13c14.43,6.09,30.1-.7,44.49-3.65ZM225.08,1078.84c-1.11-1.24-1.32.12-1.47,1.13-3.57,24.08-7.55,48.07-11.11,72.15l2.84,3.93-3.77,1.25c-2.34,25.49-7.22,50.8-8.96,76.35-4.44,65.19,16.93,121.99,35.01,183.12l9.95,41.39c-.34-29.41,1.38-58.84,5.36-87.98,6.7-48.96,20.39-96.6,33.5-144.06l-61.35-147.3ZM467.75,1116.13c9.43-21.34-9.89-19.98-24.7-17.58-20.97,3.39-67.17,24.26-52.22,51.79,3.42,6.3,14.39,9.22,21.26,8.7,14.74-1.12,39.95-23.28,49.49-34.46.64-.75,3.87-4.65,3.36-5.26-11.85,2.28-23.74,4.5-35.38,7.71-7.24,2-14.3,5.06-21.57,6.53l.06-2.18c19.21-7.48,39.46-11.62,59.71-15.25ZM153.13,1132.83c-19.97-1.79-38.29-12.28-57.68-16.15-21.21-4.23-45.62-3.13-67-.24-6.16.83-12.24,2.52-18.47,2.9-.34,1.95.27,1.16,1.07,1.56,4.82,2.43,10.46,3.46,15.41,5.57,32.87,13.99,47.95,17.91,85.08,15.35l41.6-8.98ZM395.23,1159.07c7.79,18.03,29.42,9.57,42.99,3.63,10.62-4.64,35.97-20.27,38.38-32.09,1.2-5.9,1.1-13.92-7.01-11.88-9.28,13.26-22.75,25.65-36.33,34.5-12.27,8-23.64,12.03-38.02,5.83ZM252.06,1422.94c15.63-50.21,33.16-99.78,51.58-149.01-1.99-14.68-9.39-28.19-14.1-42.15-1.72.77-2.07,3.54-2.61,5.25-17.69,55.82-29.57,115.92-34.89,174.26l.02,11.64ZM130.64,1386.2c-.82-5.73,1.3-10.89,2.03-16.33,1.99-14.72,3.38-41.45-3.4-54.63-5.95-11.57-16.69-22.39-24.85-32.48-.39,2.69.84,5.22.81,7.87-.21,22.5-8.91,46.32.04,68.11,4.45,10.84,14.6,22.6,25.37,27.47ZM196.6,1458.92c.7-8.53,3.12-16.78,4.4-25.22,5.85-38.57,10.45-64.94-4.57-102.42-1.02-2.56-2.3-6.4-4.31-8.05-2.78,9.66-7.94,18.5-10.28,28.33-7.22,30.38-9.85,68.55,6.67,96.34l8.09,11.01ZM307.55,1345.73c-4.81,8.46-10.33,16.49-15.13,24.98-4.72,8.34-21.34,37.84-20.8,45.75.19,2.75,2.12,8.1,5.6,5.78,3.16-2.11,11.73-17.12,13.96-21.28,8.68-16.21,15.29-34.24,17.02-52.7.08-.84.69-2.69-.65-2.52ZM129.9,1418.43c-19.4-16.35-46.06-18.73-69.7-10.48.06.92,1.07,1.22,1.73,1.64,6.67,4.2,24.48,13.99,31.72,14.75,12.28,1.29,24.47-3.32,36.26-5.91ZM196.6,1489.67c-21.2-2.15-40.51-13.55-61.29-17.04-21.73-3.66-50.57-1.9-72.26,2.28-2.85.55-6.42.81-8.85,2.39,17.85,5.81,33.82,15.78,52.46,19.49,17.03,3.4,34.11,1.97,51.34,1.86l38.61-8.98Z"/>
  </g>
</svg>