<?xml version="1.0" encoding="UTF-8"?>
<svg id="Camada_1" xmlns="http://www.w3.org/2000/svg" version="1.1" viewBox="0 0 1190.2 1683.8">
  <!-- Generator: Adobe Illustrator 29.3.1, SVG Export Plug-In . SVG Version: 2.1.0 Build 151)  -->
  <defs>
    <style>
      .st0 {
        fill: #5d7563;
      }
    </style>
  </defs>
  <path class="st0" d="M383,306.3c.2-.8,1.7-1.4,2.6-1.1l1,1.3c3.2,22.1,16,48.7,14.4,71.1s-13.1,39.1-20,50.5-13.2,17.2-16,27.5c1,20.5,0,40,4,60.3,4.4,21.7,13.1,42.2,22.1,62.2.9.7,2.7-5.6,2.8-6.5,1.1-8.1-2.9-16.6-3.6-24.6-3.3-39.1,20.2-84.1,45-113.2,5.5-6.5,21.5-22.7,28.1-27.4s3.6,2.8,3.4,5.6c-2.7,34.4-3.9,57.5-22.2,88-8.2,13.6-17.8,28.3-26.5,41.7s-19.1,24.7-20.2,30.8.1,3.8-.2,5.8c-1,5.3-3.1,4.7-.4,10.6,4.7,10.1,25.8,44.2,33.2,51.5,4.7,4.6,14.8,10.2,20.6,14.7,33.8,26.2,56.9,54.3,72.7,94.5l19.6,30.2c-1.2-7.6-2.8-15.3-3.6-23-1.4-13.4-2.3-28.4-1.6-41.9s4.2-27.7-1.3-46c-.5-1.5-1.2-3.1-2-4.4-15-10.1-33-17.5-39.5-35.8s-5.6-27.1-10.4-31.5-4.7-1-3.8-4.8c1.4-1.5,13.3,4.7,15.5,5.9,8.5,4.6,17.9,11.9,24.2,19.3s7.4,11.3,11.3,16.8c-1.6-18.5.1-37,.8-55.5l-2.2.7c-4-56.6-24.6-110.4-30-166.8-7.2-75.9,21.6-154.3,36-227.9-4.1-20.9-14.6-40.2-19.3-60.9s-2.8-11.7-1.4-13.7c21.3-4.9,26.8,20.2,27.4,36.4.5,11.8-2.6,23.4-2.8,35.1l51.9,155c22.7-57.3,48.8-113.2,79-167,.3-2.4-4.7-5.7-6.3-7.7-29.3-36.3,0-86.7,36.1-104.9,7.9-4,32.4-13.5,40.5-13.5,3.9,0,6.5,1.8,8.2,5.2,23.3-11.3,16,16.4,13.1,29.2,18.4-21.3,14.6,5.2,11.6,18-3.9,16.7-14,32.9-23.5,47-15.2,22.7-21.4,33.7-51.5,33.2-4.8,0-12.2-.4-16.9-1.9s-5.5-3.1-8.2-4.1c-30.5,55.3-57.8,112.3-80.1,171.5,3.8,14.7,10.3,28.6,12.6,43.7,4.9-6.5,7.7-14.6,11.6-21.8,19.3-35.5,45.2-65.3,79.5-86.9l.2-1c-2-1.6-.5-3.1-.7-4.6-.4-2.6-1.5-4.7-1.5-7.6,0-21.3,35.6-36.6,53.1-39.9,17.4-3.2,49.2-6.2,36.9,21.5,5.9-.3,8.8,3.8,8.8,9.4.2,24.8-54.6,46.7-75.2,44.6-10.8-1.1-15.4-10.8-19.5-19.5-42.7,25.3-72.2,67.2-91.7,112.1,4.3,20.3,2.6,39.4,1.3,59.8,0,.8-1.5,1.5.6,1.3,39.6-43.4,93.6-70.1,151.5-79.4,5.4-.9,11-.9,16.3-1.7s6.1-2.2,9.1-2.2,7.8,1,6.4,4.5c-.5.5-11.8.5-13.7.9-4.6,1-24.2,19.1-29,23.4-41.5,37.4-78.9,79.8-127.2,108.9l-2.5-.2c-.8-.7-1-.9-.4-1.9s13-8,15.2-9.6c49.4-34,88.9-80.2,134.4-119-8.7-.4-18.4,1.8-27,3.7-51.6,11.5-99.5,38.8-134.5,78.4-4.5,26.9-14.1,50.6-30.1,72.6-2.6,3.6-9.3,13-13.5,13.5-6.7.9-7.6-8.1-6.9-12.9,1.6-10.8,26.8-47.1,34.4-57.8s10.4-12,11.6-15.4c4.1-11.5,3.4-44,1.5-56.5-.1-.9-.2-3.6-1.3-3.6-14.1,32-28.8,63.7-42.3,96-6.8,16.1-20.6,44-24.2,59.8-2.4,10.5-2.9,30.5-3.2,41.8-.9,27.4.4,57.2,7,83.8s.2,2.3,1.3,2.1c.3-3.2,1.3-6.4,2.2-9.4,2.7-8.4,10.9-25.8,11.9-33.1s-1.9-8.9-2.1-11.8c-1.4-18.7,3.1-35.1,15.3-49.1s39.1-27.1,48.5-43.7,3.9-10.2,4.7-11,2.2-.8,3.4-.7c-3.6,18.5-3.1,37.9-7.9,56.2-4.3,16.6-23.6,35.7-37.2,46s-17.5,10-21,17.3-9,24.3-11.6,33.4c-7.1,24.5-7.5,51.2-4.9,76.5,7.7-6.1,6.4-16.2,8.6-24.7,8.8-34.7,41.5-62,70.9-79.8,7.6-4.6,26.9-13.6,35.3-15.7s2.4-1.1,3.6.6l-13.8,28.9c-14.8,30.3-43.7,49.2-70.2,68.5-12.1,8.8-22.2,11.9-30,25.5s-2.3,2.1-3,3.8c-1.3,3.6,4.4,29.9,5.7,35.6,6.1,27.7,14.9,54.8,21.4,82.5l12.6-26c20.2-33,46.6-67,84.2-80.7,17.7-6.4,40-11.8,58.3-6.1v2.5c-3.1,1.2-6.4,1.8-9.3,3.2-11.2,5.2-16.7,17.3-24.5,26.5-12.9,15.4-32.8,36.9-51.5,44.4-10,4-24,9.3-34.3,12.2-13.9,3.9-20.8.3-28,15.4s-2.2,5.2-3.1,7.8c.6.6,10.8-6.8,12.2-7.6,21.2-12,43.1-9.1,65.7-2.8v2.9c-16.9,1.5-26.7,25-45.3,18.1-5.8-2.1-13.1-10.1-18.8-10.5-5.7-.4-14.1,2.9-16,8.7,2.7,13.5,6.2,26.9,8.1,40.5,5.2,36.5,2.7,72.5-1.4,108.9,1.2-.6,2.1-3.3,2.6-4.5,9.5-23.4,14.9-46.8,30.8-67.4,21.5-27.7,44.6-32.1,78-36s10.9-1.2,16-.5c-2.2,1.7-2.5,5.2-4.2,7.1-5,5.7-10.9,11-15.6,17.4-14.4,19.3-22.9,41.4-46.7,51.5-8.3,3.6-17.5,5-25.7,8.8-14.8,6.7-40.5,31.3-39.8,48.6,0,.5,1.4,0,1.6,1.5,1.4,10.5.5,24.1,1.4,35.3,3.2,39.5,11.9,78.8,13.5,118.4,3.3,83.3-32.7,160.6-56.1,238.6,2.6,21,13.4,45.1,14.8,65.8.6,9-.3,12.7-10.3,8.8-22-8.7-13.2-54.1-8.1-71.5l-37.8-158.5-1.5-1.1c-26.5,55.4-57.8,108.4-92.7,158.9-.3.5-.2,1,0,1.5.8,1.6,5.7,6.3,7.5,9.1,20.7,33.3-4.5,74-33.8,92-12.5,7.7-33.4,14-47.9,15.8-5.8.7-12,1.8-14.2-5.2-24.6,9.3-14.8-17.2-10.8-29.9-17.5,16-14.9-.8-11.4-14.1,3.8-14.5,12.7-28.7,21.7-40.6s23.2-30.1,32.2-34.5c11.1-5.4,35.1-4.9,46.2.1,1.8.8,6.7,4.8,8.1,4,28.5-42.5,55.6-86.1,79.1-131.6,4-7.7,12.4-22,14.8-29.5s-3.8-22.5-5.2-28.9c-1-4.8-1.3-11.1-2.6-15.4s-.3-1.8-1.4-1.9c-22.6,42-56.6,78.5-99.7,99.7,2.2,2.4.6,4,.7,6.3.5,8.6,1.2,12.7-4.8,19.9-15.3,18.4-57.6,26.9-79.8,20.6s-10.4-14.1-6.7-23.6c-8,.2-7.7-8.7-5.8-14.5,5.3-16.6,35.3-27.5,50.8-30.9,13.7-3,31.1-6.6,39.6,7.7,2,3.5,2.5,7.4,4,10.2s.5,1.3,1.6,1.2c2.4-.2,20.7-12,24-14.3,32.6-22.5,56.5-53.3,75.9-87.5.2-21.4.3-42,4.8-63-38.5,35-89.3,58.4-141.3,64.5-11,1.3-22,.9-33,1.5s-5.6,1.6-8.2,1.5-8.6-1.2-7.9-4.1c.7-2.1,10.9,0,13.8-.4,5.1-.8,20.8-13.2,25.8-16.9,46.9-34.5,89.2-75.9,142.3-101.4.8-.5,2.3.3,2.5,1,.5,2.2-11.7,7.2-14,8.5-52.3,29.4-96.4,71.2-144.7,106.5-.8.6-4.9,1.5-1.4,2.4,12.2-1,24.4-2,36.5-4,49-8.2,95-30.6,131.1-64.6,5.7-22.5,14.9-41.8,28.9-60.3,3.5-4.6,15.7-20,20.5-21.5,7.6-2.4,8.6,8.5,7.2,13.9-2.5,9.3-24.7,36.5-31.9,45.3-6.6,8.1-14,15.6-20.6,23.6-5.1,19.2-7.4,39.3-6,59.2,15-25.2,29.3-50.9,43.2-76.7,11.8-21.9,26.4-47,36.3-69.4,2.5-5.7,2.7-11.6,4-17.6-.3-1.4-6.2-3.2-7.6-4.3-9.7-7.5-10.8-7.9-21.7-13.5-24.8-12.7-40.5-31-48.2-58.2-3.7-12.9-4.4-33.7-16-41.7-4.6-3.2-25.4-15.6-29.6-16.1-7.6-.9-20.9-1.8-28.2-.6-10.4,1.7-20.2,6.5-30.9,7.3-33.8,2.5-63.2,0-93.1-17l-19.7-6.6.5-1.9c7-1.5,14-3.2,21-4.4,23.9-3.9,50.7-5.6,74.5-.5,13,2.8,25.2,8.7,38.1,12.2s21,4.6,31.6,6.2c-17.2-12.4-33.1-25.7-47.6-41.2-9.4-10.1-12.1-15.4-24.9-23.1-2.2-1.3-5.4-3.1-7.9-3-13.5.9-23.1,7.7-39.1,5.8s-20.1-11-29.7-14.5-6.5-2.2-10.5-.4l-.4-2.3c1.1-2.5,16.7-7.1,20-7.7,12.8-2.6,26.1-2.4,38.5,1.7,14.2,4.7,26.1,15.4,38.6,23.3l-18.1-36.3c-18.6-11.5-30.1-27.3-31.4-49.6-1.1-19.1,7.5-41.6,1.9-59.6-.8-2.5-2.5-4.8-3-6.7-.8-2.8-.2-4.9,2.3-2.3,8.5,9.1,29.1,34.4,33.7,45,4.4,10.2,4.6,34.8,3.4,46.1s-4.2,17.8-2.8,24.6,11.4,24.5,14.4,29.8c11.4,20.3,29.1,38.6,47.6,52.5.3-9-6.6-13.7-10.6-20.5-17.2-28.6-14.7-69.3-6.5-100.5s8.8-20.7,11.9-31.5l3-.4c3.9,14.3,10.6,27.8,13.3,42.5,4.5,24.2-.9,52.5-4.4,76.9-1.1,7.7-4.2,17.3-4.4,24.9s3,12.5,3.4,13c2.3,3.3,20.6,14.7,25.2,17.6,8.2,5.1,24.6,12.3,30.9,17.6,7,5.9,15,12.9,22.3,19.2,28.7,24.7,52.3,54.5,60,92.6l5.9-34.2c1.3-11.2,1.6-22.4,2.4-33.6,1.1-16.5,5-39.4-3.5-54.3-5.5-9.7-23.4-12.3-33.2-17s-19.6-13.8-25.9-21.3c-13.7-16.3-11.5-31.8-20.2-49.5s-6.5-8.6-6.4-13.5c1-1.1,12.4,7.4,14.3,8.6,22.7,13.9,50.7,25.3,61.5,51.7l13.4,39.5c-1.7-16.4-4.9-32.7-8.6-48.7-8-34.7-19-68.7-27-103.4-7-6-11.5-14.7-18.3-20.7s-22.3-12.7-31.8-20.6c-18.5-15.3-39.1-37.8-49-59.7s-7.8-24.7-14.2-36-21-32.2-24.2-35.1-16.7-9.5-20.2-11.3c-16.6-8.6-32-7.2-48.9-12.6-18.5-5.8-48.2-20-63.5-31.7-17.9-13.7-29.9-32.7-46.5-47.9-1.1-1-12.1-8.2-4.2-7.8,8,.3,26.4,6.2,34.8,8.8,26,8,54.1,20.1,75.5,37,12.1,9.5,22.1,21.5,33.8,31.4s21.8,16,32.6,24c-4.7-10.3-11.2-19.8-16.1-30-5.6-11.5-11-24.8-14.8-36.9-5-16-5-22-14.2-36.8s-3.7-8.8-7-11.7-25.5-6.1-32.4-8.1c-27.7-8.1-26.3-20.8-42.9-38.8-2.9-3.1-6.1-6.6-10.8-5.6-1.1-.2-1.2-3.5,0-3.8,28.5-1,57.1,9.6,75.2,31.9,9.5,11.7,15.6,25.5,24,37.8-.9-7.9-.5-15.7-.7-23.6s.2-20.9-.8-26.2-5.4-8.5-6.5-10.7c-13.1-26.2-10.2-48.7,3-73.8s26.8-37.6,26.8-51.2-.6-10.7,0-12.7ZM738,46.7c-8,1.2-25.6,8.1-33.3,11.7-30.2,14.1-58.3,53.3-45.2,87.5,6.2,16.1,28.9,35,45.3,21.3,23.2-19.4,33.7-77,39-105.7,1.3-7.2,7.4-16.8-5.8-14.8ZM739.7,99.7c4.7-4.6,15.2-11.9,18-17.6s7.7-26.6,3.7-31.5-10.7,0-12,2.5-2.8,12.8-3.5,16.5c-1.9,10.1-2.6,20.4-6.2,30.1ZM773.5,73.5c-1.3-.3-1.5.5-2.3,1.1-11.5,8.8-21.4,22.4-33,31.5-7.5,24.1-15.3,50.2-35.2,67.1,13.3.2,24.5-3.4,33-13.9s37.5-55.1,37.5-72.7v-13.1ZM538.9,174.7c1.7-12.5,3.1-24.4,1.4-37-1.2-8.9-4-20.6-13-24.5-10.9-4.7-7.9,3.1-6,10.5,3.6,14.4,10.8,35,16.3,48.9s.2,2.2,1.3,2.1ZM532.9,575c4.6-80.7,29.3-157.3,57.5-232.1l-51.9-154.7c-10.5,43.2-21.3,86.6-29.2,130.4-5.4,29.5-9.4,58.7-7.1,88.8,3.3,43.3,16.6,85.3,24.4,127.8l6.3,39.7ZM720.3,256.4c19.8-6.3,40.4-9.4,61.1-11.2,6.4-4.5,5.9-16.9-2.5-19.4-19.6-5.7-67.3,9.2-77,28.2-6.9,13.4.8,27,15.2,29.8,17.8,3.4,45.1-17.9,57.5-29.8.8-.8,5.7-5.2,4.8-6-19.4,2.2-38.8,4.7-57.5,10.4l-1.7-2.1ZM706,283.4c1.7,5.5,6.8,10.7,12.5,11.9,18.1,3.9,70.4-18,72.9-38.6.6-4.8-1.7-11.6-7.4-8.2s-6.5,7.4-8.2,9c-11.7,10.6-37.6,30.4-53.5,30.3-5.4,0-11.2-2.5-16.2-4.4ZM362.7,450.6c2.1-7.6,8.2-13.6,12.3-20.3,7.8-12.6,22.5-42.1,22.2-56.6s-1.1-9.5-1.8-13.3c-2.1-12.6-6.5-24.8-8.8-37.3-2.2,2.2-2.4,6.2-3.8,9.3-9.5,20.8-24.2,36.5-31.4,58.6-5.5,16.7-3.1,35.8,4.8,51.4s5,9.2,6.4,8.2ZM541.1,539c18.7-49.6,40.9-97.7,62.8-146-.5-15.2-7.4-29.7-11.1-44.4-1.7,1-2.3,3.8-3,5.6-19.8,50.7-45.3,127-49.4,180.7,0,.9-.6,4.1.7,4.1ZM463.2,413.1c-1.3-.3-1.5.5-2.2,1.1-34.7,26.6-69.7,86.6-66.7,131.2.4,6.2,2.9,12.1,3,18.4,1.8.4,1.2-.3,1.7-1,14.1-20.6,28.5-41.4,41.4-62.8s22.3-54.9,22.9-86.9ZM345.5,485.8c.5-.5-4-6.8-4.6-7.7-16-23.2-38.6-37.4-67.3-38.7,11.2,11.9,17.4,29.2,32.7,36.6s26.2,6.9,39.3,9.8ZM603.3,466.3c-5.6,6-10.5,12.9-15.1,19.7-7.4,10.8-19.4,28.2-24.7,39.8s-2.9,7-2.9,9.9,1.5,7.8,5.3,6,11.2-13.7,13.2-16.8c12.1-17.9,20.6-37.1,24.3-58.6ZM382.2,599c-6.3-5.4-13.3-9.9-19.5-15.4-10.2-8.8-19.1-19.6-29.6-28.1-28.6-23.2-66.1-35.8-101.5-44.2,16.7,15.8,29.3,35.4,48,49,14.3,10.4,43,24,59.9,29.3s29.1,3.9,42.7,9.4ZM620.6,538.3c-.4,1.7-1.5,3.2-2.6,4.5-15.4,17.7-39.4,26.8-52,47.7s-10.2,33-5,46.7c4-5.1,9.9-7.6,14.9-11.4,11.9-9,34.2-28.8,39-42.8s5.7-28.6,6.5-40,.6-4.6-.7-4.9ZM535.9,661.2c-3.4-27.7-20.4-50.8-45.7-62.2,4.2,9.7,5.1,20.7,9,30.4,6.2,15.6,23.4,23.4,36.7,31.8ZM656.5,638c-22.6,6.6-42.2,19.9-60.3,34.5s-39,41.7-41.6,70.4c6.8-5.2,14.3-9.5,21.2-14.4,12.6-8.9,27.3-19.4,39.1-29.1,19.4-16,33-38.1,41.6-61.4ZM529.9,766.9l-10.9-18.7c-14-36.6-37.3-66.3-68.6-89.5l-12.7-8.7,3,5.2c-.8-.5-5.1-1.8-4.5.3s3.2,6.3,4.3,9.2c13.5,36.3,24.3,52.6,53.8,78.1,11,9.5,24.6,14.6,35.6,24ZM362.7,829.9c-.8-8.3,2-16.3,2.9-24.5,1.4-13.1,1-36.2-5.3-47.7s-15.8-21.2-23.8-30.5c.3,3.5.8,6.6.8,10.2-.4,23.4-9.8,48,2.6,70.1,5,9,13.6,17.9,22.9,22.5ZM720.2,766.2c-18.7-.8-38.8,3.8-56,11.1-25.2,10.8-49.4,37.3-64.9,59.6-1.2,1.8-11.9,17.8-11.1,18.5,5.9-2.7,12.4-2.6,18.6-4.3,9.8-2.6,23.7-7.9,33.3-11.7,28-11,50.2-42.8,68.4-65.8l11.6-7.5ZM427.9,901.1c3.9-34.9,15.1-70,6.4-105-.8-3-8.9-29.2-10.5-29.2-8.9,18-13.1,36.8-15.3,56.7-2.1,19.6-1.6,34.5,5.1,53.1,3.4,9.2,7.4,17.2,14.2,24.4ZM362,861.4c-19.5-16.2-45.4-18.9-69-10.5l24.2,13.6c14.7,6.7,30-.6,44.7-3.1ZM574.1,934.8c-6.9-24.1-13.6-48.5-36.9-61.6l-38.8-23.1c7.7,11.4,7.9,26.7,12.6,38.7,4,10.3,20.1,26.3,29.6,31.8,8.2,4.8,17.8,6.5,26.4,10.4,1.2.5,6.7,4.2,7.1,3.8ZM647.5,867.4c-19-3.8-41.7-6.5-57.7,6.7,8.8-1.4,13.8,7,21.2,9.9,6.9,2.7,10.1,1.3,16.2-2.1l20.3-14.5ZM427.2,931.9c-20.4-2.6-39.1-13.5-59.1-17-14.2-2.5-31.1-2.8-45.5-1.7-12,.9-23.8,3.6-35.6,5.2-.3,1.9.2,1.2,1.1,1.6,5.2,2.3,11,3.4,16.2,5.6,7.9,3.4,14.1,7.4,22.9,10.1,22,6.8,43.1,5.4,65.9,4.4l34.2-8.1ZM706,930.4c-11,.5-23,2-33.9,4-17.2,3.1-27.7,6.5-41.1,18.1-22.7,19.9-32.4,49.9-42,77.6,6.8-7.4,14.5-14.9,23.5-19.6,9.9-5.2,20.9-6.4,31-11,25.3-11.6,36.7-44.7,55-64.2l7.5-4.9ZM568.1,1064.5c-9-43.5-40.6-77.2-75-103-.7-.6-3.8-3.3-4.4-2.7,5.2,10.6,5.9,22.7,9.1,34,5.9,21,20.2,42.7,39.6,53.3,10.5,5.7,23.3,8.3,30.7,18.4ZM536.6,1449.1c1.1,0,1.2-1.1,1.5-1.8,7.3-15.8,13.9-41.2,19.5-58.5,15.3-47.8,34.8-104.2,35.2-154.5s-12.1-100-15-149.9c-.3-5.4,1.1-12-1.1-16.9-12.2,79.1-43.5,152.2-77.5,223.8l37.5,157.8ZM497.6,1166.5c6.2-5.8,11.8-12.5,17.2-19.1,6.3-7.7,29.6-36.4,30.7-44.3s.5-6.1-1.4-8.2c-2.6-1.6-9.7,6.6-11.6,8.7-16.3,17.5-29.2,39.6-34.8,63ZM498.4,1284.9c27.5-59.7,55.2-120.2,68.2-185.2l-38.8,73.2-38,66.9c.8,13.6,3.2,29.1,7.2,42.3s.3,2.8,1.4,2.7ZM378.5,1339.7c-3.7-17.2-22.8-14.3-36.1-11.8-14.8,2.8-48.3,15-51.2,32-.9,5.3.3,9.3,6.4,7.9,8.1-7.8,17.8-14.8,27.5-20.5,11.8-6.9,26.2-14.5,40.2-12.8,4.9.6,8.8,3.5,13.2,5.2ZM362,1365.9c-13.7,2.2-27.7,4.5-41.6,5.3-5.1.3-17-1.1-20.9.1-5.3,1.6-7.2,16.2,1.3,19.4,19.7,7.4,65.1-2.7,78.3-19.9,5.8-7.6,6.1-19.8-1.1-26.6-20.1-18.7-53.1,6.4-70.4,18.7l-4.9,5.2c19.9,1.1,39.6-2,59.2-4.5v2.2ZM371.7,1449.9h-14.6c-13.6,0-36.3,30.7-44,41.4-10.8,15.1-20.7,33.3-20.1,52.3l38-30.2c7.9-18.8,16.2-40.9,31-55.6,2.9-2.9,7-4.8,9.7-7.9ZM377.5,1452.3c-13.4,2.1-29.6,29.9-34.9,41.5-8.6,18.7-14.6,38.4-19.8,58.2-1,3.7-5.8,16.2-4.7,18.6s5.7,2.4,8.2,2.2c41.7-3.4,92.8-37.4,88.1-84.2-1.7-16.7-18.2-39.2-36.8-36.3ZM536.6,1463.4c-1.9-.2-1.2,0-1.5,1.1-4.2,14.3-10.1,56,8.6,61.9,1.9.6,3.6.9,5.7.7,2.9-2.9-12.3-55.9-12.7-63.7ZM328.2,1520.3l-17.3,13.1c-4.4,5.8-12.2,27.8-8.2,33.7,2,2.9,10.6.4,12-1.6s3.5-10.4,4.2-12.8c3.1-10.8,4.7-22,9.2-32.4Z"/>
  <path class="st0" d="M832.7,665.2c.5.5,4.9-3.2,5.6-3.8,24-20.1,39-31.9,72.6-29.1s22.1,4,24.5,6.3c4.4,4.2-3.7,2.2-4.6,2.3-8.2.5-22.7,14-30.9,17.7-6.4,2.9-15.6,4-22.6,3.6s-20.3-4.6-27.8-4.4-1.7.6-2.6,1c-3,1.4-17.1,13-19.5,15.8-4.7,5.4-8.8,12.9-13.5,18.7-12.9,16.1-28.6,29.7-44.2,43.1,8.8-2.1,18-4,26.6-6.7,16-5.1,30.7-13.7,46.8-18.4,33.2-9.7,69.6-7.1,103.4-2.6,1,4.6-6.1,4.9-9.7,6.4-15.5,6.3-28.8,16-44.4,21.6-19.2,6.8-44.3,8.8-64.7,8.9-12.6,0-26.7-5.9-39.1-6-3.8,0-26.4,3.1-29.2,4.4l-31.9,22.1-7.5-1.1c13.7-10.2,28.4-19.2,41.9-29.7s16.6-12.7,17.2-15.1c1-4,2-11.4,1.5-15.5-1-8.3-4.5-17-6.3-25.2-5.4-24.6-13.6-54.9-10.9-79.8,1.8-16.6,7.7-32.3,11.6-48.4l1.9-.4c12.9,21.3,20,43.2,24.5,67.7,4.6,25.6,4.5,50.8-7.5,74.5-3.7,7.3-11.5,14-9.2,23.1,15.8-15.5,32.3-32.7,42.7-52.5,3.7-7.1,16-34.2,16.9-40.9,1-8.3-3.6-19.3-5-28-2.3-13.9-3.8-37.7,1.4-50.7,7-17.5,22.3-32.3,31.5-48.7,1.2-2.1,3.8-1.6,3.4,1.1-.7,4-3.6,8.1-4.1,13.2-2.7,25.2,12,49.3,6.2,75.9-3.5,15.6-15.7,29.9-28.3,39.1l-16.9,40.4ZM848.4,621c.5.6,5.4-3.5,6-4.1,6.1-5.3,12.9-13.8,16.4-21.1,12.9-26.8-2.2-53.1-2.9-80.2,0-2.5,1-4.6.8-7.1-8.1,11.3-19.8,24.7-24.9,37.7-5.2,13.5-1.9,42.4,1.1,56.9,1.2,5.9,3.7,11.7,3.5,17.8ZM784.7,702.7c8.5-13.7,14.9-29.8,16.5-46.1,2.8-29-8.6-70.6-22.3-96.1s-1.2-2.1-1.6-1.7c-8.9,25-13.1,49.2-8.6,75.7,3.6,20.9,9,46.4,15,66.7.2.7.1,1.7,1.1,1.5ZM924.9,638.2c-13.8-2.7-25.8-4.2-39.7-1.1-13,2.9-23.2,9.5-33.7,17.2.7,1.2,1.6.9,2.6,1.1,10.5,2.3,27.6,5.1,37.9,2.7s24.3-13.3,32-18.2c.7-.5,1.3,0,1-1.7ZM936.9,710.9c-25.7-3.5-52.4-4.5-78.1.2-19.1,3.5-35.9,11.7-53.6,19.1l-18.9,6.2c9.4-.5,18.4,2.8,27.6,4.3,20,3.2,56.4.2,75.7-6.3,13.7-4.6,24.8-13,37.9-18.3l9.5-5.1Z"/>
  <path class="st0" d="M696.5,971.3c-2,26.5-6.9,54.7-16.9,79.5s-38.6,54.4-52.1,86.2c18.2-13.3,36.6-25.3,57.2-34.6,5.6-2.6,13.1-4.4,18.3-7.2s16-11.7,17.5-13.3c4.5-4.8,3.6-20.6,4.6-27.6,3.4-25.5,11.7-25.3,26.8-41.4s7.9-8.1,7.5-14.1c2.7-3.7,3.7,6.5,3.8,8.2,1.8,26.8-8.2,50.4-28.1,67.9-7.3,6.4-16.2,11-22.9,18l42.2-6.1c22.7-19.7,45.7-22.6,73.6-11.8s32.5,18.2,48,18.1,14.8-3.5,11.3,1.5c-18.6,5.2-38.8,17.9-58,20-13.3,1.5-39.2-7.4-51.6-13.2-7.1-3.3-15.9-10.2-23.8-9.9-15.2.6-41.1,6-55.5,11.2s-33.8,14.8-47.6,25.5c2.6-.5,5.3.8,7.8.7,4.9-.2,13-4.5,18.4-5.6,46.9-9.6,97.5,19.4,131.2,49.5l.7,3.4c-6.2-1.3-12.3.6-18.3.8-47.9,1.5-72.1-13.7-112.9-34.1-5.2-2.6-14.6-9.3-19.9-10.1s-13.1-1-14.5-.4c-19.3,14.1-37.1,30-54.7,46.1l.7-7.9,25.5-22.4c5.1-4.9,12.2-22.2,14-29.5,3.3-13.4,1.5-27.8,4.9-42.3s9.7-34.6,16.6-47.8c10.2-19.6,26.6-32.4,39.2-50,2.1-2.8,3.1-7.9,6.9-7ZM632.1,1119.7c3.9-5.3,6.9-11.3,10.6-16.7,6.3-9.3,14-17.7,20.1-27.1,17.9-27.7,26-62.3,29.2-94.8-11.1,14.4-25.2,26.5-34.8,42-9.4,15.2-18.5,41.6-21.8,59.1-1.7,8.9-1.1,17.7-1.9,26.6-.3,3.5-1.6,7.3-1.5,10.9ZM759.5,1023.4c.4-4.4-.3-9.4,0-13.9-7.3,8.4-20.1,16.3-25.6,25.7-5.6,9.4-7,26.7-7.4,37.6,0,.9-.6,4.9,1.1,4.2,7.3-6.9,14.9-13.1,20.3-21.6,5.2-8.1,10.6-22.4,11.5-32ZM871.9,1096.5c-.9-2-3.8-1.4-5.8-2-25.8-7.7-51.1-28.2-79-21.7-9.8,2.3-21.3,8-28.3,15.1,11.1,4.7,21.4,11.2,32.8,15.2,15.1,5.3,29.5,9.7,45.3,6s23.3-8.5,35.1-12.5ZM802.2,1171.4c-9.2-6.3-16.9-14.5-26.5-20.4-28.1-17.2-62.4-30.8-95.9-25.2-5.3.9-10.2,3.6-15.6,4.3-.4,1.8.2,1.2,1,1.7,5.9,3.8,14.9,8.5,21.2,11.7,38.3,19.5,65.2,33.4,110.1,29.3l5.6-1.5Z"/>
</svg>