<?xml version="1.0" encoding="iso-8859-1"?>
<!-- Uploaded to: SVG Repo, www.svgrepo.com, Generator: SVG Repo Mixer Tools -->
<!DOCTYPE svg PUBLIC "-//W3C//DTD SVG 1.1//EN" "http://www.w3.org/Graphics/SVG/1.1/DTD/svg11.dtd">
<svg fill="#5D6D68" version="1.1" id="Capa_1" xmlns="http://www.w3.org/2000/svg" xmlns:xlink="http://www.w3.org/1999/xlink" 
	 width="800px" height="800px" viewBox="0 0 123.394 123.395"
	 xml:space="preserve">
<g>
	<g>
		<circle cx="61.703" cy="12.768" r="12.768"/>
		<path d="M70.198,28.645c-0.214-0.131-0.44-0.226-0.665-0.321c-1.421-0.948-3.019-1.646-4.647-2.046l-3.181,3.202l-3.084-3.237
			c-0.01,0.002-0.021,0.003-0.031,0.006c-1.662,0.397-3.291,1.109-4.737,2.08c-0.222,0.095-0.444,0.187-0.655,0.316
			c-6.269,3.845-25.345,15.545-11.359,41.252c0.898,1.652,2.601,2.589,4.358,2.589c0.8,0,1.612-0.194,2.365-0.604
			c0.264-0.144,0.502-0.314,0.729-0.496l0.004,46.151c0,3.235,2.623,5.858,5.858,5.858s5.858-2.624,5.858-5.858l-0.003-40.737
			c0.233,0.01,0.464,0.028,0.697,0.028c0.046,0,0.091-0.005,0.138-0.006l-0.002,40.714c0,3.235,2.623,5.857,5.858,5.857l0,0
			c3.234,0,5.857-2.622,5.857-5.857l0.002-46.678c0.362,0.396,0.777,0.752,1.274,1.023c0.753,0.409,1.564,0.604,2.365,0.604
			c1.757,0,3.459-0.938,4.357-2.589C95.542,44.189,76.466,32.489,70.198,28.645z M48.635,61.152c-2.708-6.65-2.173-11.5,0-15.273
			V61.152z M61.734,54.75h-0.06l-3.079-4.214l3.079-20.583h0.06l3.08,20.583L61.734,54.75z M74.774,61.117V45.903
			C76.93,49.667,77.46,54.499,74.774,61.117z"/>
	</g>
</g>
</svg>